<?xml version="1.0" encoding="UTF-8"?>
<svg version="1.1" xmlns="http://www.w3.org/2000/svg" width="500" height="500">
<path d="M0 0 C0.90525421 -0.00281982 1.81050842 -0.00563965 2.74319458 -0.00854492 C4.24532501 -0.00550858 4.24532501 -0.00550858 5.77780151 -0.00241089 C6.82674591 -0.00416321 7.87569031 -0.00591553 8.9564209 -0.00772095 C12.45012026 -0.01214746 15.94376954 -0.00919573 19.43746948 -0.00582886 C21.86633311 -0.00650238 24.29519667 -0.0074728 26.72406006 -0.00872803 C31.83377723 -0.01020665 36.94347699 -0.0080478 42.05319214 -0.00338745 C48.56808957 0.00226767 55.08294541 -0.0009411 61.59784126 -0.00695992 C66.62536931 -0.01059739 71.65288775 -0.00941166 76.68041611 -0.00683212 C79.07951742 -0.00616943 81.47861962 -0.00696805 83.87771988 -0.00931168 C118.64137908 -0.03578169 118.64137908 -0.03578169 130.30465698 3.18948364 C131.09944458 3.40717407 131.89423218 3.6248645 132.71310425 3.84915161 C150.08041651 8.91454526 164.61583561 19.32324044 173.80465698 35.12698364 C181.94704906 50.07610726 182.13558775 70.16394045 178.24215698 86.43948364 C177.49867586 88.69260949 176.6900012 90.92573266 175.80465698 93.12698364 C175.21491089 94.64678833 175.21491089 94.64678833 174.61325073 96.19729614 C169.78687447 105.85004867 160.42307626 108.73224743 150.80465698 112.12698364 C149.80821167 112.48534302 148.81176636 112.84370239 147.78512573 113.21292114 C133.9696819 117.49974089 119.11760265 117.42830881 104.80465698 117.12698364 C104.80465698 116.13698364 104.80465698 115.14698364 104.80465698 114.12698364 C105.80045776 113.67258911 105.80045776 113.67258911 106.81637573 113.20901489 C115.97473673 108.86380712 122.18695418 103.22290529 125.74996948 93.56448364 C131.47365609 74.89303994 131.77425278 49.37297444 123.55465698 31.39260864 C119.7482137 24.77458793 114.20307734 20.6014656 106.83102417 18.58792114 C97.50686156 16.46246752 88.20313258 15.9585733 78.66793823 16.05667114 C77.23448059 16.06428467 77.23448059 16.06428467 75.77206421 16.072052 C73.44950719 16.08512864 71.1271281 16.1035063 68.80465698 16.12698364 C68.79434952 16.93686737 68.78404205 17.7467511 68.77342224 18.58117676 C68.67555333 26.2035908 68.57305417 33.82592168 68.46531773 41.44820213 C68.41009014 45.36714213 68.35667042 49.28608959 68.30734253 53.20510864 C68.25969652 56.98527244 68.20735365 60.76534438 68.15171623 64.54539871 C68.13129374 65.98950547 68.11258047 67.43363741 68.09558296 68.87778854 C68.07153692 70.89629615 68.04091821 72.91472226 68.00997925 74.93313599 C67.99443497 76.08341278 67.97889069 77.23368958 67.96287537 78.41882324 C67.80465698 81.12698364 67.80465698 81.12698364 66.80465698 83.12698364 C64.64460308 84.0677006 62.4493847 84.92801334 60.24215698 85.75198364 C50.32422666 89.57263004 40.91895616 94.31611898 31.60153198 99.41604614 C30.92219604 99.78616821 30.24286011 100.15629028 29.54293823 100.53762817 C28.24927222 101.24641228 26.95991962 101.96314626 25.67575073 102.68899536 C22.34202653 104.52309806 20.7212623 105.12698364 16.80465698 105.12698364 C16.80101135 104.07986206 16.79736572 103.03274048 16.79360962 101.95388794 C16.75660585 92.06694648 16.69877433 82.18031494 16.62075424 72.29360962 C16.58131072 67.21119937 16.54910686 62.12896157 16.53366089 57.04641724 C16.51847379 52.13787364 16.48399164 47.22980425 16.43634796 42.32147217 C16.42155535 40.45251598 16.41361719 38.58349208 16.41277313 36.71447754 C16.41039531 34.08844952 16.38325114 31.46372337 16.35055542 28.83792114 C16.35558578 28.07187057 16.36061615 27.30582001 16.36579895 26.51655579 C16.26147366 21.07113832 14.96486326 16.62833054 11.80465698 12.12698364 C7.51663195 9.77877946 2.69533508 9.72585244 -2.12112427 9.37307739 C-4.19534302 9.12698364 -4.19534302 9.12698364 -5.19534302 8.12698364 C-5.32034302 4.62698364 -5.32034302 4.62698364 -5.19534302 1.12698364 C-3.64056857 -0.4277908 -2.16347289 0.0010315 0 0 Z " fill="#ECE0E2" transform="translate(173.19534301757813,85.87301635742188)"/>
<path d="M0 0 C0.66 0 1.32 0 2 0 C12.3390179 23.46608556 19.29367876 49.05278207 9.8515625 74.0390625 C1.53087921 92.65238293 -16.15672775 104.44071118 -34.42578125 112.01953125 C-52.48846912 118.86842264 -72.11891405 120.1878942 -91.24755859 120.13037109 C-93.39297374 120.12495462 -95.53818444 120.13038148 -97.68359375 120.13671875 C-99.06770879 120.13605874 -100.4518237 120.13477919 -101.8359375 120.1328125 C-103.06876465 120.13168457 -104.3015918 120.13055664 -105.57177734 120.12939453 C-108.80375984 120.00740687 -111.82779254 119.61113696 -115 119 C-112.13848957 129.6839309 -108.20342848 139.00022289 -102.79296875 148.6484375 C-101 152 -101 152 -101 154 C-104.37462715 153.45276317 -106.08235 152.9451 -109 151 C-109 150.34 -109 149.68 -109 149 C-109.56074219 148.74734375 -110.12148437 148.4946875 -110.69921875 148.234375 C-115.23104445 145.80303897 -119.0439776 142.25932627 -123 139 C-123.72832031 138.40960938 -124.45664063 137.81921875 -125.20703125 137.2109375 C-126.84597129 135.85572435 -128.42948474 134.43394872 -130 133 C-130 132.34 -130 131.68 -130 131 C-130.80050781 130.67708984 -130.80050781 130.67708984 -131.6171875 130.34765625 C-134.87657608 128.50423156 -137.4281177 125.99986627 -140.125 123.4375 C-143.76403407 119.81366093 -143.76403407 119.81366093 -148 117 C-148 116.34 -148 115.68 -148 115 C-148.58861816 114.7328418 -149.17723633 114.46568359 -149.78369141 114.19042969 C-152.03471886 112.98135171 -153.60883629 111.70300154 -155.4609375 109.953125 C-156.09773438 109.355 -156.73453125 108.756875 -157.390625 108.140625 C-158.04546875 107.51671875 -158.7003125 106.8928125 -159.375 106.25 C-160.02210938 105.6415625 -160.66921875 105.033125 -161.3359375 104.40625 C-165.29401313 100.67161412 -169.16994176 96.86563154 -173 93 C-171.51224328 89.11482958 -169.44232538 87.69694358 -165.9375 85.5625 C-164.9475 84.95664063 -163.9575 84.35078125 -162.9375 83.7265625 C-159.72442387 81.83802573 -156.48972759 80.0060721 -153.2109375 78.234375 C-150.93682246 76.96472773 -148.76113174 75.58321844 -146.5625 74.1875 C-141.17949637 70.9207474 -135.50265743 68.4666235 -129.73876953 65.96386719 C-125.39841901 64.07707167 -121.14360775 62.11307298 -116.9375 59.9375 C-112.02709768 57.43402241 -107.02368649 55.24099461 -101.9375 53.125 C-101.19814209 52.81425537 -100.45878418 52.50351074 -99.69702148 52.18334961 C-96.65509718 50.93746821 -94.31932667 50 -91 50 C-91.5911276 52.99268524 -92.44422955 54.89590406 -94.328125 57.28515625 C-94.79613525 57.89294922 -95.26414551 58.50074219 -95.74633789 59.12695312 C-96.24254639 59.76568359 -96.73875488 60.40441406 -97.25 61.0625 C-103.31890354 69.10098977 -107.59688312 77.16906732 -110 87 C-109.195625 87.07347656 -109.195625 87.07347656 -108.375 87.1484375 C-104.43204261 87.52457488 -100.50566081 87.92949644 -96.58203125 88.4765625 C-66.44000305 92.66208766 -38.26762195 90.76019386 -10 79 C-10 82.99674817 -11.34111143 84.0846704 -14 87 C-26.07965752 96.51852813 -40.95471403 100.61773681 -55.9375 102.625 C-57.3925293 102.82609375 -57.3925293 102.82609375 -58.87695312 103.03125 C-61.2507236 103.35866662 -63.62502437 103.68146409 -66 104 C-60.05251628 104.11673177 -54.53153491 103.83481266 -48.6875 102.75 C-47.95402344 102.61577637 -47.22054687 102.48155273 -46.46484375 102.34326172 C-30.99021738 99.37075373 -14.86715711 93.00239578 -5.625 79.5 C-4.72522119 78.01473131 -3.84856838 76.51510947 -3 75 C-2.62230469 74.35289062 -2.24460937 73.70578125 -1.85546875 73.0390625 C3.74161526 62.76726039 4.56516956 52.13891285 4.5 40.625 C4.50134445 39.57900131 4.50134445 39.57900131 4.50271606 38.51187134 C4.48995582 27.49757518 3.13555307 17.34637056 -0.00390625 6.76171875 C-1 3 -1 3 0 0 Z " fill="#EDB7B9" transform="translate(351,114)"/>
<path d="M0 0 C4.30222194 0.84312308 6.62049711 3.14690287 9.6875 6.125 C14.0761388 10.28825066 18.54751485 14.1027191 23.453125 17.66015625 C23.96359375 18.10230469 24.4740625 18.54445312 25 19 C25 19.66 25 20.32 25 21 C25.55171875 21.2475 26.1034375 21.495 26.671875 21.75 C29.45136707 23.24234474 31.7814707 25.03672523 34.25 27 C35.14203125 27.70125 36.0340625 28.4025 36.953125 29.125 C37.62859375 29.74375 38.3040625 30.3625 39 31 C39 31.66 39 32.32 39 33 C39.5671875 33.25652344 40.134375 33.51304687 40.71875 33.77734375 C46.67549729 36.9699155 51.73012495 41.3487989 53.9375 47.8125 C55.01215902 50.67661418 55.4879727 51.72227495 58.2109375 53.19921875 C60.80610361 53.99803114 63.32142372 54.56109087 66 55 C66.72832031 55.12761719 67.45664062 55.25523437 68.20703125 55.38671875 C69.798265 55.6362605 71.39874959 55.82595104 73 56 C73.625 58.8125 73.625 58.8125 74 62 C73.34 62.99 72.68 63.98 72 65 C69.01518728 65.29138538 66.23825675 65.3884139 63.25170898 65.35644531 C61.89305725 65.35951187 61.89305725 65.35951187 60.50695801 65.36264038 C57.50313346 65.36565664 54.49985335 65.34714728 51.49609375 65.328125 C49.41626624 65.325069 47.33643668 65.32319167 45.25660706 65.32244873 C40.89438059 65.31784049 36.5323382 65.30339364 32.17016602 65.28125 C26.56528049 65.2529497 20.96054005 65.2420374 15.35558987 65.2375679 C11.06035395 65.23342056 6.76514767 65.22360913 2.46992683 65.21169281 C0.40256044 65.20597685 -1.66480883 65.20122257 -3.73217964 65.19742584 C-6.6152058 65.19058693 -9.49811453 65.17696635 -12.38110352 65.16113281 C-13.24398483 65.16001495 -14.10686615 65.15889709 -14.99589539 65.15774536 C-20.88531405 65.11468595 -20.88531405 65.11468595 -22 64 C-22.125 60.5 -22.125 60.5 -22 57 C-20.24952192 55.24952192 -17.69217866 55.41667112 -15.3125 55.0625 C-8.91066066 54.25972525 -8.91066066 54.25972525 -3 52 C-0.98908582 45.84567543 -0.66666502 40.03140017 -0.5859375 33.59375 C-0.56657135 32.6284436 -0.5472052 31.66313721 -0.5272522 30.6685791 C-0.46789982 27.61247343 -0.42124962 24.55632918 -0.375 21.5 C-0.33677936 19.41665105 -0.2977253 17.33331722 -0.2578125 15.25 C-0.16223511 10.1667907 -0.07804187 5.08350753 0 0 Z " fill="#ECE0E2" transform="translate(190,225)"/>
<path d="M0 0 C1.32 0 2.64 0 4 0 C5.80368302 3.67693064 7.59980036 7.35745534 9.3894043 11.04125977 C9.99743197 12.29028143 10.6074106 13.53835554 11.21948242 14.78540039 C14.62703079 21.73144952 17.78004217 28.57075485 20 36 C23.14582047 33.05697527 24.83002501 29.71157037 26.6875 25.875 C27.02910156 25.18083984 27.37070313 24.48667969 27.72265625 23.77148438 C31.58008385 15.89472985 35.29978345 7.95152918 39 0 C40.32 0 41.64 0 43 0 C44.38544553 5.84834356 45.45966111 11.6528431 46.21875 17.61328125 C46.43081519 19.20640343 46.6430599 20.79950173 46.85546875 22.39257812 C47.18056162 24.86530653 47.5033318 27.33830002 47.82275391 29.81176758 C48.13604591 32.22563734 48.45811602 34.6382122 48.78125 37.05078125 C48.87402222 37.78935867 48.96679443 38.5279361 49.06237793 39.28889465 C49.71010314 44.44151845 49.71010314 44.44151845 52 49 C55.05908413 49.81584568 55.05908413 49.81584568 58 50 C57.67 51.32 57.34 52.64 57 54 C54.18743719 54.02684312 51.37512759 54.04676188 48.5625 54.0625 C47.35883789 54.07506836 47.35883789 54.07506836 46.13085938 54.08789062 C44.08704779 54.0965143 42.04316098 54.0522815 40 54 C38.47666775 52.47666775 38.69747106 50.96480081 38.5 48.84375 C38.4175 47.98523438 38.335 47.12671875 38.25 46.2421875 C38.1675 45.33726562 38.085 44.43234375 38 43.5 C37.83382063 41.73953727 37.66715681 39.97912019 37.5 38.21875 C37.41878906 37.35507812 37.33757812 36.49140625 37.25390625 35.6015625 C36.87601232 31.72960315 36.43996007 27.86536345 36 24 C35.57589844 24.84820312 35.15179688 25.69640625 34.71484375 26.5703125 C33.80748679 28.38502642 32.89998976 30.19967281 31.98925781 32.01269531 C30.3285662 35.3224653 28.68632001 38.63904678 27.08203125 41.9765625 C26.77467041 42.60933105 26.46730957 43.24209961 26.15063477 43.89404297 C25.28800785 45.67167641 24.4328904 47.45294805 23.578125 49.234375 C22 52 22 52 19 54 C15.3378147 49.86263182 13.18369646 45.54394918 10.9375 40.5625 C10.25974408 39.08434662 9.58136948 37.60647674 8.90234375 36.12890625 C8.58249512 35.42910645 8.26264648 34.72930664 7.93310547 34.00830078 C6.67926445 31.30968849 5.34913062 28.65202934 4 26 C3.49490361 29.08252089 2.99682001 32.16613525 2.5 35.25 C2.28537109 36.55904297 2.28537109 36.55904297 2.06640625 37.89453125 C1.86337891 39.16103516 1.86337891 39.16103516 1.65625 40.453125 C1.53056641 41.22817383 1.40488281 42.00322266 1.27539062 42.80175781 C0.91712934 45.29225843 0.91712934 45.29225843 1 49 C2.32 49.66 3.64 50.32 5 51 C5 51.99 5 52.98 5 54 C-0.61 54 -6.22 54 -12 54 C-12 52.68 -12 51.36 -12 50 C-10.515 49.505 -10.515 49.505 -9 49 C-6.81769922 43.26078194 -6.28124574 37.25387576 -5.5625 31.1875 C-4.62338682 23.6443006 -3.61540701 16.12504611 -2.375 8.625 C-2.2519751 7.86469482 -2.1289502 7.10438965 -2.00219727 6.32104492 C-1.12449597 1.12449597 -1.12449597 1.12449597 0 0 Z " fill="#ECE0E2" transform="translate(164,322)"/>
<path d="M0 0 C1.32 0 2.64 0 4 0 C4.49628906 1.06476563 4.99257813 2.12953125 5.50390625 3.2265625 C9.40213797 11.56364253 13.37661286 19.84618897 17.5546875 28.046875 C18.83542683 30.66373699 19.96210826 33.27931292 21 36 C23.3695119 33.6304881 24.29314845 31.45150364 25.6796875 28.3984375 C26.19660156 27.26792969 26.71351563 26.13742187 27.24609375 24.97265625 C27.78363281 23.78542969 28.32117188 22.59820312 28.875 21.375 C32.14421349 14.19227546 35.4079414 7.02794073 39 0 C40.32 0 41.64 0 43 0 C44.51856464 5.72391479 45.616291 11.38554398 46.47265625 17.2421875 C46.60063095 18.09177032 46.72860565 18.94135315 46.86045837 19.81668091 C47.26480996 22.50225285 47.66420857 25.18852307 48.0625 27.875 C48.46454703 30.58286966 48.86776641 33.29053241 49.2752533 35.99758911 C49.52780144 37.67538983 49.77722621 39.3536643 50.02320862 41.03244019 C50.58080308 45.1407119 50.58080308 45.1407119 52 49 C54.52733235 49.65555119 54.52733235 49.65555119 57 50 C57 51.32 57 52.64 57 54 C54.20775927 54.08071788 51.41783434 54.14035408 48.625 54.1875 C47.43390625 54.22520508 47.43390625 54.22520508 46.21875 54.26367188 C44.14413852 54.29004405 42.06899135 54.15486462 40 54 C39.34 53.01 38.68 52.02 38 51 C38.2975232 49.65822176 38.63645831 48.32541553 39 47 C38.86680611 44.37922865 38.86680611 44.37922865 38.44140625 41.578125 C38.30283203 40.55332031 38.16425781 39.52851563 38.02148438 38.47265625 C37.79428711 36.87744141 37.79428711 36.87744141 37.5625 35.25 C37.41490234 34.17105469 37.26730469 33.09210938 37.11523438 31.98046875 C36.75020795 29.31930834 36.37822581 26.65931106 36 24 C34.76815511 26.4361796 33.53891923 28.87358881 32.3125 31.3125 C31.94745361 32.03783936 31.58240723 32.76317871 31.20629883 33.51049805 C28.67869327 38.56291624 26.31218804 43.6611596 24.10546875 48.86328125 C22.98603693 51.0269887 21.81390717 52.3939905 20 54 C15.4599278 50.02052802 13.30854849 46.00235301 10.9375 40.5 C10.28662079 39.00748886 9.62919322 37.51781417 8.96484375 36.03125 C8.6824585 35.37705078 8.40007324 34.72285156 8.10913086 34.04882812 C6.73451407 31.36471442 6.73451407 31.36471442 3 27 C2.34 34.26 1.68 41.52 1 49 C2.32 49.66 3.64 50.32 5 51 C5 51.99 5 52.98 5 54 C-0.61 54 -6.22 54 -12 54 C-12 52.68 -12 51.36 -12 50 C-10.515 49.505 -10.515 49.505 -9 49 C-6.43976268 42.46762977 -5.93591759 35.28470411 -5 28.375 C-2.9498311 13.52729244 -2.9498311 13.52729244 -1.9375 6.6640625 C-1.78152344 5.59881348 -1.62554687 4.53356445 -1.46484375 3.43603516 C-1 1 -1 1 0 0 Z " fill="#ECE0E2" transform="translate(443,322)"/>
<path d="M0 0 C3.73286397 0.40333912 5.18357945 1.97488483 7.5 4.8125 C9.4216608 7.12262556 11.28148358 9.27426606 13.4375 11.375 C15 13 15 13 15 15 C15.53109375 15.20625 16.0621875 15.4125 16.609375 15.625 C20.00773436 17.57961192 22.51055928 20.22123717 25.25 23 C26.08144531 23.81984375 26.08144531 23.81984375 26.9296875 24.65625 C31 28.7466133 31 28.7466133 31 31 C31.66 31 32.32 31 33 31 C34.32 32.65 35.64 34.3 37 36 C37 26.1 37 16.2 37 6 C34.69 5.34 32.38 4.68 30 4 C30.33 3.01 30.66 2.02 31 1 C37.6 1 44.2 1 51 1 C51 1.99 51 2.98 51 4 C49.02 4.66 47.04 5.32 45 6 C45.00523682 7.13429443 45.01047363 8.26858887 45.01586914 9.43725586 C45.03408928 13.68090005 45.04549371 17.92454084 45.05493164 22.16821289 C45.05993319 23.99829695 45.06673656 25.82837707 45.07543945 27.65844727 C45.08768932 30.30225604 45.09327023 32.94601158 45.09765625 35.58984375 C45.10281754 36.39646957 45.10797882 37.2030954 45.11329651 38.03416443 C45.11381887 43.42943409 44.67594484 48.6462362 44 54 C39.81078664 53.4781857 37.71143789 52.28437683 34.625 49.4375 C33.56152344 48.47650391 33.56152344 48.47650391 32.4765625 47.49609375 C30.46421909 45.46788012 28.60150541 43.4148525 26.73828125 41.25390625 C22.87946659 36.79442704 18.7556509 32.64327811 14.5625 28.5 C13.83095703 27.77296875 13.09941406 27.0459375 12.34570312 26.296875 C10.56610176 24.52890501 8.78419082 22.76333622 7 21 C6.97101903 25.10415189 6.9532078 29.20827753 6.9375 33.3125 C6.92912109 34.47974609 6.92074219 35.64699219 6.91210938 36.84960938 C6.90888672 37.96787109 6.90566406 39.08613281 6.90234375 40.23828125 C6.89710693 41.26993408 6.89187012 42.30158691 6.88647461 43.36450195 C6.88365 46.10946274 6.88365 46.10946274 8 49 C10.50447516 50.21869929 10.50447516 50.21869929 13 51 C13 51.99 13 52.98 13 54 C9.87517438 54.08687496 6.75065754 54.14034568 3.625 54.1875 C2.29082031 54.22520508 2.29082031 54.22520508 0.9296875 54.26367188 C-0.34648437 54.27817383 -0.34648437 54.27817383 -1.6484375 54.29296875 C-2.82672119 54.31653442 -2.82672119 54.31653442 -4.02880859 54.34057617 C-5.00454834 54.17199097 -5.00454834 54.17199097 -6 54 C-6.66 53.01 -7.32 52.02 -8 51 C-6.35 50.34 -4.7 49.68 -3 49 C-2.12997473 37.45104805 -1.71367812 25.9269876 -1.44775391 14.35058594 C-1.39634907 12.16328649 -1.33914375 9.97619832 -1.28125 7.7890625 C-1.25095703 6.50725098 -1.22066406 5.22543945 -1.18945312 3.90478516 C-1 1 -1 1 0 0 Z " fill="#ECE0E2" transform="translate(291,322)"/>
<path d="M0 0 C5.75344659 4.49182125 9.50530178 9.77562527 11 17 C11.79144038 26.8016847 10.11429548 34.18728911 4 42 C-1.47723208 47.98980728 -7.54010148 50.39706642 -15.546875 51.28125 C-23.65185437 51.58329892 -30.97919993 49.49852419 -37.43359375 44.51171875 C-43.39357098 38.75982053 -45.98053194 31.3440815 -46.375 23.1875 C-46.23488935 16.12807864 -43.64914124 9.34468205 -39 4 C-38.34 4 -37.68 4 -37 4 C-37 3.34 -37 2.68 -37 2 C-35.41925436 1.18247697 -33.83528777 0.37118003 -32.25 -0.4375 C-31.36828125 -0.88996094 -30.4865625 -1.34242188 -29.578125 -1.80859375 C-20.28553231 -6.10289795 -8.72300364 -5.22767002 0 0 Z M-31.25 7.5625 C-35.58312538 13.59792464 -34.61752435 21.80704878 -34 29 C-32.47570148 35.85016083 -28.69389785 40.0731739 -23 44 C-19.28282296 45.85858852 -15.05685692 45.43689228 -11 45 C-5.8617843 42.62119643 -3.15048104 39.15951676 -1 34 C-0.46378551 31.16324139 -0.42621908 28.4428556 -0.5 25.5625 C-0.51703979 24.43763184 -0.51703979 24.43763184 -0.53442383 23.29003906 C-0.79231319 15.96693932 -2.60707242 11.75186672 -7.5 6.125 C-12.15832862 2.16542067 -15.58724463 1.60878622 -21.59765625 1.75 C-26.18081937 2.22694706 -28.29303229 4.19484233 -31.25 7.5625 Z " fill="#ECE0E2" transform="translate(138,326)"/>
<path d="M0 0 C6.96521813 3.68300803 10.91246 7.82607279 13.51171875 15.328125 C13.79241563 18.07730328 13.94238546 20.53238965 13.88671875 23.265625 C13.87946777 23.9671167 13.8722168 24.6686084 13.86474609 25.39135742 C13.68410771 32.14958908 12.26264796 36.70173118 8.51171875 42.328125 C7.85171875 42.328125 7.19171875 42.328125 6.51171875 42.328125 C6.51171875 42.988125 6.51171875 43.648125 6.51171875 44.328125 C-0.56138348 50.35336023 -7.92744168 52.85550471 -17.1328125 52.5703125 C-25.65590615 51.69397451 -31.7658191 48.73781125 -37.48828125 42.328125 C-42.65857318 35.41941607 -43.15821496 27.68333601 -42.48828125 19.328125 C-41.21324779 12.25110444 -37.88105814 7.04813963 -32.48828125 2.328125 C-22.43120276 -4.05673584 -10.98599443 -4.55477725 0 0 Z M-27.48828125 7.328125 C-31.72814751 14.19963238 -32.51916158 21.75758819 -31.0625 29.62890625 C-29.21835327 36.17958697 -25.39826683 41.85739792 -19.578125 45.53515625 C-17.09907303 46.47580587 -15.13578721 46.59426833 -12.48828125 46.578125 C-11.21984375 46.58585937 -11.21984375 46.58585937 -9.92578125 46.59375 C-6.47551757 46.21775973 -4.38333691 45.31244497 -2.0390625 42.734375 C3.25439813 34.58545138 3.30284802 25.70712918 1.51171875 16.328125 C-0.37203891 10.88615842 -3.84432937 7.56833688 -8.48828125 4.328125 C-15.36599171 2.03555485 -22.01523216 2.25554292 -27.48828125 7.328125 Z " fill="#ECE0E2" transform="translate(265.48828125,324.671875)"/>
<path d="M0 0 C4.0384057 -0.0744389 8.07654293 -0.12873729 12.11547852 -0.16479492 C13.48794517 -0.17983432 14.86036414 -0.20027133 16.23266602 -0.22631836 C18.21088656 -0.26291221 20.18946514 -0.27816698 22.16796875 -0.29296875 C23.35672607 -0.3086792 24.5454834 -0.32438965 25.77026367 -0.34057617 C29.34871991 0.03677257 31.14543465 0.85005645 34 3 C37.1570799 7.07097145 38.34772786 9.76703173 38.125 14.9375 C37.34368697 20.42349363 34.67008545 23.98198596 31 28 C32.2002525 30.54107512 33.33287217 32.41119503 35.125 34.625 C37 37 37 37 37 39 C37.66 39 38.32 39 39 39 C40.10589691 40.25471154 41.16083729 41.55466947 42.1875 42.875 C45.57583023 46.90398091 47.85240261 48.15957594 53 49 C53 50.32 53 51.64 53 53 C41.39470199 53.61986755 41.39470199 53.61986755 36.625 51.5 C31.21810661 46.35057772 26.67212065 40.79128299 22.5546875 34.56640625 C20.76201936 32.46895956 20.76201936 32.46895956 16 32 C16.495 39.92 16.495 39.92 17 48 C18.98 48.66 20.96 49.32 23 50 C22.67 50.99 22.34 51.98 22 53 C15.07 53 8.14 53 1 53 C1 51.68 1 50.36 1 49 C2.485 48.505 2.485 48.505 4 48 C4 33.81 4 19.62 4 5 C1.525 4.01 1.525 4.01 -1 3 C-0.67 2.01 -0.34 1.02 0 0 Z M16 6 C16 12.6 16 19.2 16 26 C20.63133796 27.22106067 20.63133796 27.22106067 25 26 C27.96397507 21.25763989 28.45813483 17.52399487 27.56640625 12.0234375 C26.70885003 8.95989184 25.72373247 7.64857491 23 6 C20.69 6 18.38 6 16 6 Z " fill="#ECE0E2" transform="translate(44,323)"/>
<path d="M0 0 C7.26 0 14.52 0 22 0 C22 1.32 22 2.64 22 4 C21.01 4.33 20.02 4.66 19 5 C18.92554593 9.73222455 18.8712553 14.46410411 18.83520508 19.19677734 C18.82016824 20.80491072 18.79973328 22.41300344 18.77368164 24.02099609 C18.73707178 26.33962064 18.72022278 28.65770049 18.70703125 30.9765625 C18.69154739 31.68930328 18.67606354 32.40204407 18.66011047 33.13638306 C18.65854426 37.8382876 19.53778762 41.00046336 22 45 C25.34870986 47.63112918 28.87988064 47.36141398 33 47 C36.07380372 45.70217176 37.55363989 44.84068041 39.12451172 41.88208008 C40.22895949 38.24627252 40.24937029 34.83376666 40.1953125 31.07421875 C40.19106766 29.95283257 40.19106766 29.95283257 40.18673706 28.80879211 C40.17559469 26.4348612 40.15050162 24.06131575 40.125 21.6875 C40.11496249 20.0722711 40.10583799 18.45703624 40.09765625 16.84179688 C40.07567489 12.89438406 40.04118657 8.94725726 40 5 C37.525 4.01 37.525 4.01 35 3 C35.33 2.01 35.66 1.02 36 0 C42.27 0 48.54 0 55 0 C54.67 1.32 54.34 2.64 54 4 C53.01 4.33 52.02 4.66 51 5 C50.98018066 5.76554199 50.96036133 6.53108398 50.93994141 7.31982422 C50.84380795 10.83852104 50.73449084 14.35669448 50.625 17.875 C50.5940625 19.07898438 50.563125 20.28296875 50.53125 21.5234375 C49.86681253 41.89951977 49.86681253 41.89951977 42 50 C36.0612841 54.49024861 29.20467441 54.61223333 22 54 C18.11716769 53.12426999 14.84221863 52.2282355 12.5 48.8125 C12.335 48.214375 12.17 47.61625 12 47 C11.34 47 10.68 47 10 47 C5.84029791 37.99489119 5.34651103 29.52532491 5.25 19.8125 C5.22177132 18.36910598 5.19183456 16.92574431 5.16015625 15.48242188 C5.08711993 11.98843291 5.03705064 8.49457793 5 5 C3.02 4.34 1.04 3.68 -1 3 C-0.67 2.01 -0.34 1.02 0 0 Z " fill="#ECE0E2" transform="translate(375,323)"/>
<path d="M0 0 C4.35403865 -0.08755672 8.70784877 -0.14057969 13.0625 -0.1875 C14.29162109 -0.21263672 15.52074219 -0.23777344 16.78710938 -0.26367188 C23.27837894 -0.31616193 28.33488032 -0.32815708 34 3 C36.94532249 6.14167733 37.89108384 8.88905514 38.3125 13.1875 C37.8358741 19.00233592 35.74867351 23.10144019 31.8125 27.375 C28.07261516 29.53582235 24.3010443 30.58922611 20 31 C19.01 30.67 18.02 30.34 17 30 C17 29.01 17 28.02 17 27 C17.55429687 26.85304688 18.10859375 26.70609375 18.6796875 26.5546875 C23.51904318 25.10748577 23.51904318 25.10748577 26.5625 21.25 C27.18847666 16.59988766 26.92840176 12.85680352 24.8125 8.625 C22.3691583 6.43441779 20.19341916 6.44076963 17 6 C16.71813726 27.02802088 16.71813726 27.02802088 18 48 C19.98 48.33 21.96 48.66 24 49 C23.67 50.32 23.34 51.64 23 53 C15.41 53 7.82 53 0 53 C0 51.68 0 50.36 0 49 C1.65 49 3.3 49 5 49 C5 34.81 5 20.62 5 6 C2.525 5.01 2.525 5.01 0 4 C0 2.68 0 1.36 0 0 Z " fill="#ECE0E2" transform="translate(0,323)"/>
<path d="M0 0 C6.93 0 13.86 0 21 0 C20.67 1.32 20.34 2.64 20 4 C19.01 4.33 18.02 4.66 17 5 C17 19.19 17 33.38 17 48 C18.98 48.33 20.96 48.66 23 49 C23 50.32 23 51.64 23 53 C15.41 53 7.82 53 0 53 C0 51.68 0 50.36 0 49 C1.98 48.505 1.98 48.505 4 48 C4 33.81 4 19.62 4 5 C1.525 4.01 1.525 4.01 -1 3 C-0.67 2.01 -0.34 1.02 0 0 Z " fill="#ECE0E2" transform="translate(349,323)"/>
<path d="M0 0 C1.859375 0.21484375 1.859375 0.21484375 4 1 C5.265625 3.06640625 5.265625 3.06640625 6.25 5.5625 C6.58515625 6.38878906 6.9203125 7.21507812 7.265625 8.06640625 C7.50796875 8.70449219 7.7503125 9.34257812 8 10 C10.70608417 8.64695791 10.96183047 7.19033456 12.125 4.4375 C12.47820312 3.61121094 12.83140625 2.78492188 13.1953125 1.93359375 C13.46085937 1.29550781 13.72640625 0.65742188 14 0 C15.32 0.33 16.64 0.66 18 1 C18.52991093 4.1443751 19.04740018 7.29066748 19.5625 10.4375 C19.71396484 11.33533203 19.86542969 12.23316406 20.02148438 13.15820312 C20.16005859 14.01220703 20.29863281 14.86621094 20.44140625 15.74609375 C20.57232666 16.53685303 20.70324707 17.3276123 20.83813477 18.14233398 C20.89155029 18.75536377 20.94496582 19.36839355 21 20 C20 21 20 21 17.4375 21.0625 C16.633125 21.041875 15.82875 21.02125 15 21 C14.34 18.69 13.68 16.38 13 14 C12.3503125 15.4540625 12.3503125 15.4540625 11.6875 16.9375 C10 20 10 20 7 21 C5.68 19.02 4.36 17.04 3 15 C3.185625 15.804375 3.37125 16.60875 3.5625 17.4375 C3.706875 18.283125 3.85125 19.12875 4 20 C3 21 3 21 -0.0625 21.0625 C-1.031875 21.041875 -2.00125 21.02125 -3 21 C-4.67849779 17.64300442 -3.29250829 14.06589953 -2.625 10.5 C-2.48578125 9.71496094 -2.3465625 8.92992187 -2.203125 8.12109375 C-1.14174107 2.28348214 -1.14174107 2.28348214 0 0 Z " fill="#EEE3E4" transform="translate(349,392)"/>
<path d="M0 0 C1.72880982 -0.05449838 3.45812712 -0.09301688 5.1875 -0.125 C6.15042969 -0.14820313 7.11335938 -0.17140625 8.10546875 -0.1953125 C12.1507444 0.07764807 14.97819327 1.30959004 18.3125 3.5625 C20.50961185 6.73610601 20.6214419 9.00639056 20.46484375 12.80859375 C19.72434193 16.29953091 17.76129821 17.89615374 15 20 C11.99686252 21.50156874 9.20932478 21.09281204 5.875 21.0625 C4.59367187 21.05347656 3.31234375 21.04445313 1.9921875 21.03515625 C0.51105469 21.01775391 0.51105469 21.01775391 -1 21 C-0.83628906 20.4740625 -0.67257812 19.948125 -0.50390625 19.40625 C0.12751124 16.39110911 0.09427977 13.57910658 0.0625 10.5 C0.05347656 9.3759375 0.04445313 8.251875 0.03515625 7.09375 C0.02355469 6.0728125 0.01195312 5.051875 0 4 C0 2.68 0 1.36 0 0 Z M6 5 C5.97312721 6.81242052 5.95366285 8.62495233 5.9375 10.4375 C5.92589844 11.44683594 5.91429687 12.45617187 5.90234375 13.49609375 C5.71387324 15.94021067 5.71387324 15.94021067 7 17 C9.45809998 17.2500773 9.45809998 17.2500773 12 17 C14.15705515 15.2435669 14.15705515 15.2435669 14.265625 13.125 C14.26046875 12.42375 14.2553125 11.7225 14.25 11 C14.25515625 10.29875 14.2603125 9.5975 14.265625 8.875 C14.15705515 6.7564331 14.15705515 6.7564331 12 5 C8.91652174 4.83318891 8.91652174 4.83318891 6 5 Z " fill="#EEE2E4" transform="translate(472,392)"/>
<path d="M0 0 C2.77487214 1.89681929 4.47320931 4.01608208 6 7 C6.56570071 11.17204275 6.58056911 14.55924119 4 18 C0.30812686 21.13249842 -3.15341504 21.57039755 -7.84375 21.4296875 C-11.32800607 20.73536111 -12.91092868 18.7419061 -15 16 C-16.57455739 12.85088521 -16.34799118 10.47991184 -16 7 C-12.14825914 0.53252467 -7.28229689 -1.47597642 0 0 Z M-8.75 5.125 C-10.58248669 7.87373003 -10.39615205 9.76475829 -10 13 C-8.96057155 15.44245747 -8.96057155 15.44245747 -7 17 C-4.45709375 17.58350505 -4.45709375 17.58350505 -2 17 C0.1202151 13.81967735 0.2495865 13.45432601 -0.25 9.9375 C-0.33765625 9.24527344 -0.4253125 8.55304688 -0.515625 7.83984375 C-0.89580089 5.76834528 -0.89580089 5.76834528 -3 4 C-6.78595012 3.63949494 -6.78595012 3.63949494 -8.75 5.125 Z " fill="#EDE2E4" transform="translate(43,392)"/>
<path d="M0 0 C0.886875 -0.01417969 1.77375 -0.02835937 2.6875 -0.04296875 C5 0.1875 5 0.1875 7 2.1875 C7.04241723 4.52044775 7.04092937 6.85452567 7 9.1875 C7.33 10.1775 7.66 11.1675 8 12.1875 C7.42307692 18.76442308 7.42307692 18.76442308 5 21.1875 C0.3995298 21.81446674 -3.76429177 21.75386627 -8 19.8125 C-11.92696989 16.62183696 -11.92696989 16.62183696 -12.37109375 13.98046875 C-12.55158715 6.89875711 -12.55158715 6.89875711 -9.625 3.125 C-6.0826852 0.51043431 -4.34664144 0.03158896 0 0 Z M-4 4.1875 C-6.42144512 6.18435749 -6.42144512 6.18435749 -6.375 10.125 C-6.29860333 13.12629769 -6.25169252 13.89086239 -4.25 16.25 C-1.6468225 17.33465729 -0.58518155 17.20310704 2 16.1875 C2 15.1975 2 14.2075 2 13.1875 C1.34 13.1875 0.68 13.1875 0 13.1875 C0 12.1975 0 11.2075 0 10.1875 C1.65 10.1875 3.3 10.1875 5 10.1875 C4.34 8.5375 3.68 6.8875 3 5.1875 C-0.40320934 4.51076553 -0.40320934 4.51076553 -4 4.1875 Z " fill="#EDE2E4" transform="translate(76,391.8125)"/>
<path d="M0 0 C0.86882812 -0.00515625 1.73765625 -0.0103125 2.6328125 -0.015625 C4.875 0.25 4.875 0.25 6.875 2.25 C6.5 5.375 6.5 5.375 5.875 8.25 C4.885 8.25 3.895 8.25 2.875 8.25 C2.215 7.26 1.555 6.27 0.875 5.25 C-1.105 5.58 -3.085 5.91 -5.125 6.25 C-5.16625 7.52875 -5.2075 8.8075 -5.25 10.125 C-5.28480469 11.20394531 -5.28480469 11.20394531 -5.3203125 12.3046875 C-5.30831689 14.48863645 -5.30831689 14.48863645 -3.125 16.25 C-0.625 16.58333333 -0.625 16.58333333 1.875 16.25 C2.535 15.59 3.195 14.93 3.875 14.25 C4.865 14.25 5.855 14.25 6.875 14.25 C6 20.125 6 20.125 4.875 21.25 C-0.17832395 21.85261103 -5.46425598 22.37262033 -9.75 19.25 C-12.27741201 16.05747956 -13.14432665 14.24012768 -13.36328125 10.24609375 C-12.95261813 6.80594862 -11.3680938 4.79621458 -9.125 2.25 C-6.03712263 0.30602581 -3.6215132 -0.02162097 0 0 Z " fill="#EEE3E5" transform="translate(221.125,391.75)"/>
<path d="M0 0 C9.27734375 -0.09765625 9.27734375 -0.09765625 12 0 C13 1 13 1 13.0625 3.5625 C13.041875 4.366875 13.02125 5.17125 13 6 C10.03 5.505 10.03 5.505 7 5 C7 5.99 7 6.98 7 8 C8.65 8 10.3 8 12 8 C13.40692958 11.78112324 14.45030866 14.94722204 14 19 C12 21 12 21 9.1796875 21.1953125 C6.11979167 21.13020833 3.05989583 21.06510417 0 21 C0 14.07 0 7.14 0 0 Z M7 12 C7 13.65 7 15.3 7 17 C8.32 16.67 9.64 16.34 11 16 C10.34 14.68 9.68 13.36 9 12 C8.34 12 7.68 12 7 12 Z " fill="#EDE2E4" transform="translate(442,392)"/>
<path d="M0 0 C0.33 1.98 0.66 3.96 1 6 C-0.32 6 -1.64 6 -3 6 C-3 5.34 -3 4.68 -3 4 C-3.66 4 -4.32 4 -5 4 C-5 4.99 -5 5.98 -5 7 C-4.34 7 -3.68 7 -3 7 C-3 7.66 -3 8.32 -3 9 C-2.01 9.33 -1.02 9.66 0 10 C1.39935013 12.79870027 1.25265405 14.90498792 1 18 C0 19.875 0 19.875 -2 21 C-4.80173027 21.36095911 -7.13775402 21.22716238 -10 21 C-10.66 20.34 -11.32 19.68 -12 19 C-11.625 16.375 -11.625 16.375 -11 14 C-10.01 14 -9.02 14 -8 14 C-7.67 14.66 -7.34 15.32 -7 16 C-6.01 16.33 -5.02 16.66 -4 17 C-5.14356688 13.21809331 -5.14356688 13.21809331 -8.0625 10.75 C-8.701875 10.5025 -9.34125 10.255 -10 10 C-10.33 9.67 -10.66 9.34 -11 9 C-10.75 5.5625 -10.75 5.5625 -10 2 C-6.3558226 -0.4294516 -4.28758728 -0.16179575 0 0 Z " fill="#EEE3E5" transform="translate(136,392)"/>
<path d="M0 0 C0.33 1.98 0.66 3.96 1 6 C-0.32 6 -1.64 6 -3 6 C-3 5.34 -3 4.68 -3 4 C-3.66 4.66 -4.32 5.32 -5 6 C-4.195625 6.804375 -3.39125 7.60875 -2.5625 8.4375 C1 12 1 12 1.25 14.875 C1 18 1 18 0 19.875 C-3.29426767 21.72802556 -6.26502789 21.24096594 -10 21 C-11 20 -11 20 -11.0625 17.4375 C-11.041875 16.633125 -11.02125 15.82875 -11 15 C-8 15 -8 15 -5 16 C-5.44472656 15.57589844 -5.88945312 15.15179688 -6.34765625 14.71484375 C-10.98510865 9.90837259 -10.98510865 9.90837259 -11.0625 5.1875 C-9.08829799 -0.73510603 -5.56342999 -0.20994075 0 0 Z " fill="#EDE2E4" transform="translate(254,392)"/>
<path d="M0 0 C0.74185547 -0.020625 1.48371094 -0.04125 2.24804688 -0.0625 C4.40234375 -0.078125 4.40234375 -0.078125 8.0625 0.25 C8.7225 1.24 9.3825 2.23 10.0625 3.25 C9.7325 4.24 9.4025 5.23 9.0625 6.25 C6.0925 5.755 6.0925 5.755 3.0625 5.25 C3.0625 10.2 3.0625 15.15 3.0625 20.25 C1.4125 20.25 -0.2375 20.25 -1.9375 20.25 C-2.2675 19.92 -2.5975 19.59 -2.9375 19.25 C-2.84718426 16.89305046 -2.69061872 14.53846418 -2.5 12.1875 C-2.39816406 10.89714844 -2.29632813 9.60679687 -2.19140625 8.27734375 C-2.06572266 6.77880859 -2.06572266 6.77880859 -1.9375 5.25 C-3.9175 5.58 -5.8975 5.91 -7.9375 6.25 C-8.31968767 4.59385343 -8.65145102 2.92542976 -8.9375 1.25 C-6.88735387 -0.80014613 -2.80865412 0.01942025 0 0 Z " fill="#EFE3E5" transform="translate(417.9375,391.75)"/>
<path d="M0 0 C2.62506802 -0.02690844 5.24986173 -0.04679404 7.875 -0.0625 C8.62136719 -0.07087891 9.36773437 -0.07925781 10.13671875 -0.08789062 C15.7734375 -0.11328125 15.7734375 -0.11328125 18 1 C17.67 2.65 17.34 4.3 17 6 C14.03 5.505 14.03 5.505 11 5 C11.14133499 6.77119803 11.28823208 8.54195287 11.4375 10.3125 C11.51871094 11.29863281 11.59992188 12.28476562 11.68359375 13.30078125 C11.91812559 16.09375599 11.91812559 16.09375599 13 19 C12.67 19.33 12.34 19.66 12 20 C10.02 20 8.04 20 6 20 C6 15.05 6 10.1 6 5 C4.02 5.33 2.04 5.66 0 6 C-1.125 2.25 -1.125 2.25 0 0 Z " fill="#EFE3E5" transform="translate(152,392)"/>
<path d="M0 0 C2.64 0 5.28 0 8 0 C8 3.25558265 7.75706131 6.442101 7.5 9.6875 C7.4071875 10.86699219 7.314375 12.04648437 7.21875 13.26171875 C7.1465625 14.16535156 7.074375 15.06898438 7 16 C7.598125 15.67 8.19625 15.34 8.8125 15 C11 14 11 14 14 14 C14.042721 15.66611905 14.04063832 17.33382885 14 19 C13 20 13 20 10.05859375 20.09765625 C6.70572917 20.06510417 3.35286458 20.03255208 0 20 C0 13.4 0 6.8 0 0 Z " fill="#EDE3E4" transform="translate(293,393)"/>
<path d="M0 0 C2.64 0 5.28 0 8 0 C7.83628906 0.53109375 7.67257813 1.0621875 7.50390625 1.609375 C6.88643623 4.53876764 6.90498075 7.25822936 6.9375 10.25 C6.94652344 11.32765625 6.95554687 12.4053125 6.96484375 13.515625 C6.97644531 14.33546875 6.98804688 15.1553125 7 16 C7.99 16.33 8.98 16.66 10 17 C10 16.34 10 15.68 10 15 C10.99 14.67 11.98 14.34 13 14 C13.93423645 17.01031744 14.04449911 17.86650268 13 21 C8.71 21 4.42 21 0 21 C0 14.07 0 7.14 0 0 Z " fill="#EDE1E4" transform="translate(0,392)"/>
<path d="M0 0 C2.64 0 5.28 0 8 0 C8.02888146 3.31248187 8.04675799 6.62493167 8.0625 9.9375 C8.07087891 10.88302734 8.07925781 11.82855469 8.08789062 12.80273438 C8.09111328 13.70185547 8.09433594 14.60097656 8.09765625 15.52734375 C8.10289307 16.35999756 8.10812988 17.19265137 8.11352539 18.05053711 C8 20 8 20 7 21 C4.66702567 21.04092937 2.33294775 21.04241723 0 21 C0 14 0 7 0 0 Z " fill="#EDE3E5" transform="translate(386,392)"/>
<path d="M0 0 C-0.16371094 0.50015625 -0.32742188 1.0003125 -0.49609375 1.515625 C-1.1878911 4.9263468 -1.10504665 8.28735757 -1.0625 11.75 C-1.05798828 12.44738281 -1.05347656 13.14476562 -1.04882812 13.86328125 C-1.0371002 15.57555803 -1.01916653 17.28779033 -1 19 C-3.31 19.33 -5.62 19.66 -8 20 C-8 13.33333333 -8 6.66666667 -8 0 C-4.71303767 -0.79953138 -3.28976808 -1.09658936 0 0 Z " fill="#EDE3E5" transform="translate(330,393)"/>
<path d="M0 0 C0 6.27 0 12.54 0 19 C-2.31 19 -4.62 19 -7 19 C-7 12.73 -7 6.46 -7 0 C-3 -1 -3 -1 0 0 Z " fill="#EDE3E5" transform="translate(108,393)"/>
<path d="M0 0 C2.31 0 4.62 0 7 0 C7.33 0.66 7.66 1.32 8 2 C7.67 2.66 7.34 3.32 7 4 C6.9283265 6.55157655 6.90691558 9.07472971 6.9375 11.625 C6.94426758 12.68460937 6.94426758 12.68460937 6.95117188 13.765625 C6.96296125 15.51045275 6.98089676 17.255237 7 19 C5.02 19.33 3.04 19.66 1 20 C-0.14982602 15.90996141 -0.11094256 11.96822949 -0.0625 7.75 C-0.05798828 7.00492187 -0.05347656 6.25984375 -0.04882812 5.4921875 C-0.03709246 3.6614236 -0.0191585 1.83070127 0 0 Z " fill="#EDE1E3" transform="translate(185,393)"/>
<path d="M0 0 C0.66 0 1.32 0 2 0 C3.32 3.3 4.64 6.6 6 10 C5.01 10 4.02 10 3 10 C3.33 11.98 3.66 13.96 4 16 C1.33951455 13.33951455 1.13398293 11.08809 0.3125 7.4375 C0.04050781 6.26058594 -0.23148437 5.08367187 -0.51171875 3.87109375 C-0.67285156 2.92363281 -0.83398438 1.97617188 -1 1 C-0.67 0.67 -0.34 0.34 0 0 Z " fill="#EDBFC0" transform="translate(351,114)"/>
<path d="M0 0 C0.66 0 1.32 0 2 0 C3.0625 1.8125 3.0625 1.8125 4 4 C3.67 4.99 3.34 5.98 3 7 C2.67 6.67 2.34 6.34 2 6 C1.67 7.32 1.34 8.64 1 10 C0.63883954 8.5225254 0.28624952 7.04295325 -0.0625 5.5625 C-0.25972656 4.73878906 -0.45695312 3.91507812 -0.66015625 3.06640625 C-0.82837891 2.04353516 -0.82837891 2.04353516 -1 1 C-0.67 0.67 -0.34 0.34 0 0 Z " fill="#EFCECF" transform="translate(351,114)"/>
</svg>
