<?xml version="1.0" encoding="UTF-8"?>
<svg version="1.1" xmlns="http://www.w3.org/2000/svg" width="1800" height="1800">
<path d="M0 0 C3.87761656 0.00769105 7.75519819 -0.00220129 11.63280964 -0.00973 C18.41209886 -0.0205107 25.19131628 -0.02027007 31.97060871 -0.01258852 C42.05199273 -0.00119669 52.13331667 -0.00706523 62.21470034 -0.01621344 C80.224612 -0.03197901 98.23449166 -0.03065413 116.24440634 -0.0219767 C132.00548967 -0.01442038 147.76656129 -0.01246443 163.52764606 -0.01604463 C164.5744335 -0.01627379 165.62122094 -0.01650294 166.6997292 -0.01673904 C170.94932672 -0.01767311 175.19892423 -0.01862831 179.44852173 -0.01961833 C219.28663202 -0.02878865 259.12472197 -0.02048555 298.96282911 -0.00432764 C334.33145087 0.00990843 369.70004022 0.00863451 405.06866169 -0.00571062 C444.8354209 -0.0217858 484.60216214 -0.02813821 524.36892414 -0.01887383 C528.61063353 -0.01791172 532.85234292 -0.0169732 537.09405231 -0.01604463 C538.13841583 -0.0158074 539.18277936 -0.01557017 540.25879025 -0.01532575 C556.00726796 -0.01191799 571.75573266 -0.01589546 587.50420856 -0.02348329 C605.41674471 -0.03207094 623.32924395 -0.02989553 641.24177551 -0.01364106 C651.25815526 -0.00485087 661.27445501 -0.00423013 671.29083264 -0.01557958 C677.99105387 -0.0223322 684.69121129 -0.0180743 691.39142311 -0.00506528 C695.20240602 0.00203435 699.01323062 0.00458857 702.82420826 -0.00628323 C721.93545074 -0.05683051 740.31455614 0.52004055 758.74834919 6.07290266 C759.60904011 6.32708967 760.46973103 6.58127669 761.35650349 6.84316633 C789.43555974 15.38629783 813.34039702 29.6222112 834.99834919 49.38540266 C835.52106403 49.85953596 836.04377888 50.33366926 836.58233356 50.82217024 C867.29320468 79.26835605 888.35244303 122.76933542 890.4805977 164.73252247 C890.7418471 173.59757303 890.72037321 182.46445738 890.69625185 191.33236493 C890.68856711 195.39476968 890.69845072 199.45714091 890.70598185 203.51954077 C890.71676703 210.62327467 890.71651911 217.72694005 890.70884037 224.83067702 C890.69745271 235.39450531 890.70331494 245.95827623 890.71246529 256.52210419 C890.72823406 275.39343151 890.72690469 294.26472829 890.71822855 313.13605849 C890.71067333 329.65095952 890.70871577 346.16584938 890.71229649 362.68075178 C890.71252564 363.7774477 890.7127548 364.87414362 890.7129909 366.00407275 C890.71392496 370.45624037 890.71488016 374.90840799 890.71587019 379.36057559 C890.72504127 421.10082977 890.71673619 462.84106453 890.7005795 504.58131571 C890.68634334 541.6416728 890.68761725 578.70199897 890.70196247 615.76235579 C890.71803637 657.42767243 890.72439078 699.09297192 890.71512568 740.75829123 C890.71416357 745.202212 890.71322505 749.64613277 890.71229649 754.09005354 C890.71194064 755.73128895 890.71194064 755.73128895 890.7115776 757.40568062 C890.70816931 773.90769473 890.71214831 790.40969643 890.71973515 806.91170882 C890.72832133 825.6806329 890.72615048 844.44952176 890.70989291 863.21844147 C890.70110028 873.71472552 890.70048554 884.21093323 890.71183144 894.70721526 C890.71858108 901.72732694 890.71433144 908.7473777 890.70131713 915.76748039 C890.69421344 919.76116833 890.69167197 923.75470511 890.70253508 927.74838804 C890.75164769 947.22185166 890.28624302 966.02383819 884.62334919 984.82290266 C884.36916218 985.68359358 884.11497517 986.5442845 883.85308552 987.43105696 C875.30995402 1015.51011321 861.07404065 1039.4149505 841.31084919 1061.07290266 C840.83671589 1061.59561751 840.36258259 1062.11833235 839.87408161 1062.65688704 C811.95817749 1092.79525916 770.21563494 1112.83476389 729.31084919 1116.38540266 C725.05421455 1116.52871211 720.80030968 1116.52316484 716.54157257 1116.51683043 C714.61658406 1116.51990938 714.61658406 1116.51990938 712.65270689 1116.52305053 C709.09067303 1116.52859984 705.52866329 1116.52794795 701.9666265 1116.52627294 C698.09113755 1116.52554047 694.21565532 1116.53056801 690.34016925 1116.53484796 C682.65352959 1116.54242132 674.96689687 1116.54462068 667.28025387 1116.54517701 C658.07290623 1116.54609132 648.86556501 1116.55276088 639.65822014 1116.55952384 C617.40383968 1116.57557997 595.1494599 1116.58148683 572.89507469 1116.58627259 C562.36494526 1116.58860908 551.83481637 1116.5922118 541.30468736 1116.59596796 C505.25160781 1116.60880357 469.19852856 1116.6195224 433.14544678 1116.62297056 C430.88242791 1116.6231922 428.61940904 1116.62341398 426.35639017 1116.62363592 C424.08793355 1116.62385656 421.81947694 1116.62407704 419.55102032 1116.62429736 C415.00017877 1116.62473991 410.44933722 1116.62518703 405.89849567 1116.62563704 C404.77015243 1116.62574643 403.64180918 1116.62585582 402.47927371 1116.62596853 C365.90116322 1116.62959833 329.32307257 1116.64551542 292.74496968 1116.6688274 C254.06336134 1116.69343486 215.38176432 1116.70714384 176.70014793 1116.70833848 C172.45208855 1116.70850993 168.20402918 1116.70872536 163.95596981 1116.70897291 C162.90999479 1116.70902868 161.86401976 1116.70908445 160.78634852 1116.70914191 C143.96799049 1116.7102916 127.14965283 1116.72130674 110.33130167 1116.73585997 C93.41904992 1116.75024112 76.50682423 1116.75345283 59.59456804 1116.74541999 C49.55380057 1116.74097126 39.51311737 1116.74479402 29.47236101 1116.7606585 C22.75550129 1116.77043756 16.03870034 1116.76920241 9.32184111 1116.75922227 C5.50115465 1116.75385126 1.68062953 1116.7530516 -2.1400433 1116.76573099 C-21.27518862 1116.82528114 -39.66958398 1116.2577756 -58.12665081 1110.69790266 C-58.98734173 1110.44371565 -59.84803265 1110.18952864 -60.73480511 1109.92763899 C-88.81386136 1101.3845075 -112.71869865 1087.14859412 -134.37665081 1067.38540266 C-134.89936565 1066.91126936 -135.4220805 1066.43713606 -135.96063519 1065.94863508 C-159.49651763 1044.14833894 -174.92423227 1015.32984349 -184.00165081 984.88540266 C-184.23223186 984.12872298 -184.46281292 983.37204329 -184.70038128 982.59243391 C-190.07389476 963.48309868 -190.13006685 944.09471084 -190.08075483 924.41705942 C-190.07397451 920.36916897 -190.08474608 916.32131565 -190.09315068 912.27343343 C-190.10546227 905.19659083 -190.10675398 898.11981458 -190.10060024 891.04296492 C-190.09147359 880.51886639 -190.09956968 869.99482876 -190.11089148 859.47073488 C-190.13052095 840.66870933 -190.13291293 821.86671141 -190.12769628 803.06467806 C-190.12313278 786.60785926 -190.12374617 770.15105137 -190.12953663 753.69423292 C-190.13029351 751.48368045 -190.13104949 749.27312797 -190.13180457 747.06257549 C-190.13294981 743.73115118 -190.1340997 740.39972688 -190.13526382 737.06830259 C-190.14596321 706.11031286 -190.15069984 675.15232676 -190.14279366 644.19433592 C-190.14249648 643.02823616 -190.14219931 641.86213639 -190.14189313 640.66070027 C-190.13944439 631.19216636 -190.1368327 621.7236325 -190.134209 612.25509864 C-190.12410816 575.32878947 -190.13246116 538.40252579 -190.15570354 501.47622298 C-190.1817978 459.9522158 -190.19461829 418.428236 -190.1875158 376.90422033 C-190.18679978 372.47342538 -190.18612538 368.04263042 -190.18547535 363.61183546 C-190.18530554 362.52092844 -190.18513573 361.43002142 -190.18496078 360.30605661 C-190.18266153 343.86629057 -190.1906169 327.42655001 -190.20376682 310.98678969 C-190.21870213 292.28207189 -190.21948904 273.57741368 -190.20169591 254.87269713 C-190.19215856 244.41742806 -190.19351515 233.9622981 -190.2109306 223.50703842 C-190.22146868 216.50792008 -190.21725187 209.50890701 -190.20145056 202.50979893 C-190.19287129 198.5321856 -190.19026322 194.55484353 -190.20571988 190.57724477 C-190.37495076 143.72004703 -179.06307904 96.43870406 -145.79632854 61.39126204 C-144.61522736 60.21738236 -143.42471658 59.0528216 -142.22113323 57.90200423 C-140.45787681 56.21100871 -140.45787681 56.21100871 -138.25165081 53.38540266 C-104.08457284 13.38492113 -50.17195741 -0.1431284 0 0 Z " fill="#E0EAEA" transform="translate(189.6891508102417,-0.38540266267955303)"/>
<path d="M0 0 C47.95837735 -0.11439547 95.91673646 -0.20271911 143.87522378 -0.25532665 C149.55451139 -0.26157917 155.23379873 -0.26805088 160.91308594 -0.2746582 C162.60884445 -0.27662553 162.60884445 -0.27662553 164.33886071 -0.2786326 C182.57417129 -0.30030928 200.80940198 -0.33968748 219.04466538 -0.38576398 C237.79625035 -0.43274517 256.54779386 -0.46034084 275.29943526 -0.47044247 C286.84312307 -0.47725704 298.38658494 -0.49867185 309.9302031 -0.53958233 C317.87737427 -0.56628914 325.82443097 -0.57393886 333.77164362 -0.56750689 C338.33691067 -0.56434674 342.90178684 -0.56871499 347.46698189 -0.59602737 C390.87289301 -0.84264219 435.13098995 4.91409524 475 23 C476.59642334 23.71953857 476.59642334 23.71953857 478.22509766 24.45361328 C499.0485241 33.92871695 518.81881507 44.66450318 536 60 C536.48227051 60.42877441 536.96454102 60.85754883 537.46142578 61.29931641 C541.02562801 64.47990712 544.52337719 67.72395159 548 71 C548.7940625 71.73992187 549.588125 72.47984375 550.40625 73.2421875 C581.75390826 103.37567589 601.21085649 150.69807898 602.16113281 193.91113281 C602.18101231 195.67507373 602.1947379 197.43909201 602.203125 199.203125 C602.20882507 200.16160339 602.21452515 201.12008179 602.22039795 202.10760498 C602.22979634 204.13129594 602.23636125 206.15500186 602.24023438 208.17871094 C602.24984153 211.20016064 602.28087383 214.22089972 602.3125 217.2421875 C602.4076757 234.50518857 600.76045109 251.3204055 596.125 268 C595.86380371 268.96437988 595.60260742 269.92875977 595.33349609 270.92236328 C593.33263266 278.15007141 591.03130352 285.13247056 588 292 C587.61086426 292.91313965 587.61086426 292.91313965 587.21386719 293.84472656 C583.26350196 303.06224543 578.57555638 311.73956917 573.375 320.3125 C572.83681641 321.21419922 572.29863281 322.11589844 571.74414062 323.04492188 C567.14469418 330.44794768 562.72067187 333.53755097 554.48583984 336.09277344 C549.64705209 337.85872662 545.27832205 340.58527398 540.8125 343.125 C483.3748216 374.92307296 418.8774906 374.27496933 355 374 C356 371 356 371 357.61962891 370.14379883 C358.31491699 369.91716553 359.01020508 369.69053223 359.7265625 369.45703125 C360.89227783 369.06016113 360.89227783 369.06016113 362.08154297 368.65527344 C362.92088379 368.3771582 363.76022461 368.09904297 364.625 367.8125 C390.19023767 358.80302048 409.67274103 342.95707222 421.87890625 318.31640625 C423.77520557 314.28265064 425.4203358 310.16654549 427 306 C427.29648437 305.22785156 427.59296875 304.45570313 427.8984375 303.66015625 C434.15781654 286.94172932 436.84067246 269.64586078 439 252 C439.09256073 251.25213226 439.18512146 250.50426453 439.28048706 249.73373413 C440.93459959 236.0092438 441.43804424 222.37998585 441.4375 208.5625 C441.43923218 207.50560974 441.44096436 206.44871948 441.44274902 205.35980225 C441.42838762 185.23002252 439.5294814 165.79567239 436 146 C435.8242041 144.9677832 435.6484082 143.93556641 435.46728516 142.87207031 C431.64165168 120.74501185 423.50740215 97.70027924 408 81 C406.7934375 79.700625 406.7934375 79.700625 405.5625 78.375 C404.716875 77.59125 403.87125 76.8075 403 76 C402.06800781 75.09507812 402.06800781 75.09507812 401.1171875 74.171875 C391.18920688 64.8488251 379.64277753 59.59737365 367 55 C366.30729004 54.74742432 365.61458008 54.49484863 364.90087891 54.23461914 C359.25882773 52.25598745 353.63060806 50.98514498 347.75 49.9375 C346.91726563 49.77701172 346.08453125 49.61652344 345.2265625 49.45117188 C308.70040178 42.82215291 268.93848039 45.43827415 233 45 C233 116.94 233 188.88 233 263 C223.1 266.96 223.1 266.96 213 271 C208.4580982 272.94581199 203.93974539 274.90613415 199.4375 276.9375 C198.23407959 277.47906738 197.03065918 278.02063477 195.79077148 278.57861328 C180.75242248 285.38432653 165.93183593 292.64899054 151.12927246 299.95001221 C149.04678196 300.97693086 146.96340684 302.00203571 144.87988281 303.02685547 C127.7437495 311.46337755 110.84251562 320.24723412 94.17529297 329.58203125 C92.28880061 330.63854409 90.40113459 331.69296442 88.51220703 332.74511719 C86.75590724 333.7241217 85.00278415 334.70885443 83.25341797 335.70019531 C82.08576904 336.35133301 82.08576904 336.35133301 80.89453125 337.015625 C80.21237549 337.40008789 79.53021973 337.78455078 78.82739258 338.18066406 C77 339 77 339 74 339 C73.99503478 337.20021556 73.99503478 337.20021556 73.98996925 335.36407185 C73.91059942 306.7498487 73.82124999 278.13566789 73.71994839 249.52151423 C73.70743259 245.98382549 73.69499934 242.44613647 73.68261719 238.90844727 C73.68015119 238.20428795 73.6776852 237.50012864 73.67514448 236.77463116 C73.63564261 225.43901464 73.60279659 214.10338842 73.57250018 202.76774398 C73.54115912 191.09793724 73.50245722 179.42817085 73.45720994 167.75840968 C73.43216614 161.21987582 73.41032221 154.68136965 73.39665604 148.14280128 C77.19937461 90.37264293 77.19937461 90.37264293 59.81787109 37.80786133 C53.83429853 31.85723618 45.65932732 29.74432521 37.6875 27.8125 C36.66857666 27.55766846 35.64965332 27.30283691 34.59985352 27.0402832 C23.03213465 24.19391207 11.89797978 22.71387879 0 22 C0 14.74 0 7.48 0 0 Z " fill="#000066" transform="translate(268,102)"/>
<path d="M0 0 C3.68424019 0.59986178 3.94807811 0.93105315 6.39453125 4.1796875 C9.87703686 10.17209509 12.24000169 16.66066436 14.6875 23.125 C14.94501038 23.79862579 15.20252075 24.47225159 15.46783447 25.16629028 C27.80357889 57.46717402 37.01822783 89.75190898 42 124 C42.18030762 125.22525391 42.36061523 126.45050781 42.54638672 127.71289062 C43.17020865 132.83053876 43.20019893 137.94362905 43.23828125 143.09375 C43.246353 144.15750854 43.25442474 145.22126709 43.26274109 146.31726074 C43.27652855 148.56972657 43.28727439 150.82221283 43.29516602 153.07470703 C43.30657737 155.32965423 43.32685213 157.58457681 43.35668945 159.83935547 C43.89102199 200.34713531 33.55377405 239.31927256 9 272 C8.47148438 272.72058594 7.94296875 273.44117188 7.3984375 274.18359375 C-0.13384939 284.19689457 -8.78883093 293.0997772 -18.12109375 301.42578125 C-19.88519191 303.00317702 -21.63203207 304.60048305 -23.34765625 306.23046875 C-39.64547299 321.57781247 -59.28935633 333.14106183 -79.39697266 342.75244141 C-81.33756679 343.68251419 -83.27410609 344.62105643 -85.20849609 345.56396484 C-123.94189033 364.41169729 -163.19703262 374.71503766 -205.81835938 380.55908203 C-208.68935889 380.95695075 -211.55542173 381.37947445 -214.421875 381.80859375 C-263.67454441 388.89696637 -315.51009054 389.9347133 -365 385 C-367.07535944 384.809432 -369.1508776 384.62058348 -371.2265625 384.43359375 C-372.14260254 384.35036865 -373.05864258 384.26714355 -374.00244141 384.18139648 C-374.66163574 384.12153564 -375.32083008 384.0616748 -376 384 C-376.51518248 392.4125656 -375.16691422 399.33659484 -372.5625 407.3125 C-372.20196533 408.44478027 -371.84143066 409.57706055 -371.4699707 410.74365234 C-367.89053054 421.74937126 -363.65838594 432.41157959 -359 443 C-358.57315918 443.97710938 -358.14631836 444.95421875 -357.70654297 445.9609375 C-351.04146244 461.12856499 -344.12756288 476.65952735 -334.73046875 490.375 C-332.98794495 493.01828667 -332.36660359 494.88386952 -332 498 C-344.04859665 496.76836568 -354.82215381 484.98362657 -363.79296875 477.48828125 C-367.55367144 474.35164775 -371.38184251 471.31496069 -375.25 468.3125 C-385.31984587 460.46211284 -394.92896512 452.16065462 -404.296875 443.48828125 C-407.13531789 440.87543715 -410.02674964 438.33543742 -412.94140625 435.80859375 C-415.4895665 433.5698875 -417.99410593 431.28589788 -420.5 429 C-424.28934126 425.54424587 -428.11083698 422.1347711 -431.98046875 418.76953125 C-436.89736556 414.46130252 -441.72639032 410.05313844 -446.578125 405.671875 C-450.3430085 402.27655062 -454.11193551 398.88941658 -457.9375 395.5625 C-462.13303221 391.90942044 -466.23373553 388.15494451 -470.34375 384.40625 C-472.54352741 382.41351047 -474.75955218 380.4466186 -477 378.5 C-480.20899244 375.71185902 -483.35916444 372.86471815 -486.5 370 C-490.28934126 366.54424587 -494.11083698 363.1347711 -497.98046875 359.76953125 C-502.02667681 356.22420775 -506.00623703 352.60412756 -510 349 C-511.2065625 347.9171875 -511.2065625 347.9171875 -512.4375 346.8125 C-514.96261787 344.54636858 -517.48211626 342.27416722 -520 340 C-520.8878418 339.19828369 -521.77568359 338.39656738 -522.69042969 337.57055664 C-529.56294375 331.32009321 -536.26132291 324.9250234 -542.82958984 318.35571289 C-544.39013243 316.79738909 -545.95857682 315.24730464 -547.52734375 313.69726562 C-559.13751921 302.15509439 -559.13751921 302.15509439 -562 297 C-562 296.01 -562 295.02 -562 294 C-560.03458811 292.49351678 -558.12325609 291.26037798 -556 290 C-555.21737793 289.52127441 -554.43475586 289.04254883 -553.62841797 288.54931641 C-550.74018116 286.78884209 -547.84019594 285.04902751 -544.9375 283.3125 C-543.8542041 282.6632959 -542.7709082 282.0140918 -541.65478516 281.34521484 C-531.84197652 275.47763273 -521.98038191 269.69447457 -512.11035156 263.92382812 C-506.11649859 260.41867018 -500.12997523 256.90420067 -494.1875 253.3125 C-487.83214044 249.48737727 -481.45514147 245.7000091 -475.0625 241.9375 C-474.10947998 241.37135986 -473.15645996 240.80521973 -472.17456055 240.22192383 C-463.97247096 235.41155595 -455.53501221 231.17717499 -447 227 C-445.63219721 226.32764815 -444.26443991 225.65520375 -442.89672852 224.98266602 C-423.38199927 215.40367519 -403.79433917 205.98914705 -384 197 C-382.81599609 196.45843262 -381.63199219 195.91686523 -380.41210938 195.35888672 C-363.16581486 187.48698813 -345.66097906 180.41533357 -327.9375 173.6875 C-326.94525421 173.30879761 -325.95300842 172.93009521 -324.93069458 172.53991699 C-322.09113867 171.45920874 -319.24766915 170.38963169 -316.40234375 169.32421875 C-315.55574188 169.00198837 -314.70914001 168.679758 -313.83688354 168.34776306 C-309.19358498 166.62826474 -304.93101845 165.49479664 -300 165 C-300.62259733 168.54961332 -302.03243427 170.69980075 -304.1875 173.5625 C-305.2703125 175.02236328 -305.2703125 175.02236328 -306.375 176.51171875 C-307.75822502 178.35475803 -309.14677796 180.19357741 -310.5390625 182.02978516 C-319.80020686 194.26184757 -328.18128385 206.79957014 -336 220 C-336.78552246 221.31967773 -336.78552246 221.31967773 -337.58691406 222.66601562 C-354.08141703 250.31509073 -354.08141703 250.31509073 -363 281 C-362.07973022 281.16653076 -362.07973022 281.16653076 -361.14086914 281.33642578 C-355.63215627 282.33544389 -350.1257887 283.34625244 -344.62109375 284.3671875 C-320.98976428 288.74057904 -297.40683797 292.64084296 -273.5 295.1875 C-272.71106354 295.27235657 -271.92212708 295.35721313 -271.10928345 295.44464111 C-251.91061359 297.49055504 -232.88021784 298.18662505 -213.57177734 298.18530273 C-210.03340433 298.18747945 -206.49534912 298.20568132 -202.95703125 298.22460938 C-182.37984944 298.27590399 -161.885626 297.14349347 -141.5 294.25 C-139.70828369 293.99730347 -139.70828369 293.99730347 -137.88037109 293.73950195 C-104.29050502 288.76462075 -72.45515045 278.74216026 -42.66162109 262.45410156 C-41.83227051 262.00389648 -41.00291992 261.55369141 -40.1484375 261.08984375 C-39.41802246 260.68628662 -38.68760742 260.28272949 -37.93505859 259.86694336 C-36 259 -36 259 -33 259 C-33.39664388 263.99033352 -35.98695795 266.72539812 -39.3125 270.1875 C-39.85302002 270.75702393 -40.39354004 271.32654785 -40.95043945 271.91333008 C-74.69125299 306.86844078 -127.77962759 320.97272066 -174.39385986 327.62768555 C-177.26024673 328.03717897 -180.12593855 328.4513824 -182.99169922 328.86523438 C-236.49590437 336.55316881 -288.06505659 337.36186547 -342 336 C-328.50693331 337.58781852 -315.07188973 338.50470117 -301.5 339.0625 C-298.7448967 339.17931988 -295.98989073 339.29789652 -293.23498535 339.41929626 C-291.54427373 339.49346074 -289.85344229 339.56497095 -288.16247559 339.6330719 C-284.04343071 339.81032763 -279.96442565 340.09322826 -275.86303711 340.51635742 C-268.78279768 341.18381617 -261.70385383 341.18412394 -254.59765625 341.203125 C-253.87041288 341.20595238 -253.14316952 341.20877975 -252.39388847 341.21169281 C-248.52959726 341.22660323 -244.66534246 341.2358787 -240.80102539 341.24023438 C-237.6723234 341.24457879 -234.54390344 341.25832366 -231.4152832 341.28125 C-211.37370572 341.42511122 -191.90236483 340.65401066 -172 338 C-169.62698086 337.69623509 -167.25393377 337.39268846 -164.88085938 337.08935547 C-122.73424301 331.68451841 -81.06291283 318.47613148 -47.72167969 291.39794922 C-45.76320264 289.80772807 -43.79179885 288.23421599 -41.8203125 286.66015625 C-40.37946529 285.50352919 -38.93935218 284.34598701 -37.5 283.1875 C-36.82888184 282.64818848 -36.15776367 282.10887695 -35.46630859 281.55322266 C-12.88815742 263.20242151 2.18086427 234.32857261 11 207 C11.23702637 206.27184082 11.47405273 205.54368164 11.71826172 204.79345703 C23.8545053 166.39233798 24.4015534 120.52513473 18 81 C17.79786501 79.67339742 17.59726445 78.34656041 17.39794922 77.01953125 C14.30660093 56.52272747 9.92483087 36.87201219 4 17 C3.24734581 14.45597687 2.49992012 11.91040086 1.7578125 9.36328125 C1.25338623 7.64492065 1.25338623 7.64492065 0.73876953 5.8918457 C0 3 0 3 0 0 Z " fill="#FE0202" transform="translate(863,192)"/>
<path d="M0 0 C8.58876618 4.12337786 15.58509208 11.46228885 22.51757812 17.91186523 C25.75048484 20.90334682 29.06628475 23.73724061 32.5 26.5 C36.47629426 29.69931722 40.26668298 33.02584945 44 36.5 C48.61001639 40.7895776 53.37783236 44.80410897 58.28515625 48.75390625 C62.06567286 51.88167179 65.64480875 55.21273883 69.25390625 58.53515625 C71.91875166 60.92707297 74.64831825 63.19254884 77.4375 65.4375 C81.97236161 69.09506264 86.25536183 72.94617027 90.51708984 76.91162109 C94.62779276 80.71398807 98.92275584 84.24270592 103.28515625 87.75390625 C107.06567286 90.88167179 110.64480875 94.21273883 114.25390625 97.53515625 C116.91875166 99.92707297 119.64831825 102.19254884 122.4375 104.4375 C126.43228037 107.65946368 130.24518203 111.00690711 134 114.5 C140.20433056 120.26273763 146.57120542 125.89364486 153.51171875 130.76171875 C161.64302596 136.52755477 164.47226143 142.99881252 166.5 152.625 C168.15133377 160.34634637 170.52256015 165.48957659 177 170.1875 C193.50026471 180.11448853 214.15481003 182.77706386 233 185 C233.08710289 188.10398978 233.14042309 191.20766548 233.1875 194.3125 C233.22520508 195.63411133 233.22520508 195.63411133 233.26367188 196.98242188 C233.27333984 197.82998047 233.28300781 198.67753906 233.29296875 199.55078125 C233.3086792 200.33106689 233.32438965 201.11135254 233.34057617 201.9152832 C232.89910583 204.61758804 232.15180386 205.3336356 230 207 C227.67814761 207.37259549 227.67814761 207.37259549 224.88317585 207.36914349 C223.28578775 207.3781032 223.28578775 207.3781032 221.65612918 207.38724393 C219.89496455 207.37413614 219.89496455 207.37413614 218.09822083 207.36076355 C216.85425763 207.36332682 215.61029444 207.3658901 214.32863539 207.36853105 C210.86914606 207.37262743 207.41016257 207.36321688 203.95073426 207.34819686 C200.22273575 207.33526892 196.4947535 207.33962366 192.76673889 207.34190369 C186.30553784 207.34347848 179.84442751 207.33404781 173.38324928 207.31719017 C164.04142874 207.29283258 154.69965217 207.28499823 145.35780331 207.2812262 C130.2021337 207.27465661 115.04651247 207.25468172 99.89086914 207.22631836 C85.16658775 207.19879089 70.44231949 207.17755089 55.71801758 207.16479492 C54.81075909 207.16400675 53.90350061 207.16321858 52.96874944 207.16240653 C48.41740377 207.15849148 43.866058 207.15470034 39.31471217 207.15097082 C1.54310695 207.11985913 -36.22844198 207.06678691 -74 207 C-74 199.74 -74 192.48 -74 185 C-71.40705078 184.65388672 -71.40705078 184.65388672 -68.76171875 184.30078125 C-39.36972501 181.47717622 -39.36972501 181.47717622 -14.08203125 168.00390625 C-12.44848444 165.74114141 -11.20221341 163.51700868 -10 161 C-9.43732422 159.85144531 -9.43732422 159.85144531 -8.86328125 158.6796875 C-2.77300539 144.23509272 -2.71692061 127.6580913 -1.953125 112.23046875 C-1.88857054 110.94775589 -1.88857054 110.94775589 -1.82271194 109.63912964 C-0.76870559 88.27932146 -0.56150848 66.91472417 -0.39910889 45.53283691 C-0.35805363 40.36818902 -0.30744354 35.20363384 -0.2578125 30.0390625 C-0.16290966 20.02610824 -0.07795733 10.01309961 0 0 Z " fill="#020267" transform="translate(342,553)"/>
<path d="M0 0 C2.80887362 1.16176772 3.22787222 2.51733308 4.46899414 5.2565918 C4.89196777 6.16586426 5.31494141 7.07513672 5.75073242 8.01196289 C6.38277588 9.41115967 6.38277588 9.41115967 7.02758789 10.83862305 C7.82497932 12.50301174 8.62572664 14.1657971 9.42993164 15.8269043 C10.2757592 17.60127442 11.12077508 19.37603165 11.96508789 21.15112305 C15.20838292 27.95568322 18.46486238 34.75351242 21.75024414 41.5378418 C22.06428696 42.18666824 22.37832977 42.83549469 22.70188904 43.50398254 C23.94870843 46.0795959 25.19564171 48.65514733 26.44577026 51.22915649 C27.31814595 53.02540546 28.18852235 54.82262499 29.05883789 56.61987305 C29.55963867 57.65176758 30.06043945 58.68366211 30.57641602 59.74682617 C32.14149087 63.08129925 33.59418402 66.44573692 35.02758789 69.83862305 C42.39010786 56.00658943 49.48265991 42.05335364 56.46508789 28.02612305 C57.45382881 26.04360572 58.44276035 24.06118344 59.43188477 22.07885742 C61.2311504 18.47226127 63.02936828 14.86514757 64.82617188 11.25732422 C65.2084494 10.49559906 65.59072693 9.7338739 65.98458862 8.94906616 C66.90791748 7.08076857 67.78584508 5.19018351 68.65673828 3.296875 C70.02758789 0.83862305 70.02758789 0.83862305 72.71508789 -0.03637695 C73.85977539 -0.09825195 73.85977539 -0.09825195 75.02758789 -0.16137695 C76.93142253 4.00800321 77.68673322 8.1375507 78.32446289 12.63891602 C78.43858521 13.40868774 78.55270752 14.17845947 78.67028809 14.97155762 C78.91635785 16.63696555 79.1595843 18.30279556 79.40026855 19.96899033 C79.78182726 22.61015565 80.1708513 25.25012763 80.56176758 27.8899231 C81.39058394 33.49682385 82.20931949 39.10517495 83.02758789 44.71362305 C83.97641871 51.20805301 84.92940019 57.70184436 85.88952637 64.19461441 C86.27128823 66.78801543 86.64717131 69.38222288 87.02270508 71.97653198 C87.25844852 73.57757318 87.49443826 75.17857813 87.73071289 76.77954102 C87.83258911 77.49457794 87.93446533 78.20961487 88.03942871 78.94631958 C88.70307479 83.3925892 89.71306108 87.55248511 91.02758789 91.83862305 C94.98758789 92.82862305 98.94758789 93.81862305 103.02758789 94.83862305 C102.69758789 96.15862305 102.36758789 97.47862305 102.02758789 98.83862305 C97.65260196 98.86775377 93.27764115 98.8854659 88.90258789 98.90112305 C87.66508789 98.90950195 86.42758789 98.91788086 85.15258789 98.92651367 C83.3543457 98.93134766 83.3543457 98.93134766 81.51977539 98.9362793 C79.87017822 98.94413452 79.87017822 98.94413452 78.18725586 98.95214844 C75.05140685 98.83947885 72.10699406 98.4248868 69.02758789 97.83862305 C69.19838867 97.30414551 69.36918945 96.76966797 69.54516602 96.21899414 C71.58417517 86.15809372 68.31269024 73.72663417 66.87084961 63.62133789 C66.52318964 61.18277276 66.18308091 58.74323745 65.84399414 56.3034668 C65.62437418 54.73960397 65.40433783 53.17579954 65.18383789 51.61206055 C65.03223206 50.52772232 65.03223206 50.52772232 64.87756348 49.42147827 C64.41263301 46.17823514 63.91916402 42.99476184 63.02758789 39.83862305 C61.24170474 43.53248424 59.45652046 47.22668228 57.67181396 50.92111206 C57.03485303 52.23934691 56.39768722 53.55748279 55.76031494 54.8755188 C52.41303664 61.79750149 49.07405623 68.72261164 45.78930664 75.67456055 C45.05417847 77.22711548 45.05417847 77.22711548 44.30419922 78.81103516 C43.39252445 80.73966955 42.48460297 82.67008414 41.58105469 84.60253906 C39.36190788 89.29116458 37.04632012 93.61657129 34.02758789 97.83862305 C31.69580078 97.60424805 31.69580078 97.60424805 29.02758789 96.83862305 C27.54882812 95.01049805 27.54882812 95.01049805 26.33618164 92.58862305 C25.87203857 91.68176758 25.40789551 90.77491211 24.9296875 89.84057617 C24.44636963 88.84993164 23.96305176 87.85928711 23.46508789 86.83862305 C22.95276611 85.82219727 22.44044434 84.80577148 21.91259766 83.75854492 C20.26139688 80.4626788 18.64098591 77.15314522 17.02758789 73.83862305 C16.19807617 72.14286133 16.19807617 72.14286133 15.35180664 70.4128418 C5.6771043 50.58763208 5.6771043 50.58763208 2.02758789 41.83862305 C-1.39097729 58.54352666 -4.67532867 75.73432014 -3.97241211 92.83862305 C-1.00241211 93.82862305 1.96758789 94.81862305 5.02758789 95.83862305 C4.69758789 96.82862305 4.36758789 97.81862305 4.02758789 98.83862305 C-5.87241211 98.83862305 -15.77241211 98.83862305 -25.97241211 98.83862305 C-25.97241211 97.51862305 -25.97241211 96.19862305 -25.97241211 94.83862305 C-25.04428711 94.73549805 -24.11616211 94.63237305 -23.15991211 94.52612305 C-19.89824511 93.21979646 -19.89824511 93.21979646 -19.0973053 90.86578369 C-16.89027348 82.27203328 -15.59003655 73.5940628 -14.34350586 64.82299805 C-14.10669238 63.19628431 -13.86913487 61.56967873 -13.63087463 59.94317627 C-13.00953559 55.69217064 -12.39545338 51.44015503 -11.78381348 47.18774414 C-10.80294777 40.36939855 -9.81564012 33.55201782 -8.8193531 26.73590851 C-8.47512566 24.36852496 -8.13693571 22.00033315 -7.79917908 19.63201904 C-7.58691472 18.1718786 -7.37440812 16.71177335 -7.16162109 15.25170898 C-6.97969711 13.98582947 -6.79777313 12.71994995 -6.6103363 11.41571045 C-5.95445793 7.737947 -5.17122012 4.37475586 -3.97241211 0.83862305 C-1.97241211 -0.16137695 -1.97241211 -0.16137695 0 0 Z " fill="#09096C" transform="translate(376.972412109375,840.161376953125)"/>
<path d="M0 0 C6.04652274 -0.07479523 12.09276937 -0.12890414 18.13964844 -0.16479492 C20.19177957 -0.17977516 22.24387927 -0.20016646 24.29589844 -0.22631836 C55.0830668 -0.60853491 55.0830668 -0.60853491 63.83984375 7.7578125 C68.93704206 13.2406884 71.56924769 18.02194228 71.3046875 25.73828125 C70.04727772 35.07213077 65.4039684 42.28043562 59 49 C58.01 49.66 57.02 50.32 56 51 C57.32139973 54.73410472 58.92378818 57.44800894 61.4375 60.5 C62.50097656 61.79550781 62.50097656 61.79550781 63.5859375 63.1171875 C64.38257813 64.06851563 65.17921875 65.01984375 66 66 C66.66177246 66.79132324 66.66177246 66.79132324 67.33691406 67.59863281 C70.12173007 70.92358179 72.92893105 74.22845629 75.74853516 77.52392578 C76.85147555 78.8248188 77.93331591 80.14353853 79.01171875 81.46484375 C84.88103786 88.54759512 91.26091206 91.38421857 100 94 C99.505 95.485 99.505 95.485 99 97 C95.37543986 97.14728458 91.75166479 97.23472226 88.125 97.3125 C87.11179687 97.35439453 86.09859375 97.39628906 85.0546875 97.43945312 C76.26836347 97.5802596 69.82832536 95.50791718 63.29296875 89.51953125 C62.59816406 88.62621094 61.90335938 87.73289062 61.1875 86.8125 C59.97126953 85.26175781 59.97126953 85.26175781 58.73046875 83.6796875 C57.81591564 82.45639989 56.90616816 81.22951178 56 80 C55.44779785 79.25266602 54.8955957 78.50533203 54.32666016 77.73535156 C49.78666393 71.56135614 45.25151229 65.37726844 41 59 C38.11404054 58.41518879 38.11404054 58.41518879 34.875 58.3125 C33.77929688 58.24675781 32.68359375 58.18101562 31.5546875 58.11328125 C30.29011719 58.05720703 30.29011719 58.05720703 29 58 C29.11115135 61.81303337 29.241469 65.62518994 29.375 69.4375 C29.4059375 70.50677734 29.436875 71.57605469 29.46875 72.67773438 C29.33298628 82.97592498 29.33298628 82.97592498 33 92 C34.51469448 92.23192865 36.03754562 92.41215238 37.5625 92.5625 C38.80193359 92.68818359 38.80193359 92.68818359 40.06640625 92.81640625 C40.70449219 92.87699219 41.34257812 92.93757812 42 93 C42 94.32 42 95.64 42 97 C28.8 97 15.6 97 2 97 C2 95.68 2 94.36 2 93 C4.64 92.67 7.28 92.34 10 92 C10.82194237 60.97783857 10.82194237 60.97783857 11.17724609 29.94763184 C11.18404188 28.40830604 11.19425474 26.86899127 11.20800781 25.32971191 C11.22579391 23.19105073 11.23016421 21.05278864 11.23046875 18.9140625 C11.23457764 17.7173291 11.23868652 16.5205957 11.24291992 15.28759766 C10.99197176 11.89134844 10.21619401 9.16867193 9 6 C6.03 5.67 3.06 5.34 0 5 C0 3.35 0 1.7 0 0 Z " fill="#07086B" transform="translate(147,842)"/>
<path d="M0 0 C1.97167969 0.12915039 1.97167969 0.12915039 4 1 C5.30175781 2.68530273 5.30175781 2.68530273 6.453125 4.93359375 C6.89962402 5.79364014 7.34612305 6.65368652 7.80615234 7.53979492 C8.52085693 8.97415894 8.52085693 8.97415894 9.25 10.4375 C10.01304443 11.93277222 10.01304443 11.93277222 10.79150391 13.45825195 C16.56541618 24.89507281 21.97160015 36.51409909 27.37316895 48.13014221 C32.11575598 60.35398279 32.11575598 60.35398279 39 71 C39.4218457 70.10095947 39.84369141 69.20191895 40.27832031 68.27563477 C47.35945214 53.18843699 54.44152059 38.10130343 61.625 23.0625 C62.08422852 22.09578369 62.54345703 21.12906738 63.01660156 20.13305664 C64.32166014 17.41004762 65.65214522 14.70206276 67 12 C67.50370117 10.97890137 68.00740234 9.95780273 68.52636719 8.90576172 C69.04102539 7.90432129 69.55568359 6.90288086 70.0859375 5.87109375 C70.54790527 4.96157959 71.00987305 4.05206543 71.48583984 3.11499023 C73 1 73 1 75.18212891 0.19555664 C75.78202637 0.13102295 76.38192383 0.06648926 77 0 C78.8799286 2.8198929 79.31996827 3.84745752 79.7902832 7.02368164 C79.91432022 7.83585144 80.03835724 8.64802124 80.16615295 9.48480225 C80.29308029 10.36766907 80.42000763 11.25053589 80.55078125 12.16015625 C80.68983383 13.0856427 80.82888641 14.01112915 80.97215271 14.96466064 C81.42588673 17.99628336 81.86903601 21.02935964 82.3125 24.0625 C82.62393233 26.14944357 82.93611144 28.23627582 83.24902344 30.32299805 C84.69185848 39.97565131 86.09606217 49.6334606 87.46484375 59.296875 C87.68632321 60.84759185 87.90791778 62.39829226 88.12963867 63.94897461 C88.53463068 66.78180992 88.92793132 69.61590867 89.3137207 72.45141602 C90.31297637 83.44359285 90.31297637 83.44359285 95 93 C96.51165654 93.39148761 98.03469632 93.73972457 99.5625 94.0625 C100.80193359 94.32740234 100.80193359 94.32740234 102.06640625 94.59765625 C102.70449219 94.73042969 103.34257813 94.86320313 104 95 C104 96.32 104 97.64 104 99 C93.44 98.67 82.88 98.34 72 98 C72.33 95.03 72.66 92.06 73 89 C72.90534093 86.10940638 72.90534093 86.10940638 72.47094727 83.48022461 C72.26061607 82.00971901 72.26061607 82.00971901 72.04603577 80.50950623 C71.88775803 79.48414261 71.72948029 78.45877899 71.56640625 77.40234375 C71.33122536 75.79003624 71.33122536 75.79003624 71.09129333 74.14515686 C70.59226936 70.74094393 70.07764788 67.33930633 69.5625 63.9375 C69.21966683 61.61799147 68.87785937 59.2983311 68.53710938 56.97851562 C67.70326335 51.3171998 66.85662833 45.65791091 66 40 C61.28861269 48.7264631 56.68277408 57.47198395 52.4375 66.4375 C51.74043945 67.89893433 51.74043945 67.89893433 51.02929688 69.38989258 C47.93836238 75.90775602 44.96213238 82.46710225 42.19311523 89.12866211 C40.79683744 92.43506598 39.30273185 95.23809245 37 98 C32.45732508 97.52044241 32.45732508 97.52044241 30.48046875 95.27075195 C30.05378906 94.49691162 29.62710938 93.72307129 29.1875 92.92578125 C28.68347656 92.01908691 28.17945313 91.11239258 27.66015625 90.17822266 C24.73279464 84.57404716 21.84828678 78.95326921 19.04101562 73.2878418 C18.00587308 71.19934946 16.96440431 69.11411008 15.921875 67.02929688 C11.79496568 58.75309723 7.8189898 50.42365719 4 42 C2.04794963 52.15491577 0.51119695 62.28981939 -0.6875 72.5625 C-0.81874268 73.66770996 -0.94998535 74.77291992 -1.08520508 75.91162109 C-1.73436435 81.64912672 -2.146964 87.22641424 -2 93 C0.64 93.66 3.28 94.32 6 95 C6 96.32 6 97.64 6 99 C-3.9 99 -13.8 99 -24 99 C-24.33 97.68 -24.66 96.36 -25 95 C-21.04 94.01 -21.04 94.01 -17 93 C-15.00019119 83.46274599 -13.28898958 73.92634765 -11.89198112 64.28100967 C-11.5798127 62.12606677 -11.26268083 59.97189956 -10.94447327 57.81784058 C-10.2711992 53.25418377 -9.60405849 48.68964172 -8.9375 44.125 C-8.16005913 38.80482155 -7.37999086 33.48504625 -6.59475899 28.16601181 C-6.28518236 26.06110951 -5.97961682 23.95565207 -5.67430115 21.85012817 C-2.87968652 2.87968652 -2.87968652 2.87968652 0 0 Z " fill="#08086B" transform="translate(898,840)"/>
<path d="M0 0 C1.72496977 1.64553037 3.17266154 3.28751642 4.59375 5.19921875 C5.0475 5.8025 5.50125 6.40578125 5.96875 7.02734375 C7.33462624 9.02737681 8.47707715 11.05058617 9.59375 13.19921875 C9.98820312 13.91851563 10.38265625 14.6378125 10.7890625 15.37890625 C16.21156923 27.24774966 15.39368801 44.32944736 10.921875 56.375 C4.44235639 70.15350574 -4.81360235 79.79979291 -19.2265625 85.26953125 C-21.61165899 86.00285942 -23.97252632 86.65089279 -26.40625 87.19921875 C-27.1796875 87.38226562 -27.953125 87.5653125 -28.75 87.75390625 C-44.10769554 90.32857874 -58.55345875 86.82037848 -71.40625 78.19921875 C-81.2014701 70.35803233 -87.95310307 60.26526122 -90.15625 47.7578125 C-91.74596928 31.48802929 -89.26814419 17.43035971 -78.88671875 4.2734375 C-59.00566144 -17.5425159 -22.51184478 -16.84733838 0 0 Z M-63.40625 5.19921875 C-68.57399389 13.5059901 -70.77160882 21.67213707 -70.65625 31.38671875 C-70.64803223 32.22533447 -70.63981445 33.0639502 -70.63134766 33.92797852 C-70.38168144 47.87572939 -67.94952395 59.79264387 -57.96875 70.19921875 C-49.6230707 77.95479952 -42.43864787 79.70861744 -31.17578125 79.46875 C-24.0300093 78.95780879 -19.49925472 76.68573531 -14.59375 71.51171875 C-4.93514526 59.50008966 -5.44889647 44.88298722 -6.40625 30.19921875 C-7.9142468 19.2411087 -13.5663353 8.59365905 -22.22265625 1.671875 C-34.70170155 -6.74422532 -53.20205704 -6.96438283 -63.40625 5.19921875 Z " fill="#06076A" transform="translate(329.40625,852.80078125)"/>
<path d="M0 0 C6.75390625 0.79980469 6.75390625 0.79980469 8.96875 2.6015625 C9.4740625 3.26929688 9.979375 3.93703125 10.5 4.625 C12.72369343 7.41454399 14.93662283 10.01672836 17.5 12.5 C19.72141821 14.67572855 21.78755472 16.89695319 23.78125 19.28125 C29.80469433 26.20980449 36.47953261 32.54511203 43 39 C58.58745264 54.43068229 58.58745264 54.43068229 63.37890625 60.14428711 C65.07598157 62.0869783 66.85507006 63.90360714 68.6875 65.71875 C69.62142578 66.6459082 69.62142578 66.6459082 70.57421875 67.59179688 C71.04472656 68.05650391 71.51523437 68.52121094 72 69 C71.89256172 61.34180778 71.77994121 53.68370677 71.66066074 46.02569008 C71.60544085 42.46995791 71.55202237 38.91421749 71.50268555 35.35839844 C71.44591832 31.27269398 71.38137946 27.18714475 71.31640625 23.1015625 C71.29969376 21.82133209 71.28298126 20.54110168 71.26576233 19.22207642 C71.2358445 17.45046646 71.2358445 17.45046646 71.20532227 15.64306641 C71.18977798 14.59937897 71.1742337 13.55569153 71.15821838 12.4803772 C71.16152796 9.99858218 71.16152796 9.99858218 70 8 C67.42048126 7.30906104 67.42048126 7.30906104 64.4375 6.875 C63.42558594 6.70742188 62.41367187 6.53984375 61.37109375 6.3671875 C60.58863281 6.24601563 59.80617188 6.12484375 59 6 C59.875 2.125 59.875 2.125 61 1 C63.17131722 0.8997999 65.3459042 0.86918703 67.51953125 0.8671875 C68.17451096 0.86623077 68.82949066 0.86527405 69.50431824 0.86428833 C70.8939117 0.86360645 72.28350832 0.86546127 73.6730957 0.86962891 C75.79320524 0.87495156 77.91310044 0.86969758 80.03320312 0.86328125 C81.38281297 0.86394253 82.73242267 0.86522473 84.08203125 0.8671875 C85.92631714 0.86887939 85.92631714 0.86887939 87.80786133 0.87060547 C90.41607257 0.97633028 92.52726896 1.22440736 95 2 C94.4375 3.875 94.4375 3.875 93 6 C90.67451993 6.69356423 88.34119555 7.36149212 86 8 C84.73945028 11.78164915 84.78537978 15.36716167 84.71875 19.31103516 C84.70070313 20.15842758 84.68265625 21.00582001 84.6640625 21.87889099 C84.6254636 23.71877535 84.58901141 25.5587057 84.55444336 27.3986702 C84.49967871 30.30611997 84.43910153 33.21339633 84.37695312 36.12069702 C84.22384344 43.33910221 84.08066699 50.55769807 83.9375 57.77630615 C83.81614438 63.87833717 83.69090848 69.98026346 83.56030273 76.08210373 C83.50046212 78.95438128 83.44644152 81.82673222 83.39257812 84.6991272 C83.35575868 86.44867556 83.31866452 88.19821817 83.28125 89.94775391 C83.26094727 91.15556267 83.26094727 91.15556267 83.24023438 92.38777161 C83.11385328 97.88614672 83.11385328 97.88614672 82 99 C79.7421875 99.3515625 79.7421875 99.3515625 77 99 C74.5703125 97.0234375 74.5703125 97.0234375 72.125 94.375 C69.28392686 91.37819396 66.51813761 88.48003282 63.3125 85.875 C60.87826505 83.85850775 58.82773853 81.72698844 56.78515625 79.31640625 C53.08090444 75.03563426 49.15065946 71.03943527 45.125 67.0625 C44.39684082 66.33812744 43.66868164 65.61375488 42.91845703 64.86743164 C40.61474354 62.57581697 38.30780526 60.28749348 36 58 C32.95535221 54.98214919 29.91417033 51.96086584 26.875 48.9375 C26.18937988 48.26017822 25.50375977 47.58285645 24.79736328 46.88500977 C20.78816348 42.89594929 17.00347369 38.79112325 13.35205078 34.47094727 C12.90587402 33.98553467 12.45969727 33.50012207 12 33 C11.67 33 11.34 33 11 33 C11.09337214 39.29500333 11.20079816 45.58966155 11.31738281 51.88427734 C11.35534769 54.01964059 11.3902531 56.15506075 11.421875 58.29052734 C11.59745567 70.00505047 11.84140111 81.45111544 14 93 C15.093125 92.95875 16.18625 92.9175 17.3125 92.875 C21 93 21 93 24 95 C23.505 96.485 23.505 96.485 23 98 C11.78 98 0.56 98 -11 98 C-11.33 96.68 -11.66 95.36 -12 94 C-7.545 93.505 -7.545 93.505 -3 93 C-2.30744649 89.17763735 -1.84782971 85.48287941 -1.71875 81.6015625 C-1.68193115 80.50851807 -1.6451123 79.41547363 -1.60717773 78.28930664 C-1.57180908 77.08008545 -1.53644043 75.87086426 -1.5 74.625 C-1.46011963 73.34036865 -1.42023926 72.0557373 -1.37915039 70.73217773 C-0.68002659 47.1614985 -0.38408502 23.5774166 0 0 Z " fill="#09096C" transform="translate(610,841)"/>
<path d="M0 0 C9.45954399 7.97401994 14.81618897 17.09780871 16.125 29.625 C17.2734808 46.48558933 14.63460745 60.66144431 3.234375 73.8046875 C-7.33419329 84.17156556 -21.56373766 89.46439039 -36.125 89.9375 C-51.92782427 89.6396847 -64.09002236 85.04670394 -75.4609375 74.15625 C-85.67778791 63.44343597 -88.31364711 48.50002836 -88.1484375 34.09375 C-87.16069048 21.56347356 -81.10639978 9.84070907 -71.9609375 1.25390625 C-51.98240799 -14.34730499 -20.62947224 -15.42876495 0 0 Z M-59.8125 5.4375 C-67.89731264 15.79439113 -70.42773512 30.76366566 -68.875 43.625 C-65.92182846 57.9801048 -59.66412708 68.74726021 -47.81640625 77.51171875 C-40.19389386 81.88277716 -30.55781696 81.90952801 -22.14453125 80.0078125 C-15.4013239 77.3848093 -10.79948552 72.46812154 -7.58984375 66.05859375 C-1.40366897 51.18073253 -2.00415645 31.86455559 -7.94140625 16.9453125 C-12.33223624 8.33754678 -19.09573349 2.51063833 -27.875 -1.375 C-30.71168535 -2.30654626 -30.71168535 -2.30654626 -33.875 -2.375 C-35.20337891 -2.4678125 -35.20337891 -2.4678125 -36.55859375 -2.5625 C-45.80659189 -2.93948846 -53.3309996 -1.5457065 -59.8125 5.4375 Z " fill="#06076A" transform="translate(571.875,851.375)"/>
<path d="M0 0 C5.21442276 -0.0494186 10.42870934 -0.08572831 15.64331055 -0.10986328 C17.41742324 -0.11992411 19.19151935 -0.13357422 20.96557617 -0.15087891 C23.51485284 -0.17512378 26.06391037 -0.18648218 28.61328125 -0.1953125 C29.80405022 -0.21079636 29.80405022 -0.21079636 31.01887512 -0.22659302 C34.88223043 -0.2273811 36.70839446 -0.19440369 40 2 C40 2.99 40 3.98 40 5 C35.545 5.495 35.545 5.495 31 6 C30.90664158 13.72879671 30.83590561 21.45745725 30.79275131 29.18667889 C30.77202201 32.77708271 30.74397958 36.36709615 30.69824219 39.95727539 C30.6542519 43.43271947 30.63075324 46.90779206 30.62049103 50.38349342 C30.60968217 52.3313639 30.57854473 54.27908834 30.54681396 56.22673035 C30.5442153 66.72278129 31.75381522 76.93522811 39 85 C45.08581399 89.36930235 51.70938787 89.6537175 59 89 C61.83193784 88.22288575 64.29504992 87.18638161 67 86 C67.99 85.67 68.98 85.34 70 85 C71.10168984 83.30230766 71.10168984 83.30230766 72 81 C72.515625 79.88625 73.03125 78.7725 73.5625 77.625 C75.65366868 72.35161812 76.12471807 67.48361374 76.14526367 61.84277344 C76.15164352 60.64843689 76.15802338 59.45410034 76.16459656 58.22357178 C76.16570938 56.94838684 76.1668222 55.6732019 76.16796875 54.359375 C76.17129715 53.04084534 76.17462555 51.72231567 76.17805481 50.36383057 C76.18402062 47.58336567 76.18589706 44.80293177 76.18530273 42.02246094 C76.18520061 38.45571789 76.19891599 34.88917165 76.21607494 31.32247543 C76.22983476 27.91810526 76.22928219 24.51377267 76.23046875 21.109375 C76.24124702 19.18445221 76.24124702 19.18445221 76.25224304 17.22064209 C76.2476281 15.44805023 76.2476281 15.44805023 76.24291992 13.63964844 C76.24434494 12.59629333 76.24576996 11.55293823 76.24723816 10.47796631 C76.24667928 7.82440563 76.24667928 7.82440563 74 6 C71.79749008 5.53993654 71.79749008 5.53993654 69.375 5.375 C68.55773437 5.30023437 67.74046875 5.22546875 66.8984375 5.1484375 C66.27195312 5.09945312 65.64546875 5.05046875 65 5 C65.33 3.35 65.66 1.7 66 0 C70.50235595 -0.02472359 75.00467236 -0.04287119 79.50708008 -0.05493164 C81.0386626 -0.0599596 82.57024033 -0.06678284 84.10180664 -0.07543945 C86.30356022 -0.08757229 88.50525033 -0.09324367 90.70703125 -0.09765625 C91.39150833 -0.10281754 92.07598541 -0.10797882 92.78120422 -0.11329651 C95.80906242 -0.1136536 98.10150142 0.03383381 101 1 C101 1.99 101 2.98 101 4 C100.43410156 4.12117187 99.86820313 4.24234375 99.28515625 4.3671875 C98.55167969 4.53476562 97.81820312 4.70234375 97.0625 4.875 C96.33160156 5.03742187 95.60070312 5.19984375 94.84765625 5.3671875 C92.79299706 5.82961523 92.79299706 5.82961523 92 8 C91.02552666 14.90923255 90.83810014 21.71385689 90.7890625 28.68359375 C90.76100357 30.93295011 90.73233918 33.18229898 90.703125 35.43164062 C90.66188926 38.9379055 90.624951 42.44402901 90.59863281 45.95043945 C90.57088087 49.36177472 90.5250286 52.77249798 90.4765625 56.18359375 C90.47330963 57.21931015 90.47005676 58.25502655 90.46670532 59.3221283 C90.27518341 70.78183313 87.32665108 80.33176917 79.3359375 88.75390625 C69.87322025 97.37405279 58.831477 99.50723159 46.30078125 99.2421875 C36.50240654 98.5232535 28.20938691 95.88868465 21 89 C9.87259748 74.20193981 10.72070244 56.93323585 10.9375 39.3125 C11.62117005 23.56377628 11.62117005 23.56377628 10 8 C7.60236815 5.60236815 6.66726502 5.65719414 3.375 5.375 C2.55773437 5.30023437 1.74046875 5.22546875 0.8984375 5.1484375 C0.27195312 5.09945312 -0.35453125 5.05046875 -1 5 C-0.67 3.35 -0.34 1.7 0 0 Z " fill="#09096C" transform="translate(770,842)"/>
<path d="M0 0 C0.7850441 -0.00960754 1.5700882 -0.01921509 2.37892151 -0.02911377 C3.64142982 -0.03548859 3.64142982 -0.03548859 4.92944336 -0.04199219 C6.24687782 -0.0505423 6.24687782 -0.0505423 7.59092712 -0.05926514 C9.45106813 -0.06870387 11.31122577 -0.07524464 13.17138672 -0.07910156 C15.98492653 -0.08874936 18.79771728 -0.1197591 21.61108398 -0.15136719 C33.8480543 -0.22403781 46.11453838 -0.18580828 55.95678711 8.16113281 C61.27652377 14.18397681 62.26191049 19.21089252 62.16772461 27.02832031 C61.63637356 34.91986742 58.58036742 41.57284694 52.95678711 47.16113281 C44.75391135 53.26591329 37.09301485 55.57485639 26.95678711 55.16113281 C26.46178711 53.18113281 26.46178711 53.18113281 25.95678711 51.16113281 C26.80241211 50.89300781 27.64803711 50.62488281 28.51928711 50.34863281 C29.65366211 49.95675781 30.78803711 49.56488281 31.95678711 49.16113281 C33.15303711 48.76925781 34.34928711 48.37738281 35.58178711 47.97363281 C40.2968326 45.44147875 41.94604612 42.42919534 43.54272461 37.26660156 C44.93318766 30.1962281 44.76889235 22.42779502 40.95678711 16.16113281 C37.29850698 11.35830305 33.61845782 9.85766411 27.70288086 8.99707031 C26.62578857 8.83513184 25.54869629 8.67319336 24.43896484 8.50634766 C23.61984619 8.39242676 22.80072754 8.27850586 21.95678711 8.16113281 C21.93101486 15.59113812 21.91374734 23.02113154 21.90185547 30.45117188 C21.89688762 32.96842886 21.89011106 35.48568306 21.88134766 38.00292969 C21.83892495 50.52012324 21.83973583 63.0212942 22.39819336 75.52832031 C22.45667702 76.84728806 22.45667702 76.84728806 22.51634216 78.19290161 C22.75552619 82.90563359 23.20898788 87.50161741 23.95678711 92.16113281 C27.91678711 92.49113281 31.87678711 92.82113281 35.95678711 93.16113281 C35.29678711 94.48113281 34.63678711 95.80113281 33.95678711 97.16113281 C20.75678711 97.16113281 7.55678711 97.16113281 -6.04321289 97.16113281 C-6.37321289 95.84113281 -6.70321289 94.52113281 -7.04321289 93.16113281 C-2.58821289 92.66613281 -2.58821289 92.66613281 1.95678711 92.16113281 C2.86128786 87.53306228 3.10507354 83.05154362 3.10205078 78.3515625 C3.10540939 77.59312042 3.10876801 76.83467834 3.11222839 76.05325317 C3.12167645 73.56315445 3.12367777 71.0731233 3.12475586 68.58300781 C3.1279705 66.84759494 3.13133473 65.11218233 3.13484192 63.37677002 C3.14081617 59.74889496 3.14268335 56.12104369 3.14208984 52.49316406 C3.14198781 47.83682503 3.1556902 43.18063706 3.17286205 38.52433395 C3.18395369 34.94536634 3.18601 31.36643574 3.18548012 27.7874527 C3.18666259 26.0697909 3.19109926 24.35212822 3.19881248 22.63448334 C3.20856403 20.24058728 3.20575475 17.84702597 3.19970703 15.453125 C3.20813629 14.38401382 3.20813629 14.38401382 3.21673584 13.29330444 C3.30131356 9.28042428 3.30131356 9.28042428 0.95678711 6.16113281 C-1.69858661 5.59593278 -4.33466002 5.42325083 -7.04321289 5.16113281 C-7.37321289 3.84113281 -7.70321289 2.52113281 -8.04321289 1.16113281 C-5.30190338 0.3924908 -2.84408775 0.02829585 0 0 Z " fill="#08086B" transform="translate(73.043212890625,841.8388671875)"/>
<path d="M0 0 C0.79481277 0.00141495 1.58962555 0.0028299 2.40852356 0.00428772 C4.9455645 0.00988247 7.482517 0.02243397 10.01953125 0.03515625 C11.7402331 0.04017193 13.46093633 0.04473472 15.18164062 0.04882812 C19.39847155 0.05985018 23.61523641 0.07711119 27.83203125 0.09765625 C27.83203125 1.74765625 27.83203125 3.39765625 27.83203125 5.09765625 C26.71828125 5.22140625 25.60453125 5.34515625 24.45703125 5.47265625 C20.80099448 5.74423755 20.80099448 5.74423755 18.83203125 8.09765625 C18.63905063 10.53557445 18.56962974 12.85935343 18.58911133 15.29785156 C18.58721298 16.03953079 18.58531464 16.78121002 18.58335876 17.54536438 C18.57964418 20.00560976 18.59036873 22.46556193 18.6015625 24.92578125 C18.60275455 26.63490769 18.60320741 28.34403479 18.60295105 30.05316162 C18.60451735 33.64111413 18.61281503 37.22896708 18.6262207 40.81689453 C18.64315944 45.40790127 18.64703651 49.99879798 18.64627552 54.58983231 C18.64654809 58.12265059 18.65204402 61.65544499 18.65927696 65.18825531 C18.66245231 66.88027516 18.66442838 68.57229771 18.66517067 70.26432037 C18.66734919 72.63622086 18.67612736 75.00800707 18.68676758 77.37988281 C18.68631439 78.07517593 18.68586121 78.77046906 18.68539429 79.48683167 C18.71189266 83.54546274 19.15447775 87.03233528 19.83203125 91.09765625 C23.79203125 91.75765625 27.75203125 92.41765625 31.83203125 93.09765625 C31.17203125 94.41765625 30.51203125 95.73765625 29.83203125 97.09765625 C16.96203125 97.09765625 4.09203125 97.09765625 -9.16796875 97.09765625 C-9.16796875 95.77765625 -9.16796875 94.45765625 -9.16796875 93.09765625 C-8.03359375 92.80890625 -6.89921875 92.52015625 -5.73046875 92.22265625 C-4.55484375 91.85140625 -3.37921875 91.48015625 -2.16796875 91.09765625 C-0.63629508 88.03430892 -1.02066611 84.82804405 -1.02270508 81.46679688 C-1.01934647 80.67967819 -1.01598785 79.89255951 -1.01252747 79.08158875 C-1.00300624 76.47234532 -1.00107389 73.86316597 -1 71.25390625 C-0.99678867 69.44551568 -0.99342469 67.63712537 -0.98991394 65.82873535 C-0.98392004 62.03571978 -0.98207435 58.24272701 -0.98266602 54.44970703 C-0.98276775 49.58026482 -0.96910481 44.71096806 -0.95189381 39.84156036 C-0.94079771 36.10645877 -0.93874605 32.37139264 -0.93927574 28.63627625 C-0.93809242 26.84046425 -0.93365106 25.04465143 -0.92594337 23.24885559 C-0.91618983 20.74197063 -0.9190028 18.23540529 -0.92504883 15.72851562 C-0.91942932 14.98143845 -0.91380981 14.23436127 -0.90802002 13.46464539 C-0.80132097 9.32663827 -0.80132097 9.32663827 -3.16796875 6.09765625 C-4.34359375 5.78828125 -5.51921875 5.47890625 -6.73046875 5.16015625 C-7.86484375 4.80953125 -8.99921875 4.45890625 -10.16796875 4.09765625 C-10.49796875 3.10765625 -10.82796875 2.11765625 -11.16796875 1.09765625 C-7.40948701 -0.155171 -3.91305956 -0.0261621 0 0 Z " fill="#06066A" transform="translate(730.16796875,841.90234375)"/>
<path d="M0 0 C5.54780731 3.74154447 8.58927892 7.40740408 10.6875 13.8125 C11.44446773 19.7601036 9.94047204 23.92770919 6.6875 28.8125 C2.16157288 33.46414731 -3.8560474 35.8821471 -10.3125 36.25 C-15.64488827 35.99857108 -20.26046676 34.04738769 -23.890625 30.09375 C-27.9627991 24.57057134 -29.11924737 19.63008339 -28.3125 12.8125 C-26.15623335 6.60245206 -21.63366941 2.74984882 -16.0625 -0.5 C-10.58566864 -1.86920784 -5.32565788 -1.90919811 0 0 Z " fill="#101171" transform="translate(145.3125,973.1875)"/>
<path d="M0 0 C3.66651247 -0.08796382 7.33274918 -0.14071247 11 -0.1875 C12.54494141 -0.22520508 12.54494141 -0.22520508 14.12109375 -0.26367188 C21.84108558 -0.33742976 27.78041581 0.27035253 33.875 5.4375 C37.69047411 10.0385129 38.50487761 13.48699849 38.3828125 19.3984375 C37.5771599 24.87358682 34.44038601 28.55961399 30.625 32.375 C21.75303105 37.86717126 10.91562243 36.52548037 1 35 C1.33 34.01 1.66 33.02 2 32 C2.66 32 3.32 32 4 32 C3.93121386 28.04840742 3.84329572 24.09775377 3.73754883 20.14697266 C3.68790041 18.14117664 3.65345836 16.13502313 3.61914062 14.12890625 C3.58369141 12.87207031 3.54824219 11.61523438 3.51171875 10.3203125 C3.48553467 9.15773926 3.45935059 7.99516602 3.43237305 6.79736328 C3.28968994 5.8742334 3.14700684 4.95110352 3 4 C2.01 3.34 1.02 2.68 0 2 C0 1.34 0 0.68 0 0 Z " fill="#0F1070" transform="translate(949,973)"/>
<path d="M0 0 C1.42172308 -0.03231189 2.84366187 -0.05520778 4.265625 -0.07421875 C5.05743164 -0.08799561 5.84923828 -0.10177246 6.66503906 -0.1159668 C11.57247429 0.127763 15.0289034 2.20546642 18.75 5.25 C24.95433204 12.8330725 24.90339615 20.43821155 24 30 C22.85240258 34.75896333 21.31126787 37.89046564 17.5625 41.0625 C12.09612048 42.50102093 6.62065634 42.4181318 1 42 C0 41 0 41 -0.11352539 37.12280273 C-0.11336621 35.39305833 -0.10766849 33.66330919 -0.09765625 31.93359375 C-0.0962413 31.02497086 -0.09482635 30.11634796 -0.09336853 29.18019104 C-0.08775193 26.26592779 -0.07519665 23.35174019 -0.0625 20.4375 C-0.05748714 18.46679798 -0.05292386 16.49609476 -0.04882812 14.52539062 C-0.03777711 9.68356441 -0.02050138 4.84179505 0 0 Z " fill="#DEE8E9" transform="translate(176,850)"/>
<path d="M0 0 C1.83886719 0.22485352 1.83886719 0.22485352 4 1 C5.37207031 2.91772461 5.37207031 2.91772461 6.578125 5.40234375 C7.01640625 6.29244141 7.4546875 7.18253906 7.90625 8.09960938 C8.3496875 9.03611328 8.793125 9.97261719 9.25 10.9375 C9.70890625 11.87013672 10.1678125 12.80277344 10.640625 13.76367188 C14 20.6773856 14 20.6773856 14 23 C16.58958495 20.69706093 17.87269589 18.49256153 19.26171875 15.33203125 C19.65810547 14.43935547 20.05449219 13.54667969 20.46289062 12.62695312 C20.86701172 11.69818359 21.27113281 10.76941406 21.6875 9.8125 C22.10322266 8.87212891 22.51894531 7.93175781 22.94726562 6.96289062 C23.9710844 4.64458835 24.98838143 2.32364567 26 0 C27.32 0 28.64 0 30 0 C30.71519847 4.21700802 31.42719336 8.43454062 32.13623047 12.65258789 C32.37786389 14.08730662 32.62037058 15.52187856 32.86376953 16.95629883 C33.21356468 19.01866249 33.56021128 21.08153442 33.90625 23.14453125 C34.11572266 24.38565674 34.32519531 25.62678223 34.54101562 26.90551758 C35 30 35 30 35 33 C36.32 33 37.64 33 39 33 C39 33.66 39 34.32 39 35 C32.565 35.495 32.565 35.495 26 36 C25.01 26.595 25.01 26.595 24 17 C21.74075231 22.17528375 21.74075231 22.17528375 19.48266602 27.35107422 C19.20092529 27.9957666 18.91918457 28.64045898 18.62890625 29.3046875 C18.1968689 30.2944458 18.1968689 30.2944458 17.75610352 31.30419922 C17.20067688 32.54991875 16.60996982 33.78006037 16 35 C13.73828125 34.91015625 13.73828125 34.91015625 11 34 C9.4762432 31.78067917 8.33193482 29.83500253 7.1875 27.4375 C6.87619141 26.82197266 6.56488281 26.20644531 6.24414062 25.57226562 C5.48017752 24.05609269 4.73792513 22.52901489 4 21 C3.01 24.96 2.02 28.92 1 33 C1.99 33.33 2.98 33.66 4 34 C4 34.66 4 35.32 4 36 C0.37 36 -3.26 36 -7 36 C-6.71253906 35.12988281 -6.42507813 34.25976562 -6.12890625 33.36328125 C-4.43349678 27.43158874 -3.78459706 21.28466632 -2.9375 15.1875 C-2.59555703 12.74305265 -2.25065936 10.29901619 -1.90234375 7.85546875 C-1.67792603 6.24128052 -1.67792603 6.24128052 -1.44897461 4.59448242 C-1 2 -1 2 0 0 Z " fill="#121372" transform="translate(721,972)"/>
<path d="M0 0 C1.01964844 -0.01417969 2.03929687 -0.02835938 3.08984375 -0.04296875 C6.13409667 0.19305086 8.30987643 0.90497005 11.0625 2.1875 C11.0625 5.4875 11.0625 8.7875 11.0625 12.1875 C8.0625 11.1875 8.0625 11.1875 6.125 8.625 C1.99554971 5.33829467 -1.05481735 5.58753345 -6.1953125 5.5234375 C-9.08737367 5.94134234 -9.08737367 5.94134234 -10.7734375 8.32421875 C-12.88139878 13.50923761 -12.67534311 18.69849895 -11.9375 24.1875 C-10.31635434 27.79004591 -7.93851295 29.62282603 -4.5 31.5625 C-1.56723599 32.2778083 1.05470282 32.32739754 4.0625 32.1875 C4.0625 28.5575 4.0625 24.9275 4.0625 21.1875 C2.7425 21.1875 1.4225 21.1875 0.0625 21.1875 C0.0625 20.5275 0.0625 19.8675 0.0625 19.1875 C4.82557437 18.23488513 9.2291528 18.10416643 14.0625 18.1875 C14.0625 19.1775 14.0625 20.1675 14.0625 21.1875 C13.4025 21.1875 12.7425 21.1875 12.0625 21.1875 C11.7325 25.8075 11.4025 30.4275 11.0625 35.1875 C3.32433843 38.28276463 -4.11806179 38.14982587 -11.9296875 35.16796875 C-15.9182272 33.22025773 -19.07700182 30.9498949 -21.07421875 26.859375 C-22.88208186 21.26399778 -23.09390623 14.67232851 -20.4375 9.3125 C-17.53582594 5.0014414 -12.94357969 2.1811937 -8.05859375 0.56640625 C-5.34948601 0.08245883 -2.7517008 0.01734994 0 0 Z " fill="#101171" transform="translate(207.9375,971.8125)"/>
<path d="M0 0 C0 3.3 0 6.6 0 10 C-0.99 10 -1.98 10 -3 10 C-3.66 8.02 -4.32 6.04 -5 4 C-7.08218362 3.89167831 -9.16599129 3.81426459 -11.25 3.75 C-12.41015625 3.70359375 -13.5703125 3.6571875 -14.765625 3.609375 C-18.0646547 3.72707638 -18.0646547 3.72707638 -20.359375 5.828125 C-23.3944463 9.84598129 -23.63119765 14.13199617 -23 19 C-21.75011921 22.69783385 -20.49730471 26.03115578 -17.140625 28.203125 C-13.46357414 29.57195415 -9.85734605 29.61092405 -6 29 C-3.55901182 27.14579161 -3.55901182 27.14579161 -2 25 C-1.34 25 -0.68 25 0 25 C0.25 30.625 0.25 30.625 -2 34 C-8.34377263 36.11459088 -16.36151571 36.20363234 -22.5 33.375 C-27.63387837 30.30983633 -31.43217391 25.84371543 -33 20 C-33.50716858 14.52257932 -32.70353029 10.79658599 -30 6 C-22.2570416 -2.52507541 -10.57722121 -4.89075183 0 0 Z " fill="#111271" transform="translate(490,974)"/>
<path d="M0 0 C4.60695837 3.2346729 5.96738625 6.55530932 7 12 C7.48415307 17.42251435 6.8514261 21.30894416 4 26 C-0.11325937 28.05662968 -2.21754375 28.18566758 -6.6875 27.125 C-11.01420732 24.34937643 -12.66444404 21.93370084 -14 17 C-14.77879524 11.32801957 -15.04323812 6.74994781 -12.0625 1.75 C-7.92855891 -0.61225205 -4.6514814 -1.03835247 0 0 Z " fill="#DDE7E9" transform="translate(140,977)"/>
<path d="M0 0 C7.59 0 15.18 0 23 0 C23 2.64 23 5.28 23 8 C22.484375 7.71125 21.96875 7.4225 21.4375 7.125 C18.37643275 5.71219973 15.25055082 4.8751483 12 4 C12 7.63 12 11.26 12 15 C15.3 14.67 18.6 14.34 22 14 C22 16.64 22 19.28 22 22 C21.01 21.67 20.02 21.34 19 21 C19 20.34 19 19.68 19 19 C16.69 19 14.38 19 12 19 C12 22.96 12 26.92 12 31 C13.27875 30.896875 14.5575 30.79375 15.875 30.6875 C16.59429688 30.62949219 17.31359375 30.57148437 18.0546875 30.51171875 C20.39519216 30.12606964 20.39519216 30.12606964 22 27 C22.99 27 23.98 27 25 27 C24.25 33.75 24.25 33.75 22 36 C19.84521484 36.13525391 19.84521484 36.13525391 17.2109375 35.9765625 C16.26992188 35.925 15.32890625 35.8734375 14.359375 35.8203125 C13.37453125 35.75585938 12.3896875 35.69140625 11.375 35.625 C9.88613281 35.53992188 9.88613281 35.53992188 8.3671875 35.453125 C5.91075233 35.31140759 3.45530265 35.15997723 1 35 C1.33 34.01 1.66 33.02 2 32 C2.66 32 3.32 32 4 32 C4 22.43 4 12.86 4 3 C2.68 2.67 1.36 2.34 0 2 C0 1.34 0 0.68 0 0 Z " fill="#101171" transform="translate(894,973)"/>
<path d="M0 0 C0 2.97 0 5.94 0 9 C-4 7 -4 7 -5 5 C-6.98 5 -8.96 5 -11 5 C-10.70613827 8.45899743 -10.17017492 9.81948459 -7.75 12.38671875 C-6.8425 13.14597656 -5.935 13.90523437 -5 14.6875 C-0.07503075 18.8499385 -0.07503075 18.8499385 1 21 C1.37593152 25.98109259 1.1765161 29.05673864 -2 33 C-5.91279822 36.43851965 -9.71829741 36.35305438 -14.6953125 36.3984375 C-17 36 -17 36 -18.79296875 34.73828125 C-20.93085813 31.6594438 -20.17941307 28.64806583 -20 25 C-18.68 25 -17.36 25 -16 25 C-15.34 26.65 -14.68 28.3 -14 30 C-11.69 30 -9.38 30 -7 30 C-7.0825 28.72125 -7.165 27.4425 -7.25 26.125 C-7.29640625 25.40570312 -7.3428125 24.68640625 -7.390625 23.9453125 C-7.80785453 21.83600071 -7.80785453 21.83600071 -9.8125 20.9765625 C-10.534375 20.65429688 -11.25625 20.33203125 -12 20 C-15.59760674 16.75337928 -18.60495395 13.64602522 -19.75 8.875 C-18.68962539 4.81023068 -16.97531649 2.97531649 -14 0 C-9.14125899 -1.61958034 -4.92628866 -1.23157217 0 0 Z " fill="#101171" transform="translate(320,973)"/>
<path d="M0 0 C1.76537109 -0.00386719 1.76537109 -0.00386719 3.56640625 -0.0078125 C6.4375 0.125 6.4375 0.125 7.4375 1.125 C7.47842937 3.45797433 7.47991723 5.79205225 7.4375 8.125 C6.1175 8.125 4.7975 8.125 3.4375 8.125 C2.7775 7.135 2.1175 6.145 1.4375 5.125 C-1.64615871 4.8747843 -1.64615871 4.8747843 -4.5625 5.125 C-4.26863827 8.58399743 -3.73267492 9.94448459 -1.3125 12.51171875 C-0.405 13.27097656 0.5025 14.03023437 1.4375 14.8125 C7.301891 19.76891001 7.301891 19.76891001 7.8125 24.875 C7.78228584 28.19251516 7.21034903 29.97616622 5.125 32.5625 C1.28747408 36.22153634 -1.43111878 36.28391029 -6.62109375 36.2265625 C-8.70560572 36.11751358 -10.58049104 35.78566965 -12.5625 35.125 C-12.6875 28.5 -12.6875 28.5 -11.5625 25.125 C-10.5725 25.455 -9.5825 25.785 -8.5625 26.125 C-8.2325 28.105 -7.9025 30.085 -7.5625 32.125 C-5.2525 31.465 -2.9425 30.805 -0.5625 30.125 C-0.36369245 27.41439544 -0.36369245 27.41439544 -1.5625 24.125 C-3.73094461 21.91420296 -6.01542981 19.98766606 -8.43359375 18.0546875 C-11.47064135 15.30184069 -12.42241787 13.22230998 -12.9375 9.1875 C-12.47227662 5.3881757 -11.19858379 3.83861566 -8.5625 1.125 C-5.69616205 -0.30816898 -3.19014499 -0.00700361 0 0 Z " fill="#131472" transform="translate(534.5625,972.875)"/>
<path d="M0 0 C1.44068839 0.13314597 2.88067064 0.27394724 4.3203125 0.41796875 C5.12227051 0.4955542 5.92422852 0.57313965 6.75048828 0.65307617 C10.59071057 1.24532231 12.95985191 2.91153207 15.59765625 5.671875 C18.5162638 10.51725132 17.77647925 16.57106247 17 22 C15.3482327 25.08571913 14.3263139 25.39624151 11 27 C8.15672716 27.78176617 6.01418725 27.95058709 3 28 C2.01 27.34 1.02 26.68 0 26 C-0.34057617 23.38623047 -0.34057617 23.38623047 -0.29296875 20.1171875 C-0.2784668 18.36728516 -0.2784668 18.36728516 -0.26367188 16.58203125 C-0.23853516 15.35871094 -0.21339844 14.13539063 -0.1875 12.875 C-0.17396484 11.64394531 -0.16042969 10.41289063 -0.14648438 9.14453125 C-0.11103543 6.09592157 -0.06162079 3.048175 0 0 Z " fill="#DEE8E9" transform="translate(961,977)"/>
<path d="M0 0 C10.23 0.33 20.46 0.66 31 1 C31 3.31 31 5.62 31 8 C25 6.5 25 6.5 19 5 C19.33 14.24 19.66 23.48 20 33 C21.32 33 22.64 33 24 33 C24 33.66 24 34.32 24 35 C19.71 35 15.42 35 11 35 C11.33 25.1 11.66 15.2 12 5 C3.64676167 6.47450615 3.64676167 6.47450615 -1 9 C-0.67 6.03 -0.34 3.06 0 0 Z " fill="#121372" transform="translate(351,972)"/>
<path d="M0 0 C4.95 0 9.9 0 15 0 C15 0.66 15 1.32 15 2 C13.68 2.33 12.36 2.66 11 3 C11.13811922 7.31278385 11.28678109 11.62513953 11.4375 15.9375 C11.47681641 17.16919922 11.51613281 18.40089844 11.55664062 19.66992188 C11.61948242 21.4246582 11.61948242 21.4246582 11.68359375 23.21484375 C11.72025146 24.29886475 11.75690918 25.38288574 11.79467773 26.49975586 C11.72364265 28.939263 11.72364265 28.939263 13 30 C15.32817964 30.36760731 17.6618385 30.70241581 20 31 C20.33 29.68 20.66 28.36 21 27 C21.99 27 22.98 27 24 27 C24.25 32.625 24.25 32.625 22 36 C20.0390625 36.328125 20.0390625 36.328125 17.625 36.25 C16.74328125 36.22421875 15.8615625 36.1984375 14.953125 36.171875 C9.95909316 35.88121706 4.97931823 35.47910966 0 35 C0.33 34.01 0.66 33.02 1 32 C1.66 32 2.32 32 3 32 C3 22.43 3 12.86 3 3 C2.01 2.67 1.02 2.34 0 2 C0 1.34 0 0.68 0 0 Z " fill="#0D0E6F" transform="translate(65,973)"/>
<path d="M0 0 C1.25159912 0.04713135 2.50319824 0.0942627 3.79272461 0.14282227 C4.45719101 0.16643326 5.12165741 0.19004425 5.80625916 0.21437073 C7.93607115 0.29116537 10.06553382 0.37512065 12.19506836 0.45922852 C13.63580627 0.51243345 15.07656141 0.56517394 16.51733398 0.61743164 C20.05596149 0.74680138 23.59430977 0.88259592 27.13256836 1.02172852 C27.13256836 3.33172852 27.13256836 5.64172852 27.13256836 8.02172852 C21.13256836 6.52172852 21.13256836 6.52172852 15.13256836 5.02172852 C15.46256836 14.92172852 15.79256836 24.82172852 16.13256836 35.02172852 C13.49256836 35.02172852 10.85256836 35.02172852 8.13256836 35.02172852 C8.13256836 25.12172852 8.13256836 15.22172852 8.13256836 5.02172852 C5.49256836 5.68172852 2.85256836 6.34172852 0.13256836 7.02172852 C-1.18743164 7.35172852 -2.50743164 7.68172852 -3.86743164 8.02172852 C-3.90984887 5.68878076 -3.90836101 3.35470285 -3.86743164 1.02172852 C-2.86743164 0.02172852 -2.86743164 0.02172852 0 0 Z " fill="#0A0B6D" transform="translate(837.867431640625,971.978271484375)"/>
<path d="M0 0 C4.95 0 9.9 0 15 0 C15 0.66 15 1.32 15 2 C13.68 2 12.36 2 11 2 C11.33 10.91 11.66 19.82 12 29 C14.64 29.33 17.28 29.66 20 30 C20.33 28.68 20.66 27.36 21 26 C21.99 26 22.98 26 24 26 C24 28.64 24 31.28 24 34 C16.08 34 8.16 34 0 34 C0.33 33.01 0.66 32.02 1 31 C1.66 31 2.32 31 3 31 C2.90636389 27.06690266 2.80024855 23.13435915 2.68261719 19.2019043 C2.62555908 17.2070464 2.57835558 15.2119146 2.53125 13.21679688 C2.49257813 11.96318359 2.45390625 10.70957031 2.4140625 9.41796875 C2.3826416 8.26063232 2.3512207 7.1032959 2.31884766 5.91088867 C2.20528967 2.80872972 2.20528967 2.80872972 0 0 Z " fill="#0E0F70" transform="translate(615,974)"/>
<path d="M0 0 C4.62 0 9.24 0 14 0 C14 0.66 14 1.32 14 2 C13.01 2.495 13.01 2.495 12 3 C11.67 12.57 11.34 22.14 11 32 C12.32 32 13.64 32 15 32 C15 32.66 15 33.32 15 34 C9.91913204 34.84681133 5.15171623 35.09038099 0 35 C0.32452148 34.46697266 0.64904297 33.93394531 0.98339844 33.38476562 C2.25471823 30.40247655 2.25888884 28.08287851 2.265625 24.84375 C2.26820313 23.65652344 2.27078125 22.46929688 2.2734375 21.24609375 C2.26570312 20.00988281 2.25796875 18.77367187 2.25 17.5 C2.25773438 16.26378906 2.26546875 15.02757812 2.2734375 13.75390625 C2.27085937 12.56667969 2.26828125 11.37945313 2.265625 10.15625 C2.26336914 9.07150391 2.26111328 7.98675781 2.25878906 6.86914062 C2.1477639 3.68710011 2.1477639 3.68710011 0 0 Z " fill="#101071" transform="translate(790,973)"/>
<path d="M0 0 C-0.32145996 0.5165918 -0.64291992 1.03318359 -0.97412109 1.56542969 C-2.32382656 4.76849083 -2.32578483 7.48087011 -2.4140625 10.953125 C-2.43342865 11.61334656 -2.4527948 12.27356812 -2.4727478 12.95379639 C-2.53229349 15.05240153 -2.57882722 17.15106228 -2.625 19.25 C-2.66320294 20.6771066 -2.70225602 22.10419072 -2.7421875 23.53125 C-2.8379733 27.02062691 -2.92209642 30.51017286 -3 34 C-8.445 34.495 -8.445 34.495 -14 35 C-13.67 34.01 -13.34 33.02 -13 32 C-12.34 32 -11.68 32 -11 32 C-11.11837128 28.06710455 -11.24262793 24.13444334 -11.37231445 20.2019043 C-11.43687006 18.20696681 -11.4967783 16.21188071 -11.55664062 14.21679688 C-11.59853516 12.96318359 -11.64042969 11.70957031 -11.68359375 10.41796875 C-11.72025146 9.26063232 -11.75690918 8.1032959 -11.79467773 6.91088867 C-11.88328509 3.9356554 -11.88328509 3.9356554 -13 1 C-8.59085217 -0.10228696 -4.51617599 -0.07654536 0 0 Z " fill="#1A1B76" transform="translate(683,973)"/>
<path d="M0 0 C-0.33 0.99 -0.66 1.98 -1 3 C-1.66 3 -2.32 3 -3 3 C-3 12.57 -3 22.14 -3 32 C-1.68 32 -0.36 32 1 32 C1 32.66 1 33.32 1 34 C-3.29 34 -7.58 34 -12 34 C-12 23.11 -12 12.22 -12 1 C-4.125 -0.125 -4.125 -0.125 0 0 Z " fill="#101070" transform="translate(267,973)"/>
<path d="M0 0 C3.96 0 7.92 0 12 0 C12 0.66 12 1.32 12 2 C11.34 2 10.68 2 10 2 C10 11.57 10 21.14 10 31 C10.99 31 11.98 31 13 31 C13 31.66 13 32.32 13 33 C8.71 33 4.42 33 0 33 C0 32.34 0 31.68 0 31 C0.66 31 1.32 31 2 31 C2 21.43 2 11.86 2 2 C1.34 2 0.68 2 0 2 C0 1.34 0 0.68 0 0 Z " fill="#0E0F70" transform="translate(413,974)"/>
<path d="M0 0 C0 2.97 0 5.94 0 9 C-4 7 -4 7 -5 5 C-8.02934491 4.34227572 -8.02934491 4.34227572 -11 4 C-10.67 3.01 -10.34 2.02 -10 1 C-12.71224618 2.61268692 -15.37352812 4.24901874 -18 6 C-16.98929671 3.3354186 -16.0600516 2.04804128 -13.8125 0.25 C-9.01756335 -1.88108296 -4.98813116 -1.24703279 0 0 Z " fill="#292B7F" transform="translate(320,973)"/>
<path d="M0 0 C4.95 0 9.9 0 15 0 C15 0.66 15 1.32 15 2 C11.7 2 8.4 2 5 2 C4.67 11.9 4.34 21.8 4 32 C3.67 32 3.34 32 3 32 C3 22.43 3 12.86 3 3 C2.01 2.67 1.02 2.34 0 2 C0 1.34 0 0.68 0 0 Z " fill="#1D1F78" transform="translate(65,973)"/>
<path d="M0 0 C9.9 0.33 19.8 0.66 30 1 C30 3.31 30 5.62 30 8 C29.01 7.67 28.02 7.34 27 7 C27.66 7 28.32 7 29 7 C29 5.35 29 3.7 29 2 C25.04858778 2.09348407 21.0977363 2.19956488 17.14697266 2.31738281 C15.14113029 2.37454036 13.13501082 2.42168596 11.12890625 2.46875 C9.24365234 2.52675781 9.24365234 2.52675781 7.3203125 2.5859375 C6.15773926 2.6173584 4.99516602 2.6487793 3.79736328 2.68115234 C0.86343518 2.72157869 0.86343518 2.72157869 -1 5 C-0.67 3.35 -0.34 1.7 0 0 Z " fill="#3B3D89" transform="translate(835,972)"/>
<path d="M0 0 C-1.65 0.66 -3.3 1.32 -5 2 C3.25 2.33 11.5 2.66 20 3 C20 3.33 20 3.66 20 4 C11.09 4 2.18 4 -7 4 C-7 2.68 -7 1.36 -7 0 C-3.86650268 -1.04449911 -3.01031744 -0.93423645 0 0 Z " fill="#3A3D89" transform="translate(728,935)"/>
<path d="M0 0 C2.97 0.495 2.97 0.495 6 1 C6 2.32 6 3.64 6 5 C-1.59 5 -9.18 5 -17 5 C-17 4.67 -17 4.34 -17 4 C-10.4 4 -3.8 4 3 4 C2.01 2.68 1.02 1.36 0 0 Z " fill="#3B3D89" transform="translate(898,934)"/>
<path d="M0 0 C1.65 0 3.3 0 5 0 C5 2.97 5 5.94 5 9 C3.68 8.34 2.36 7.68 1 7 C0.25 3.375 0.25 3.375 0 0 Z " fill="#151674" transform="translate(315,973)"/>
<path d="M0 0 C0.66 0.33 1.32 0.66 2 1 C-2.29 5.29 -6.58 9.58 -11 14 C-11.66 13.67 -12.32 13.34 -13 13 C-11.58791833 11.39179588 -10.17013964 9.78859292 -8.75 8.1875 C-7.96109375 7.29417969 -7.1721875 6.40085937 -6.359375 5.48046875 C-4.34120555 3.35871775 -2.40083295 1.65745577 0 0 Z " fill="#1F2079" transform="translate(259,850)"/>
<path d="M0 0 C0.99 0.33 1.98 0.66 3 1 C2.67 1.99 2.34 2.98 2 4 C-5.59 4 -13.18 4 -21 4 C-21 3.67 -21 3.34 -21 3 C-14.07 3 -7.14 3 0 3 C0 2.01 0 1.02 0 0 Z " fill="#1D1E78" transform="translate(244,935)"/>
<path d="M0 0 C2.29160319 -0.02692484 4.58329546 -0.04636124 6.875 -0.0625 C8.15117188 -0.07410156 9.42734375 -0.08570313 10.7421875 -0.09765625 C14 0 14 0 16 1 C16 1.66 16 2.32 16 3 C10.72 2.34 5.44 1.68 0 1 C0 0.67 0 0.34 0 0 Z " fill="#E5D1D1" transform="translate(514,527)"/>
<path d="M0 0 C-0.33 0.66 -0.66 1.32 -1 2 C-2.36125 1.9071875 -2.36125 1.9071875 -3.75 1.8125 C-7.28982642 2.01672076 -8.44931155 2.64551835 -11 5 C-11.66 3.68 -12.32 2.36 -13 1 C-8.59085217 -0.10228696 -4.51617599 -0.07654536 0 0 Z " fill="#383A88" transform="translate(683,973)"/>
<path d="M0 0 C0.66 0.33 1.32 0.66 2 1 C-0.64 3.64 -3.28 6.28 -6 9 C-6 6 -6 6 -3.5625 3.375 C-2.716875 2.59125 -1.87125 1.8075 -1 1 C-0.67 0.67 -0.34 0.34 0 0 Z " fill="#21237A" transform="translate(194,975)"/>
<path d="M0 0 C1.32 0 2.64 0 4 0 C5.75 2 5.75 2 7 4 C5.02 4 3.04 4 1 4 C0.67 2.68 0.34 1.36 0 0 Z " fill="#1E1F79" transform="translate(65,843)"/>
<path d="M0 0 C0 1.98 0 3.96 0 6 C-0.99 6 -1.98 6 -3 6 C-3.66 4.35 -4.32 2.7 -5 1 C-1.125 0 -1.125 0 0 0 Z " fill="#3A3D88" transform="translate(490,978)"/>
<path d="M0 0 C3.3 0.33 6.6 0.66 10 1 C10 1.33 10 1.66 10 2 C9.37351562 2.04898438 8.74703125 2.09796875 8.1015625 2.1484375 C7.28429687 2.22320313 6.46703125 2.29796875 5.625 2.375 C4.81289063 2.44460938 4.00078125 2.51421875 3.1640625 2.5859375 C0.79665809 2.82892588 0.79665809 2.82892588 -1 5 C-0.67 3.35 -0.34 1.7 0 0 Z " fill="#2B2D80" transform="translate(835,972)"/>
<path d="M0 0 C2.0625 0.4375 2.0625 0.4375 4 1 C2.73223544 3.53552912 1.53176935 3.84919575 -1 5 C-1.99 5.495 -1.99 5.495 -3 6 C-1.125 1.125 -1.125 1.125 0 0 Z " fill="#22237B" transform="translate(972,840)"/>
</svg>
