<?xml version="1.0" encoding="UTF-8"?>
<svg version="1.1" xmlns="http://www.w3.org/2000/svg" width="3456" height="686">
<path d="M0 0 C0.17015625 0.59167969 0.3403125 1.18335937 0.515625 1.79296875 C0.75796875 2.58316406 1.0003125 3.37335938 1.25 4.1875 C1.48203125 4.96480469 1.7140625 5.74210937 1.953125 6.54296875 C2.91387718 9.11361148 2.91387718 9.11361148 4.890625 11.31640625 C7.46568024 14.59244874 8.91291029 17.92359194 10.5 21.75 C11.07258312 23.09909995 11.64550245 24.44805724 12.21875 25.796875 C12.5084668 26.48402588 12.79818359 27.17117676 13.09667969 27.87915039 C14.68440652 31.60687552 16.34288661 35.30271806 18 39 C18.37125 39.82999512 18.7425 40.65999023 19.125 41.51513672 C23.48007531 51.22876927 27.86479095 60.9117516 32.68530273 70.40429688 C36.15132945 77.24649977 39.48233459 84.15348872 42.8125 91.0625 C43.11569153 91.69137115 43.41888306 92.32024231 43.73126221 92.96817017 C48.60788456 103.08634431 53.45975027 113.21631644 58.30078125 123.3515625 C61.132197 129.27883853 63.97090375 135.20259863 66.8125 141.125 C67.30347168 142.14891846 67.79444336 143.17283691 68.30029297 144.2277832 C71.04985917 149.95671026 73.81244823 155.67906215 76.58984375 161.39453125 C81.9922285 172.51996806 87.37073025 183.63768844 92.31884766 194.97509766 C94.58215298 200.1354338 97.03151936 205.17351797 99.58178711 210.19726562 C103.12386284 217.19187259 106.53239493 224.25052775 109.9375 231.3125 C110.23974487 231.93914551 110.54198975 232.56579102 110.85339355 233.21142578 C115.95085205 243.78464043 121.00078202 254.37996815 126 265 C128.72012303 262.27987697 129.93484174 259.02061454 131.5 255.5625 C134.45818347 249.14132829 137.60104781 242.85757028 140.9375 236.625 C144.30345749 230.32539216 147.48636283 223.97551785 150.5 217.5 C153.89593069 210.2030334 157.54734806 203.08225685 161.33984375 195.984375 C164.40840085 190.20938865 167.22547128 184.3519488 169.96118164 178.41357422 C172.85492142 172.18613623 176.05523411 166.14201612 179.2890625 160.0859375 C182.01335787 154.95490266 184.56943443 149.77600034 187 144.5 C189.79441519 138.43516277 192.7906467 132.51452361 195.9375 126.625 C199.30292319 120.32509196 202.48634839 113.97554888 205.5 107.5 C208.89593069 100.2030334 212.54734806 93.08225685 216.33984375 85.984375 C219.04803454 80.88759358 221.58489172 75.74150717 224 70.5 C226.79449469 64.43511086 229.7917487 58.51516057 232.9375 52.625 C239.41652087 40.44638 245.61933585 28.24389317 250.125 15.1875 C252.19403705 9.30501362 254.31316631 4.98494438 260 2 C263.80429585 0.32610983 266.8589095 -0.24359356 271 0 C273.12468773 5.96129696 274.75085496 11.84886457 275.9375 18.0625 C276.1029834 18.91247559 276.2684668 19.76245117 276.43896484 20.63818359 C279.20206506 35.04745173 281.749705 49.48405259 283.21582031 64.0871582 C283.87059796 70.36954074 284.84895194 76.58101661 285.875 82.8125 C287.31463247 91.56899324 288.62846777 100.33031698 289.8125 109.125 C291.53942673 121.89132988 293.40731882 134.6341495 295.3125 147.375 C295.46092346 148.36797089 295.60934692 149.36094177 295.76226807 150.38400269 C296.52828367 155.50664822 297.29550914 160.62911158 298.06347656 165.75146484 C299.60932042 176.06280396 301.14972202 186.3749551 302.6875 196.6875 C302.83544006 197.67954437 302.98338013 198.67158875 303.13580322 199.69369507 C305.64544245 216.53249217 308.08854805 233.37962169 310.45458984 250.23925781 C311.4232623 257.13734888 312.40725796 264.0329967 313.40966797 270.92626953 C313.83814619 273.8744664 314.26033852 276.82350981 314.68017578 279.77294922 C315.29417811 284.07771079 315.92329389 288.38008286 316.56036377 292.68148804 C316.80721012 294.36265188 317.04969297 296.04446362 317.28729248 297.72695923 C320.06332185 320.74627284 320.06332185 320.74627284 331.25390625 340.0390625 C343.76511125 348.97309509 360.21534055 349.14617468 375 350 C375.02688151 351.64574566 375.04634123 353.29161413 375.0625 354.9375 C375.07990234 356.31228516 375.07990234 356.31228516 375.09765625 357.71484375 C375 360 375 360 374 361 C369.28001574 361.83701233 364.72012516 362.13005433 359.93261719 362.14526367 C359.26295425 362.14862228 358.59329132 362.1519809 357.90333557 362.15544128 C355.70116273 362.16488963 353.49906683 362.1668932 351.296875 362.16796875 C349.73488333 362.17119216 348.17289195 362.174557 346.61090088 362.17805481 C343.32929795 362.18403568 340.04772127 362.18589644 336.76611328 362.18530273 C333.45778833 362.18522238 330.14960451 362.19201669 326.84130859 362.20581055 C263.92791853 362.46395926 263.92791853 362.46395926 253 357 C253.34061354 351.55018334 254.7532367 348.28890014 257.84375 343.796875 C263.50670892 334.99633073 257.98241313 317.57312112 256.625 307.5 C256.39773973 305.79348492 256.1706906 304.0869417 255.94384766 302.38037109 C254.70612197 293.09892687 253.43074361 283.8237836 252.07203674 274.55918884 C251.17175843 268.35747997 250.38315471 262.14580711 249.62109375 255.92578125 C248.07659898 243.45724708 246.40236542 231.00860152 244.6875 218.5625 C244.4636412 216.93128708 244.4636412 216.93128708 244.23526001 215.26712036 C241.91293653 198.35261049 239.50090767 181.45274893 236.95385742 164.57055664 C235.38068512 154.07028884 234.1012367 143.56011537 233 133 C230.02158462 137.03434804 227.40392817 140.81152802 225.3515625 145.40625 C224.90731934 146.38940186 224.46307617 147.37255371 224.00537109 148.38549805 C223.54984863 149.41328369 223.09432617 150.44106934 222.625 151.5 C221.65150879 153.66297071 220.67755179 155.82573186 219.703125 157.98828125 C219.23712891 159.02807129 218.77113281 160.06786133 218.29101562 161.13916016 C216.69470688 164.67651755 215.04017679 168.18206942 213.375 171.6875 C211.0662758 176.59559539 208.91561653 181.54653368 206.82055664 186.54931641 C202.45862836 196.94613835 197.53386673 206.86937141 192.18017578 216.78613281 C189.31662878 222.15780105 186.65361132 227.63239259 183.95458984 233.08789062 C183.02156978 234.95679425 182.0707461 236.81539375 181.11328125 238.671875 C177.7328622 245.25904577 174.58197018 251.89595046 171.67572021 258.70690918 C164.35373605 275.79306909 156.06821055 292.39215852 147.74658203 309.0078125 C145.64581136 313.20338371 143.55994937 317.40618378 141.47758865 321.61091614 C139.84759797 324.89683376 138.20838042 328.17808333 136.56655121 331.45809937 C135.79319676 333.00648411 135.02296739 334.55643434 134.25614166 336.10806274 C124.14146934 356.54892631 124.14146934 356.54892631 116.9375 360.8125 C112.79630941 361.07683131 111.25481284 359.49768824 108 357 C101.15006748 348.94956385 96.50381937 339.52692434 91.98388672 330.04833984 C90.36486939 326.67773056 88.67940101 323.3408099 87 320 C86.33046862 318.66028643 85.66119759 317.32044271 84.9921875 315.98046875 C83.69033592 313.37613054 82.38280056 310.77477411 81.0703125 308.17578125 C77.2742772 300.64398036 73.59845443 293.06584049 70 285.4375 C66.86855312 278.80560844 63.61117289 272.29993883 60.10058594 265.8605957 C55.56170766 257.45065135 51.57203907 248.76422222 47.48388672 240.12939453 C44.94110856 234.7668854 42.3775423 229.41438627 39.8125 224.0625 C39.35004883 223.09393066 38.88759766 222.12536133 38.41113281 221.12744141 C36.0331252 216.16366342 33.6153101 211.22408426 31.13378906 206.31143188 C26.62304435 197.37267736 22.42148446 188.31681654 18.3125 179.1875 C17.66891222 177.76353967 17.0250324 176.3397113 16.38085938 174.91601562 C15.14427 172.18228049 13.90982721 169.44759268 12.67700195 166.7121582 C11.21318186 163.46670234 9.73271685 160.22905742 8.25 156.9921875 C6.28884433 152.68055582 4.43779301 148.33863256 2.6875 143.9375 C2.42388672 143.28845703 2.16027344 142.63941406 1.88867188 141.97070312 C0 137.24657062 0 137.24657062 0 135 C-0.99 135 -1.98 135 -3 135 C-2.98767334 135.92619141 -2.97534668 136.85238281 -2.96264648 137.80664062 C-2.89753119 146.43469006 -3.20976538 154.90533266 -4.0625 163.5 C-4.19043945 164.80275879 -4.31837891 166.10551758 -4.45019531 167.44775391 C-6.20814887 184.57335779 -8.96512937 201.5729049 -11.56681824 218.58563232 C-18.3826709 263.15903168 -18.3826709 263.15903168 -23 308 C-23.10368896 309.25393555 -23.10368896 309.25393555 -23.20947266 310.53320312 C-24.06695074 321.022038 -24.10954398 331.48377805 -24 342 C-14.94971584 345.44669505 -6.46777746 348.55068224 3.265625 349.3828125 C7.94876142 350.43986329 10.39777515 353.09666273 13 357 C12.625 359.1875 12.625 359.1875 12 361 C0.60324844 364.41902547 -10.34895571 364.09187738 -22.0625 363.0625 C-40.38756846 361.46831801 -58.8695377 360.89629883 -77.13793945 363.34960938 C-85.95841557 364.49087141 -94.5865858 363.93491193 -103 361 C-102.83690753 356.84114208 -102.37058676 354.50138208 -99.875 351.125 C-95.51824193 347.83346395 -89.77374348 348.43884566 -84.55859375 348.43359375 C-80.39766291 347.92660876 -78.89823196 346.97042991 -76 344 C-63.830014 326.09132142 -61.98802822 299.14457051 -59.15625 278.32421875 C-57.76087316 268.11546989 -56.18588451 257.9345177 -54.625 247.75 C-54.01383607 243.75267849 -53.40336696 239.755251 -52.79296875 235.7578125 C-52.64163986 234.76728378 -52.49031097 233.77675507 -52.33439636 232.75621033 C-50.85232621 223.04826483 -49.39160091 213.33716924 -47.9375 203.625 C-47.81570374 202.81172241 -47.69390747 201.99844482 -47.56842041 201.16052246 C-46.95661016 197.07483312 -46.34514947 192.98909159 -45.73388672 188.90332031 C-44.61671359 181.43724317 -43.49620505 173.97166625 -42.37600708 166.50604248 C-41.75054038 162.3373813 -41.12528046 158.16868911 -40.5 154 C-40.25000099 152.33333318 -40.00000099 150.66666652 -39.75 149 C-39.62625 148.175 -39.5025 147.35 -39.375 146.5 C-38.25 138.99999999 -38.25 138.99999999 -37.87498474 136.49990845 C-37.62503162 134.83354755 -37.37508249 133.16718606 -37.12513733 131.50082397 C-36.49945267 127.32947408 -35.87369849 123.15813463 -35.24780273 118.98681641 C-34.00872617 110.72841811 -32.77076791 102.46985496 -31.53515625 94.2109375 C-28.94292876 76.8882454 -26.33890666 59.56732039 -23.71383667 42.24957275 C-23.4083724 40.23301419 -23.1034473 38.21637386 -22.79910278 36.199646 C-18.1624991 5.48749925 -18.1624991 5.48749925 -14 2 C-9.24839904 0.11729019 -5.08027655 -0.20735823 0 0 Z " fill="#000065" transform="translate(1153,66)"/>
<path d="M0 0 C5.84612198 4.92502 9.25932774 13.679688 12.75 20.3125 C13.36270752 21.46532471 13.97541504 22.61814941 14.60668945 23.8059082 C15.83985758 26.1284851 17.07013628 28.45259871 18.29736328 30.77832031 C19.76953152 33.56391424 21.25372963 36.34238403 22.74609375 39.1171875 C28.70209124 50.23465944 34.16842927 61.56003259 39.55712891 72.96142578 C41.02963438 76.06240769 42.51796822 79.15529377 44.01171875 82.24609375 C49.26464706 93.11778831 54.45034773 104.00759934 59.35180664 115.04321289 C61.68307783 120.25200968 64.16999548 125.36740174 66.7421875 130.4609375 C71.33215799 139.56429554 75.6100231 148.8035073 79.875 158.0625 C80.6994786 159.84727351 81.52419036 161.63193933 82.34912109 163.41650391 C84.90274698 168.94280087 87.45174404 174.47122528 90 180 C90.82875473 181.79769863 91.65753052 183.59538754 92.48632812 185.39306641 C92.8900766 186.26883835 93.29382507 187.14461029 93.70980835 188.04692078 C94.9119853 190.65433141 96.11443201 193.26161753 97.31689453 195.86889648 C98.80378004 199.09296493 100.28902262 202.31778162 101.77294922 205.54321289 C111.94070601 227.85201528 111.94070601 227.85201528 123.1875 249.625 C123.66896484 250.51316406 124.15042969 251.40132812 124.64648438 252.31640625 C127.81134262 258.08687069 131.25941437 263.58566918 135 269 C135.66128906 267.40478516 135.66128906 267.40478516 136.3359375 265.77734375 C141.66318236 253.08097175 147.35850111 240.56384883 153.125 228.0625 C153.50968445 227.22669403 153.8943689 226.39088806 154.29071045 225.52975464 C158.53176626 216.32231494 162.85563322 207.17428655 167.42724609 198.1262207 C169.76948472 193.47046696 172.01232036 188.76916712 174.25 184.0625 C174.94379761 182.60831665 174.94379761 182.60831665 175.65161133 181.12475586 C177.58362633 177.07512454 179.51258831 173.02404353 181.44091797 168.97265625 C186.2182009 158.93856797 191.00164256 148.91426622 196.01245117 138.99438477 C198.75892831 133.53564797 201.38492203 128.02269678 204 122.5 C206.87652272 116.42613666 209.78200565 110.37358676 212.8125 104.375 C216.23213444 97.59146648 219.56891985 90.76825561 222.8765564 83.92950439 C223.72640242 82.17375179 224.5795848 80.41961532 225.43286133 78.66552734 C228.19096648 72.94906134 230.78228651 67.22979438 233.08569336 61.31567383 C253.61531495 9.32009017 253.61531495 9.32009017 267 0 C269.98828125 -0.59375 269.98828125 -0.59375 273 0 C282.21307099 10.55664385 282.42689775 30.28902682 284.35791016 43.60302734 C285.11155122 48.78598081 285.89044556 53.96511617 286.66796875 59.14453125 C289.41285008 77.44917283 292.13422156 95.75619079 294.72045898 114.08398438 C295.71611961 121.11064335 296.79297956 128.12016827 297.92675781 135.12573242 C299.032428 142.02863928 299.95319923 148.95313393 300.87524414 155.88256836 C301.64406493 161.58887142 302.5164302 167.26453562 303.5 172.9375 C304.65292002 179.60652668 305.58930162 186.28561834 306.4375 193 C307.76549163 203.49315266 309.34227936 213.93682305 310.97265625 224.38671875 C311.96913042 230.77444567 312.92945516 237.16705465 313.875 243.5625 C314.03476318 244.63935059 314.19452637 245.71620117 314.35913086 246.82568359 C315.27598055 253.02642486 316.17792165 259.22905292 317.06617737 265.4339447 C320.12820758 308.15101982 320.12820758 308.15101982 339.8984375 343.58984375 C346.64412293 347.79067673 354.4171105 347.84531429 362.15649414 348.19311523 C368.01550909 348.51688271 371.51641137 349.10898757 376 353 C378.1519437 356.22791555 378.20086443 357.28400809 378 361 C370.94195515 363.36676953 364.21176391 364.3003464 356.8125 364.3125 C356.09666748 364.31765625 355.38083496 364.3228125 354.64331055 364.328125 C350.21624029 364.27429459 345.90947475 363.8774402 341.52140808 363.28703308 C329.36981024 361.6725527 317.24303458 361.61814092 305 361.5 C269.56379638 361.15805326 269.56379638 361.15805326 256 357 C256.37577711 350.86230717 258.0419407 347.73036356 262 343 C262.66 343 263.32 343 264 343 C264.2421537 333.35242865 263.6018919 324.2688512 262.171875 314.72265625 C261.97875253 313.38216692 261.78657741 312.04154082 261.59527588 310.70079041 C261.09237456 307.19181113 260.57825384 303.68457628 260.06109619 300.17767334 C259.24859559 294.65340249 258.4542099 289.12647455 257.65740395 283.59992218 C257.45853506 282.22214429 257.25920227 280.84443328 257.05940819 279.46678925 C255.56988568 269.19381672 254.18692194 258.91087314 252.87890625 248.61328125 C251.55211773 238.17525856 250.14239943 227.7607326 248.53329468 217.36260986 C247.89829448 213.25357408 247.27765238 209.14236055 246.65625 205.03125 C246.5248613 204.16279449 246.3934726 203.29433899 246.25810242 202.39956665 C244.67614709 191.90699251 243.16146667 181.40473011 241.65689087 170.90081787 C241.34681541 168.73684156 241.0359378 166.57298001 240.72421265 164.40924072 C240.28654029 161.36949971 239.85180637 158.32935291 239.41796875 155.2890625 C239.2890625 154.39586304 239.16015625 153.50266357 239.02734375 152.58239746 C238.19785521 146.73370196 237.54413546 140.8820114 237 135 C234.62609513 137.29348311 233.1053274 139.36771173 231.57421875 142.3046875 C231.11490967 143.18237793 230.65560059 144.06006836 230.18237305 144.96435547 C229.68906494 145.92486816 229.19575684 146.88538086 228.6875 147.875 C228.16260986 148.89094238 227.63771973 149.90688477 227.09692383 150.95361328 C215.6116651 173.33609631 205.1238921 196.16033464 194.77099609 219.08056641 C187.61805522 234.91389652 180.3442094 250.58269011 172.12304688 265.89306641 C163.05006271 282.91477365 155.19889342 300.5410728 147.875 318.375 C132.68500027 355.22585094 132.68500027 355.22585094 122 360 C118.01890037 360.1694085 115.63887004 358.98721271 112.5625 356.625 C102.62917901 347.34091567 97.08497731 332.91830317 91 321 C90.62166016 320.25991699 90.24332031 319.51983398 89.85351562 318.75732422 C85.73273479 310.6700062 81.81924775 302.50100085 77.99267578 294.27099609 C75.86070249 289.72409923 73.59233971 285.28285964 71.1875 280.875 C66.25327568 271.80487854 61.90096929 262.45897514 57.48388672 253.12939453 C54.94111045 247.76688939 52.37837444 242.41398406 49.8125 237.0625 C49.30581787 236.00546875 48.79913574 234.9484375 48.27709961 233.859375 C45.20185143 227.45892376 42.0710993 221.09090654 38.86645508 214.75439453 C36.31672133 209.6919852 33.90352205 204.57065268 31.5 199.4375 C28.85133768 193.78919527 26.11494004 188.22532293 23.125 182.75 C15.73071103 169.19160567 9.34723464 155.07155437 3 141 C1.31472553 145.59983435 0.3725103 150.13523134 -0.33203125 154.96484375 C-0.44866119 155.73665482 -0.56529114 156.50846588 -0.68545532 157.30366516 C-1.06745429 159.84738144 -1.44061145 162.39228711 -1.8125 164.9375 C-1.94383331 165.82667114 -2.07516663 166.71584229 -2.21047974 167.63195801 C-4.92992503 186.05721933 -7.38419673 204.5095104 -9.63415527 222.99761963 C-10.03178686 226.26086548 -10.43246338 229.52373156 -10.83300781 232.78662109 C-14.68309389 264.24776525 -18.13342651 295.69309401 -20.45552063 327.30708313 C-20.82486397 332.23012455 -21.35072588 337.10568661 -22 342 C-21.45472656 342.18175781 -20.90945312 342.36351562 -20.34765625 342.55078125 C-19.59355469 342.80214844 -18.83945313 343.05351562 -18.0625 343.3125 C-17.23363281 343.58578125 -16.40476562 343.8590625 -15.55078125 344.140625 C-13.97801913 344.67049892 -12.41116159 345.21880334 -10.85546875 345.796875 C-6.33062521 347.44227265 -2.10099297 348.29342367 2.6875 348.875 C8.3711316 349.6793502 11.29344412 350.57272492 15 355 C15.875 357.8125 15.875 357.8125 16 360 C4.82218456 365.2467297 -7.03899832 364.1146711 -19 363.0625 C-38.96138853 361.32749292 -59.41493487 360.35076958 -79.15234375 364.34375 C-84.57920235 365.26934619 -89.20770471 365.84542231 -94.3125 363.4375 C-97.52814039 360.52098895 -98.6785547 358.11116315 -100 354 C-100 352.68 -100 351.36 -100 350 C-99.40574219 349.96036133 -98.81148437 349.92072266 -98.19921875 349.87988281 C-95.46459315 349.68743832 -92.73262995 349.46890227 -90 349.25 C-88.59814453 349.1571875 -88.59814453 349.1571875 -87.16796875 349.0625 C-79.95957238 348.4575996 -74.10238419 346.93002952 -68.75 341.875 C-62.93707079 332.32518772 -61.57235429 322.0405954 -59.9375 311.1875 C-59.69310643 309.62809042 -59.44766844 308.06884416 -59.20117188 306.50976562 C-58.05562135 299.20662582 -56.97960732 291.89492637 -55.95291138 284.57418823 C-54.19985303 272.08590049 -52.19078876 259.64460941 -50.15615845 247.19946289 C-47.35223641 230.02163876 -44.57807352 212.85761835 -42.37817383 195.59106445 C-41.12631753 185.79103791 -39.71650356 176.01983557 -38.25 166.25 C-38.1263205 165.42559418 -38.00264099 164.60118835 -37.87521362 163.75180054 C-35.80737572 150.01251393 -33.61447421 136.29418183 -31.40167236 122.5776062 C-28.07560408 101.95764027 -24.98141782 81.33832407 -22.30517578 60.62304688 C-21.6530785 55.5760484 -20.99453657 50.52991355 -20.33380127 45.48403931 C-19.94767364 42.51570915 -19.5700207 39.5463864 -19.19287109 36.5769043 C-15.70118264 9.53959185 -15.70118264 9.53959185 -10 3 C-6.58006931 0.36928409 -4.28762882 -0.46306723 0 0 Z " fill="#000066" transform="translate(3078,66)"/>
<path d="M0 0 C0.97453125 0.83015625 1.9490625 1.6603125 2.953125 2.515625 C20.20873671 17.48047244 32.08095808 37.16569427 41 58 C41.33217529 58.77520996 41.66435059 59.55041992 42.0065918 60.34912109 C44.52383361 66.41607419 46.41621131 72.5205919 48.0625 78.875 C48.42698242 80.20144531 48.42698242 80.20144531 48.79882812 81.5546875 C53.12963663 98.09676774 54.56099114 114.64239628 54.4375 131.6875 C54.43412628 132.59998505 54.43075256 133.51247009 54.42727661 134.4526062 C54.34829549 149.26697755 53.4564641 163.54213244 50 178 C49.75330566 179.04381836 49.50661133 180.08763672 49.25244141 181.16308594 C45.85668906 195.1088092 41.39899216 208.16019221 35 221 C34.65743164 221.7105957 34.31486328 222.42119141 33.96191406 223.15332031 C26.97441317 237.60370659 17.80478496 250.15629341 7 262 C6.401875 262.7115625 5.80375 263.423125 5.1875 264.15625 C0.82080247 269.29768419 -3.86945593 273.56969357 -9.16015625 277.75 C-11.00892972 279.21477788 -12.83135378 280.71365094 -14.62109375 282.25 C-54.06668774 316.01027063 -108.05500918 325.87581339 -158.44335938 322.7890625 C-207.74930679 318.69316253 -253.84488204 293.90417155 -286.5 257.0625 C-309.54868115 228.82786559 -321.1180868 195.9811596 -325 160 C-325.13148438 158.93136719 -325.26296875 157.86273438 -325.3984375 156.76171875 C-327.20073319 139.93217388 -326.33557666 122.72347031 -324 106 C-323.90879883 105.30277832 -323.81759766 104.60555664 -323.72363281 103.88720703 C-320.58652466 80.54602167 -312.10718237 57.5537276 -299 38 C-298.62504395 37.43571289 -298.25008789 36.87142578 -297.86376953 36.29003906 C-291.69918098 27.08295262 -284.7361265 18.91797123 -277 11 C-276.39502686 10.36658691 -275.79005371 9.73317383 -275.16674805 9.08056641 C-270.46575291 4.2407086 -265.51845722 0.08666494 -260.0625 -3.875 C-258.82415405 -4.77726318 -258.82415405 -4.77726318 -257.56079102 -5.69775391 C-186.75294252 -56.55047861 -78.79878223 -59.34735823 0 0 Z M-215 5 C-215.72703125 5.58265625 -216.4540625 6.1653125 -217.203125 6.765625 C-240.31147798 25.99565301 -252.93308127 58.80452686 -256 88 C-256.10957031 88.87269531 -256.21914063 89.74539062 -256.33203125 90.64453125 C-258.32590443 109.22742929 -257.04695293 128.38818581 -256 147 C-255.92724854 148.4226416 -255.92724854 148.4226416 -255.85302734 149.87402344 C-253.57466195 191.89720732 -238.73457211 224.83498981 -211 256 C-210.09507812 257.01707031 -210.09507812 257.01707031 -209.171875 258.0546875 C-188.64463388 279.72233091 -159.68215588 292.99810667 -129.96484375 294.44921875 C-99.6383246 295.24063134 -73.82839117 287.42732403 -51.31958008 266.43261719 C-35.67650525 251.27215471 -26.71225793 231.70500693 -21 211 C-20.81453613 210.36271973 -20.62907227 209.72543945 -20.43798828 209.06884766 C-6.00026614 159.37534288 -13.36990956 96.04500591 -38 51 C-38.57621094 49.93265625 -39.15242187 48.8653125 -39.74609375 47.765625 C-52.36917465 25.2598087 -70.40756505 7.33959129 -93 -5 C-93.87785156 -5.48210937 -94.75570312 -5.96421875 -95.66015625 -6.4609375 C-101.72884167 -9.48085386 -108.13756008 -11.35646932 -114.625 -13.25 C-115.50816895 -13.50869873 -116.39133789 -13.76739746 -117.30126953 -14.03393555 C-148.744787 -22.8394132 -189.87511311 -16.45702019 -215 5 Z " fill="#000065" transform="translate(969,113)"/>
<path d="M0 0 C1.25755885 0.49803678 2.51536223 0.99545667 3.7734375 1.4921875 C23.86792935 9.6985473 41.53511576 21.88559472 57 37 C57.66257812 37.60070312 58.32515625 38.20140625 59.0078125 38.8203125 C86.34103447 64.11943423 96.92946891 106.93462407 98.87548828 142.75878906 C99.14422832 149.75446102 99.21839707 156.74972031 99.25 163.75 C99.2554483 164.47958923 99.26089661 165.20917847 99.26651001 165.96087646 C99.35022216 181.01338063 97.97329382 195.65561999 94.375 210.3125 C94.11775146 211.36864502 93.86050293 212.42479004 93.59545898 213.51293945 C90.98973191 223.75021954 87.34942776 233.38730773 83 243 C82.71012207 243.65000977 82.42024414 244.30001953 82.12158203 244.96972656 C74.12065707 262.67171465 62.17717582 277.86892088 49 292 C48.27554687 292.79019531 47.55109375 293.58039063 46.8046875 294.39453125 C35.92124194 305.81292583 22.74964612 315.33908181 9 323 C8.24235352 323.42522949 7.48470703 323.85045898 6.70410156 324.28857422 C-42.57935997 351.69278784 -99.33892659 357.13399496 -153.56640625 341.953125 C-197.34640606 329.04954611 -234.43749479 300.93983448 -257.07617188 261.10644531 C-259.22695938 257.14890976 -261.14695944 253.10382972 -263 249 C-263.51046875 247.87980469 -264.0209375 246.75960938 -264.546875 245.60546875 C-275.44362535 220.13291058 -279.3476013 191.54257139 -280 164 C-280.02046387 163.31760254 -280.04092773 162.63520508 -280.06201172 161.93212891 C-280.36114222 151.14118165 -279.63053643 140.66836695 -278 130 C-277.81695313 128.79085937 -277.63390625 127.58171875 -277.4453125 126.3359375 C-274.42308494 109.2099813 -268.24389019 93.2418094 -260 78 C-259.53207031 77.06542969 -259.06414062 76.13085938 -258.58203125 75.16796875 C-251.63565527 61.58077585 -242.17947788 49.4071166 -231.51660156 38.55615234 C-229.99343435 36.99326312 -228.50739198 35.40086707 -227.0234375 33.80078125 C-207.12740641 12.68656072 -181.72519047 -1.10538771 -154 -9 C-152.80141357 -9.35698975 -152.80141357 -9.35698975 -151.57861328 -9.72119141 C-103.00527439 -24.05772812 -46.45180885 -19.12988513 0 0 Z M-180.6171875 41.19921875 C-190.54144951 52.86429393 -196.80326429 66.72521661 -202 81 C-202.4125 82.06089844 -202.825 83.12179688 -203.25 84.21484375 C-209.7459693 101.93666 -213.09336972 121.93472639 -213.203125 140.8203125 C-213.21009399 141.63357498 -213.21706299 142.44683746 -213.22424316 143.28474426 C-213.24154732 145.89821609 -213.24796401 148.51147326 -213.25 151.125 C-213.25100708 152.01816925 -213.25201416 152.9113385 -213.25305176 153.83157349 C-213.24243816 167.7502097 -212.66394716 181.30134066 -210 195 C-209.86078125 195.74572266 -209.7215625 196.49144531 -209.578125 197.25976562 C-206.13509157 215.16035149 -199.60464616 231.98579742 -191 248 C-190.58234375 248.82371094 -190.1646875 249.64742187 -189.734375 250.49609375 C-183.86820873 261.75334944 -175.74514426 271.87142614 -167 281 C-166.20464844 281.87011719 -165.40929688 282.74023438 -164.58984375 283.63671875 C-152.81418223 296.08730506 -138.59586243 305.0828498 -123 312 C-121.93652344 312.48082031 -120.87304688 312.96164062 -119.77734375 313.45703125 C-94.50562396 324.03217569 -64.50193805 325.1197502 -38.88476562 315.17919922 C-28.86303189 311.03637419 -20.33384747 305.97372399 -12 299 C-11.21367188 298.37609375 -10.42734375 297.7521875 -9.6171875 297.109375 C-0.12161692 289.2349994 7.12023907 278.76475868 13 268 C13.41636719 267.26007813 13.83273437 266.52015625 14.26171875 265.7578125 C20.58166785 253.91538421 24.16182952 241.34012895 26.8125 228.25 C27.01939453 227.23349365 27.22628906 226.2169873 27.43945312 225.16967773 C29.84106123 212.62895727 30.20930328 200.11631469 30.1875 187.375 C30.18656342 186.66001343 30.18562683 185.94502686 30.18466187 185.20837402 C30.09550361 153.46803641 27.09763298 121.945689 16 92 C15.63503418 90.99477295 15.63503418 90.99477295 15.26269531 89.96923828 C9.50647246 74.40957524 0.07737544 61.18338484 -11 49 C-11.85271484 48.02353516 -11.85271484 48.02353516 -12.72265625 47.02734375 C-31.31409661 26.91435329 -63.82370731 11.68027789 -91.171875 10.0546875 C-92.10515625 10.03664063 -93.0384375 10.01859375 -94 10 C-95.04510742 9.97147949 -95.04510742 9.97147949 -96.11132812 9.94238281 C-128.519466 9.1394192 -157.49242821 17.29371999 -180.6171875 41.19921875 Z " fill="#000065" transform="translate(1826,86)"/>
<path d="M0 0 C6.01321867 -0.39216643 11.56626371 0.23916959 17 3 C19.79195396 5.70078812 21.83769333 8.78643364 24 12 C30.74484683 20.98830446 38.32705203 28.97891436 46.82421875 36.328125 C57.15294834 45.30819882 66.85683151 55.04204473 75.11083984 65.96875 C79.53421242 71.80619276 84.47198741 77.08903533 89.50146484 82.40429688 C90.97121698 83.96935064 92.42043098 85.55076735 93.86328125 87.140625 C99.51676306 93.3628173 105.31649681 99.4187393 111.25 105.375 C111.89936523 106.02895752 112.54873047 106.68291504 113.21777344 107.35668945 C116.37356342 110.50246233 119.57601 113.53760985 122.953125 116.4453125 C128.12851075 120.91427698 132.85637397 125.80822049 137.64453125 130.68359375 C141.67562541 134.75890466 145.79771943 138.62703245 150.14257812 142.36523438 C152.89223271 144.78527737 155.44439524 147.37838812 158 150 C161.88251666 153.93612743 165.83824937 157.67950893 170.04296875 161.2734375 C173.86874947 164.64867718 177.62866398 168.16822689 181 172 C181 172.66 181 173.32 181 174 C181.57492188 174.23847656 182.14984375 174.47695312 182.7421875 174.72265625 C185.47529311 176.2688942 187.06814995 178.06567107 189.125 180.4375 C192.39433882 184.16851885 195.69743815 187.85494841 199.0625 191.5 C202.9040112 195.71499146 206.48898611 200.06413736 210.015625 204.54296875 C212.71816736 207.88922691 215.57799722 211.07210021 218.48071289 214.24511719 C220.13333989 216.0522926 221.78145543 217.86360622 223.42456055 219.67944336 C229.75713608 226.65023638 236.24701715 233.43334225 242.90673828 240.09204102 C244.50453893 241.69204519 246.09411551 243.29993615 247.68359375 244.90820312 C254.13751431 251.39601719 260.77799483 257.36027377 268 263 C267.86722656 262.00742187 267.73445313 261.01484375 267.59765625 259.9921875 C267.41906035 258.61981904 267.24068733 257.24742157 267.0625 255.875 C266.97548828 255.22917969 266.88847656 254.58335937 266.79882812 253.91796875 C264.91056376 239.23146815 264.81968464 224.57116853 264.73963928 209.787117 C264.71837902 205.8850355 264.69138102 201.98302922 264.66296387 198.08099365 C264.59830068 189.10142911 264.54245837 180.12181421 264.48697662 171.14218903 C264.43185982 162.23252027 264.37313041 153.32289437 264.30812073 144.41329193 C264.28170281 140.58130674 264.26080136 136.74931712 264.2401123 132.91729736 C264.22350055 130.55716765 264.20662795 128.19703975 264.18945312 125.83691406 C264.18526871 124.78212357 264.18108429 123.72733307 264.17677307 122.64057922 C264.1304576 117.11847249 263.83320966 111.71668736 263.22528267 106.22846413 C262.92252694 103.23364751 262.86799593 100.26506507 262.8581543 97.25610352 C262.85111984 96.03105606 262.84408539 94.80600861 262.83683777 93.5438385 C262.83267349 92.25191086 262.82850922 90.95998322 262.82421875 89.62890625 C262.81376309 88.2570674 262.80233541 86.88523565 262.78999329 85.51341248 C262.73811499 79.74131227 262.68958841 73.96935018 262.67407227 68.19702148 C262.66390742 64.6449823 262.63438814 61.09353465 262.59275246 57.54173088 C262.57472528 55.55960068 262.57706914 53.57731804 262.58000183 51.59510803 C262.47265159 43.5999571 262.07027137 34.54375625 256.44969177 28.26934814 C248.75598295 21.81117584 236.84646636 21.4488762 227.3125 20.8125 C226.21744141 20.73064453 225.12238281 20.64878906 223.99414062 20.56445312 C221.32996922 20.36667621 218.6655081 20.17868432 216 20 C215.8474203 11.34364513 215.8474203 11.34364513 219 8 C225.35617773 5.74224099 232.08650496 5.6670012 238.75390625 5.5859375 C239.77185776 5.56657135 240.78980927 5.5472052 241.83860779 5.5272522 C245.07982181 5.46796877 248.32108042 5.42151017 251.5625 5.375 C253.67905087 5.33672661 255.79558774 5.29766982 257.91210938 5.2578125 C295.94620918 4.57783442 295.94620918 4.57783442 313.625 5.375 C314.61226074 5.41826416 315.59952148 5.46152832 316.61669922 5.50610352 C326.32227814 5.982866 335.78104543 6.73096418 345 10 C342.96356796 14.5450802 340.16440941 17.30584964 336 20 C331.39611662 21.73071912 326.68093203 22.03143197 321.8125 22.375 C317.18260309 22.82722249 314.42973319 23.65192712 311 27 C303.89312568 39.44879641 304.74651491 54.29453328 304.88023567 68.12493896 C304.9109765 71.3998847 304.92738354 74.6746449 304.94029236 77.94970703 C304.97947718 87.25844443 305.0428745 96.56696397 305.11645508 105.87548828 C305.31167409 131.55262194 305.03975406 157.0444982 303.35268021 182.67159271 C302.16873371 200.80698193 301.5961841 218.90651565 301.33984375 237.078125 C301.32094149 238.39549149 301.30203922 239.71285797 301.28256416 241.07014465 C301.17064174 249.10896959 301.07395997 257.14792033 300.98345947 265.18701172 C300.84686092 277.31758347 300.69584265 289.44795384 300.52734375 301.578125 C300.5097337 302.85267044 300.49212364 304.12721588 300.47397995 305.44038391 C299.70811854 358.58376292 299.70811854 358.58376292 297 364 C289.5825034 364.46359354 283.57780214 364.00093524 277.72265625 359.08984375 C275.6952084 357.12653309 273.76099816 355.2059312 272 353 C272 352.34 272 351.68 272 351 C271.41734375 350.74605469 270.8346875 350.49210937 270.234375 350.23046875 C267.75811967 348.86679667 266.19479374 347.35774797 264.25 345.3125 C261.04326562 341.95081837 257.63774179 338.9163282 254.13183594 335.87573242 C249.98665212 332.22852133 246.00787503 328.401991 242 324.60546875 C238.70718284 321.49915882 235.38807157 318.45283029 231.953125 315.50390625 C227.96423186 312.03746082 224.3377354 308.31336835 220.75 304.4375 C220.10232666 303.74277588 219.45465332 303.04805176 218.78735352 302.33227539 C214.73170662 297.95365207 210.79297887 293.49273234 206.9375 288.9375 C197.44982175 277.73586753 187.29414503 267.21074196 176.9375 256.8125 C175.72308228 255.591073 175.72308228 255.591073 174.48413086 254.3449707 C170.79323239 250.6641197 167.11075639 247.21308688 163 244 C161.32247004 242.3442679 159.65753409 240.67574947 158 239 C156.13457934 237.13926291 154.2688731 235.27881576 152.40283203 233.41870117 C146.9488856 227.98110879 141.49749529 222.54096129 136.04754829 217.09936047 C132.75942443 213.81645389 129.47037143 210.53448944 126.17919922 207.25463867 C122.9811226 204.06748744 119.78554933 200.87784535 116.59164047 197.68651772 C115.38140303 196.47811428 114.17029243 195.27058462 112.95825577 194.06398582 C107.28201388 188.41221151 101.65304244 182.77127012 96.44967651 176.67329407 C94.25895676 174.14464831 91.91290758 171.81909287 89.53125 169.46875 C89.04724731 168.98853394 88.56324463 168.50831787 88.0645752 168.0135498 C86.54552691 166.50650593 85.02323312 165.00281314 83.5 163.5 C77.61677489 157.69564353 71.77768614 151.91633431 66.40429688 145.62695312 C64.69668964 143.64859871 62.87955705 141.81474474 61 140 C57.87979888 136.92140156 54.97955771 133.73386581 52.125 130.41015625 C48.70680088 126.53326497 45.15923324 122.77606793 41.6184082 119.01123047 C40.81149536 118.14908936 40.81149536 118.14908936 39.98828125 117.26953125 C39.50915283 116.76010986 39.03002441 116.25068848 38.53637695 115.72583008 C36.60164501 113.55252322 34.80318857 111.28293822 33 109 C32.68834339 134.45994749 33.25153777 159.87030561 34.07757568 185.31484985 C34.63131909 202.42658515 35.08148696 219.53250505 35.28515625 236.65234375 C35.2950099 237.46351276 35.30486355 238.27468178 35.31501579 239.11043167 C35.40993478 247.00111922 35.49365149 254.89177426 35.55272198 262.78281403 C33.98647573 304.44280074 33.98647573 304.44280074 48 342 C53.45501888 345.97761793 59.05601809 345.111287 65.62890625 345 C73.25950356 345 77.79951343 347.14419057 83.53125 352.1484375 C85 354 85 354 85 358 C76.07336567 359.62511703 67.50287712 360.28620611 58.4375 360.1875 C57.30892578 360.18685547 56.18035156 360.18621094 55.01757812 360.18554688 C49.71007822 360.1580785 44.46887165 359.99749746 39.18359375 359.50390625 C31.66920265 358.81909264 24.16405728 358.76090383 16.625 358.75 C15.50915024 358.74649536 15.50915024 358.74649536 14.37075806 358.74291992 C3.23734983 358.72979319 -7.45485607 359.56200017 -18.4609375 361.31640625 C-33.50618835 363.70269968 -33.50618835 363.70269968 -40.125 360.25 C-45.41632063 356.10896646 -46.15066479 353.64797831 -47 347 C-46.43603516 346.98018066 -45.87207031 346.96036133 -45.29101562 346.93994141 C-42.69360426 346.84368189 -40.09688897 346.73441948 -37.5 346.625 C-36.1696875 346.57859375 -36.1696875 346.57859375 -34.8125 346.53125 C-27.48296406 346.20788812 -20.00891325 345.63544737 -14 341 C-10.37892619 336.37460801 -10.06038927 331.33806725 -9.375 325.6875 C-9.25382812 324.79482422 -9.13265625 323.90214844 -9.0078125 322.98242188 C-7.08616682 308.10011157 -6.78268321 293.07526096 -6.36924744 278.09257507 C-6.27906523 274.82714101 -6.1854098 271.56182154 -6.09094238 268.29650879 C-5.89098151 261.36442253 -5.69516704 254.43222267 -5.5 247.5 C-5.27350582 239.45505516 -5.04522457 231.410169 -4.81248474 223.36540222 C-4.72114823 220.17745599 -4.63301549 216.98943218 -4.54504395 213.8013916 C-4.31257796 205.63391484 -4.07095187 197.49102455 -3.45678711 189.34155273 C-2.6775086 177.73650644 -2.91199179 166.10196751 -2.96446919 154.47710919 C-2.97843306 151.00500903 -2.98468112 147.53289637 -2.99131775 144.06077576 C-3.01367462 133.02318897 -3.04496189 121.98563508 -3.08751237 110.94810712 C-3.12351602 101.59172009 -3.15071141 92.23536082 -3.16015625 82.87890625 C-3.16086262 82.17962777 -3.16156899 81.48034928 -3.16229677 80.75988054 C-3.18194179 53.83120266 -2.95082426 26.79653968 0 0 Z " fill="#000065" transform="translate(2012,69)"/>
<path d="M0 0 C1.95715905 -0.00361996 3.91430918 -0.01132116 5.87145615 -0.01909256 C27.794552 -0.08957347 49.64779666 0.82887168 71.36526108 3.99631882 C72.51840805 4.16405807 73.67155502 4.33179733 74.85964584 4.5046196 C100.81615988 8.52334519 126.67382099 17.20319279 143.08791733 38.94163132 C150.39836211 49.96353269 154.88633098 61.21540344 157.05276108 74.24631882 C157.24998764 75.37167038 157.24998764 75.37167038 157.45119858 76.51975632 C161.76431658 105.07959174 150.2302369 133.66093984 133.77932358 156.38694382 C123.71329123 169.9280579 112.79729335 180.51994968 99.05276108 190.24631882 C108.78846944 205.23758655 119.20093934 219.37575633 131.02541733 232.78928757 C134.391654 236.61078965 137.6051572 240.54726202 140.81057358 244.50413132 C143.35530286 247.61632637 145.94916154 250.68339234 148.55276108 253.74631882 C154.8364496 261.15031287 161.02231226 268.6226986 166.98611069 276.28782272 C188.80015356 304.29969509 212.7245928 333.36646029 249.05276108 341.24631882 C251.25781904 341.43532378 253.4668618 341.58418024 255.67776108 341.68381882 C260.73380477 341.9729277 260.73380477 341.9729277 263.67776108 344.49631882 C264.95413563 347.04906793 266.12689506 349.54587627 267.05276108 352.24631882 C264.90062749 355.07612646 263.47933964 356.93603217 259.93481064 357.70698166 C257.29423803 357.85885393 254.69333229 357.85986526 252.04885483 357.80491257 C251.06549149 357.80344223 250.08212814 357.80197189 249.06896591 357.800457 C245.87526195 357.78771219 242.68352163 357.73735348 239.49026108 357.68381882 C237.29910807 357.66305973 235.10794549 357.64328694 232.91677475 357.62449265 C221.22184697 357.49642158 209.53587448 357.22234023 197.86526108 356.43381882 C196.82619614 356.36412888 195.7871312 356.29443893 194.71657944 356.22263718 C167.34934563 353.94711869 147.11825507 340.33104529 129.44729233 320.14475632 C119.89539172 308.58274939 111.16985431 296.36737197 102.44094467 284.18088913 C100.65654613 281.69415433 98.85634877 279.21916232 97.05276108 276.74631882 C90.78204755 268.1355906 84.55919096 259.49010607 78.32522202 250.85276413 C76.63039238 248.50466872 74.93537037 246.15671234 73.24026108 243.80881882 C72.69587387 243.05463669 72.15148666 242.30045456 71.59060287 241.52341843 C68.08556631 236.66975485 64.56760834 231.82582598 61.02932358 226.99631882 C59.05276108 224.24631882 59.05276108 224.24631882 57.72166061 221.83228683 C54.6354251 216.49166751 54.6354251 216.49166751 49.57149887 213.32438278 C46.62999515 212.99438038 43.82782214 212.96421742 40.86916733 213.05100632 C39.8136618 213.04295975 38.75815628 213.03491318 37.67066574 213.02662277 C34.31696621 213.01168521 30.96845459 213.0654844 27.61526108 213.12131882 C25.33466146 213.12326154 23.05405328 213.12070628 20.7734642 213.11350632 C15.19874364 213.10569471 9.62667876 213.15423229 4.05276108 213.24631882 C4.16193336 221.30682821 4.27484393 229.36727408 4.39210033 237.42766953 C4.44648122 241.17335015 4.49973156 244.91903861 4.55007553 248.66477585 C4.75224271 282.27294728 4.75224271 282.27294728 7.36526108 315.74631882 C7.47031967 316.76338913 7.57537827 317.78045944 7.68362045 318.82835007 C8.50083107 325.71435426 9.81810593 331.98341341 14.84182358 337.05100632 C23.67047631 342.19792302 33.15665706 342.56533091 43.17776108 342.87131882 C44.22963608 342.90999069 45.28151108 342.94866257 46.36526108 342.98850632 C48.92750821 343.08167894 51.49010931 343.1650327 54.05276108 343.24631882 C54.05276108 346.54631882 54.05276108 349.84631882 54.05276108 353.24631882 C44.87641234 356.77568372 35.23756688 356.40296851 25.55276108 356.37131882 C24.4003392 356.375186 23.24791733 356.37905319 22.06057358 356.38303757 C15.62215522 356.37593115 9.23245215 356.17033024 2.81057358 355.75022507 C-6.31951283 355.16064958 -15.42518996 355.05265057 -24.57223892 355.05881882 C-25.40753128 355.05742905 -26.24282364 355.05603928 -27.10342789 355.05460739 C-40.04528586 355.04386573 -52.87186556 355.52579026 -65.76218033 356.71043015 C-74.80245498 357.46787898 -84.80463103 357.86687735 -92.94723892 353.24631882 C-92.44925522 349.51144104 -92.07232136 347.43394247 -89.94723892 344.24631882 C-87.07614517 343.36741257 -87.07614517 343.36741257 -83.50973892 342.68381882 C-82.25548111 342.43116257 -81.0012233 342.17850632 -79.70895767 341.91819382 C-77.38663731 341.50340763 -75.05597933 341.129927 -72.71677017 340.82444382 C-66.77379879 340.11919164 -66.77379879 340.11919164 -62.32223892 336.30881882 C-60.27232752 331.74310706 -59.68459579 327.83681276 -59.42746353 322.9030571 C-59.36559939 321.77984401 -59.36559939 321.77984401 -59.30248547 320.63393974 C-58.7964885 311.00780805 -58.53336055 301.37355197 -58.26364517 291.73850632 C-58.20334191 289.64524051 -58.14289268 287.5519789 -58.08230972 285.45872116 C-57.92083353 279.8450841 -57.76327164 274.23134428 -57.60709381 268.61755753 C-57.50925225 265.10384122 -57.41060686 261.59014817 -57.31183243 258.07645798 C-56.37778245 224.76611844 -55.53517867 191.45425352 -54.8243866 158.13838577 C-54.76064799 155.16374455 -54.69575411 152.18913044 -54.63061905 149.2145195 C-53.46629223 106.26061622 -53.46629223 106.26061622 -54.63693619 63.33030319 C-54.76346636 61.18306347 -54.86841832 59.03537204 -54.97262955 56.88694382 C-55.59435849 45.26264969 -56.7241695 33.17925187 -60.94723892 22.24631882 C-62.67885856 20.87990984 -62.67885856 20.87990984 -64.94723892 20.24631882 C-66.29422867 19.74769333 -66.29422867 19.74769333 -67.66843033 19.2389946 C-71.08552475 18.20445209 -74.09993632 17.84201715 -77.65817642 17.61350632 C-78.90212173 17.52971725 -80.14606705 17.44592819 -81.42770767 17.35960007 C-83.35550064 17.24165085 -83.35550064 17.24165085 -85.32223892 17.12131882 C-86.63063736 17.03495163 -87.9390358 16.94858444 -89.28708267 16.85960007 C-92.50667752 16.64809384 -95.7269052 16.44626028 -98.94723892 16.24631882 C-98.94723892 11.95631882 -98.94723892 7.66631882 -98.94723892 3.24631882 C-96.42816862 1.98678367 -94.57348596 2.04703105 -91.75314713 1.94919968 C-90.65295242 1.90925385 -89.55275772 1.86930801 -88.41922379 1.8281517 C-87.20772659 1.78954529 -85.9962294 1.75093887 -84.74802017 1.71116257 C-82.84388351 1.64642494 -82.84388351 1.64642494 -80.90127945 1.58037949 C-76.68769584 1.43929039 -72.47376379 1.31092949 -68.25973892 1.18381882 C-67.54059689 1.16174866 -66.82145485 1.1396785 -66.08052063 1.11693954 C-44.05495449 0.44208597 -22.03613714 0.02945579 0 0 Z M8.84432602 30.26150131 C7.94629383 30.44493434 7.04826164 30.62836737 6.12301636 30.81735897 C5.43983212 30.95891572 4.75664787 31.10047247 4.05276108 31.24631882 C3.9826398 49.7702824 3.92975762 68.294219 3.89732456 86.81828785 C3.88186419 95.41958748 3.86079057 104.02080458 3.82644272 112.62205124 C3.79651492 120.12003032 3.77718004 127.61794962 3.77049559 135.11598676 C3.76658905 139.08513029 3.75742552 143.0541028 3.73557091 147.02319145 C3.71515226 150.76191064 3.70893808 154.50038898 3.71343803 158.23915863 C3.71222401 160.25960747 3.69611008 162.2800303 3.67950058 164.30041122 C3.70119308 170.68007327 3.78277859 175.6776014 7.05276108 181.24631882 C9.88204859 183.36126664 12.65951406 183.59080086 16.13088608 183.87913132 C17.61346909 184.00529831 17.61346909 184.00529831 19.12600327 184.13401413 C20.69849838 184.25147995 20.69849838 184.25147995 22.30276108 184.37131882 C23.37945053 184.45478561 24.45613998 184.53825241 25.56545639 184.6242485 C53.04447676 186.67186387 53.04447676 186.67186387 77.44338608 175.32053757 C81.61497823 171.34207468 84.4493833 167.36330272 87.05276108 162.24631882 C87.43440414 161.61306686 87.81604721 160.97981491 88.20925522 160.3273735 C91.74183996 154.41932331 93.66305347 148.59451155 95.30276108 141.93381882 C95.68778793 140.40325851 95.68778793 140.40325851 96.08059311 138.8417778 C97.76024032 131.95654421 99.00428548 125.35284135 99.05276108 118.24631882 C99.1088353 116.41133835 99.1088353 116.41133835 99.16604233 114.53928757 C99.74799758 89.76072408 94.16536048 65.83010171 76.86526108 47.30881882 C62.78193636 34.09094981 45.80498525 29.06998346 26.80276108 29.05881882 C25.72123764 29.04657272 24.6397142 29.03432663 23.52541733 29.02170944 C21.92246811 29.01880905 21.92246811 29.01880905 20.28713608 29.01585007 C18.85192612 29.00968674 18.85192612 29.00968674 17.38772202 29.0033989 C14.43286331 29.21863201 11.73945195 29.66646175 8.84432602 30.26150131 Z " fill="#000066" transform="translate(401.94723892211914,72.75368118286133)"/>
<path d="M0 0 C1.27501625 -0.02464577 1.27501625 -0.02464577 2.57579041 -0.04978943 C9.61341282 -0.14101614 16.31528177 1.3767386 22.3125 5.125 C25.31507858 8.31523974 26.3125 10.89095811 26.3125 15.25 C25.68794922 15.29487549 25.06339844 15.33975098 24.41992188 15.38598633 C21.5497209 15.59923313 18.68126276 15.83073609 15.8125 16.0625 C14.83023438 16.13275391 13.84796875 16.20300781 12.8359375 16.27539062 C5.77480607 16.86381824 -1.55454248 17.49469148 -6.5625 23.0625 C-10.3537175 28.74932625 -10.98146068 33.86913861 -10.94819641 40.58157349 C-10.95202196 41.4056334 -10.95584751 42.22969332 -10.95978898 43.07872474 C-10.97008501 45.83265924 -10.9661331 48.58638391 -10.9621582 51.34033203 C-10.96650697 53.3185953 -10.97169067 55.29685688 -10.97764587 57.27511597 C-10.99104015 62.647852 -10.99161327 68.02051768 -10.98908257 73.39326715 C-10.98801157 77.89013287 -10.99290038 82.38698444 -10.997688 86.88384712 C-11.00878807 97.50997787 -11.00922001 108.13607329 -11.00317383 118.76220703 C-10.99715463 129.68306862 -11.0093915 140.60380071 -11.0307439 151.5246402 C-11.04844255 160.92627818 -11.05434767 170.32787527 -11.05110615 179.72952926 C-11.04930375 185.33266266 -11.05182283 190.93570401 -11.06582069 196.53882217 C-11.07852668 201.82318596 -11.07633602 207.10735096 -11.06340981 212.39171219 C-11.06107068 214.31516084 -11.06368106 216.23862403 -11.07203293 218.16205597 C-11.13723514 234.36724926 -9.73672568 250.45085623 -5.375 266.125 C-5.16407715 266.89908203 -4.9531543 267.67316406 -4.73583984 268.47070312 C-1.47058103 280.00747459 3.36635117 290.44541466 10.3125 300.25 C10.90675781 301.10335938 11.50101563 301.95671875 12.11328125 302.8359375 C24.26162041 319.18463409 43.50068067 327.46738026 63.171875 330.625 C86.52549777 333.76498289 110.65785108 330.01613559 130.25 316.375 C151.50842708 299.76984182 160.96808836 275.62560853 164.32435036 249.50759602 C166.30766167 231.5750246 165.7482312 213.40314401 165.71547651 195.38911605 C165.70778702 189.82632638 165.71494965 184.26355027 165.71963501 178.70075989 C165.72505998 169.38047574 165.71798111 160.06026343 165.70361328 150.73999023 C165.68723057 139.98897759 165.69262907 129.23813519 165.7090925 118.48712653 C165.72272638 109.20925037 165.72461959 99.93142528 165.71677649 90.65354234 C165.71211844 85.1320134 165.71142472 79.61056445 165.72138596 74.08904076 C165.73008338 68.9086912 165.72398319 63.72856093 165.70670319 58.54823494 C165.70275584 56.65485879 165.70384215 54.76146399 165.71049118 52.8680954 C166.15279431 36.7558415 166.15279431 36.7558415 160.125 22.25 C151.55296858 16.15433322 141.46993725 16.16338608 131.3125 15.6875 C130.44238281 15.64431641 129.57226562 15.60113281 128.67578125 15.55664062 C126.55481781 15.45175782 124.43367567 15.35049925 122.3125 15.25 C122.3125 10.96 122.3125 6.67 122.3125 2.25 C125.57448767 1.16267078 128.12581683 1.04822163 131.56079102 0.94238281 C133.50150734 0.88132355 133.50150734 0.88132355 135.48143005 0.81903076 C136.90557544 0.77990682 138.32973474 0.74128646 139.75390625 0.703125 C140.48114962 0.68243202 141.20839298 0.66173904 141.95767403 0.64041901 C157.87710227 0.19072979 173.79519225 0.02955578 189.72045898 0.00976562 C192.76712614 0.00531878 195.81351988 -0.00886579 198.86010742 -0.03125 C238.61763071 -0.31694423 238.61763071 -0.31694423 251.3125 5.25 C250.44974077 9.92920007 248.03557353 12.42257152 244.3125 15.25 C241.625 16.0625 241.625 16.0625 238.3125 16.25 C236.58255136 16.3636665 234.85341218 16.4899678 233.125 16.625 C231.86623047 16.69847656 231.86623047 16.69847656 230.58203125 16.7734375 C225.7076507 17.48392069 221.04031777 18.8881117 216.3125 20.25 C211.29971172 57.15778382 209.87661305 93.25401435 210.74258423 130.47290039 C212.37688736 201.23230519 212.37688736 201.23230519 209.3125 234.25 C209.21598145 235.33490723 209.11946289 236.41981445 209.02001953 237.53759766 C205.82520717 271.92511002 193.92686706 300.77218976 169.3125 325.25 C168.50296875 326.05953125 167.6934375 326.8690625 166.859375 327.703125 C144.47698466 348.89969333 116.33843114 358.05592837 86.3125 361.25 C85.41442627 361.34571289 84.51635254 361.44142578 83.59106445 361.54003906 C45.92337621 365.27037362 2.77341608 360.6770409 -27.54296875 335.91796875 C-29.98089842 333.74651884 -32.35071474 331.52946789 -34.6875 329.25 C-35.986875 328.0125 -35.986875 328.0125 -37.3125 326.75 C-38.09625 325.925 -38.88 325.1 -39.6875 324.25 C-40.27917969 323.6415625 -40.87085937 323.033125 -41.48046875 322.40625 C-74.77051204 286.86252873 -75.90108022 231.47578829 -75.8125 185.8125 C-75.81194611 184.5361972 -75.81139221 183.25989441 -75.81082153 181.94491577 C-75.8015108 163.47771288 -75.54871751 145.02469817 -75.125 126.5625 C-74.29327796 91.83707987 -74.29327796 91.83707987 -77.22265625 57.26953125 C-77.98755573 51.43214046 -78.06870496 45.5209254 -78.16992188 39.63989258 C-78.34361845 33.9051219 -79.03003347 28.41869418 -81.6875 23.25 C-89.01401697 16.85482926 -99.37483833 16.7905714 -108.5625 16.1875 C-110.83100581 16.03398255 -113.09925767 15.87664771 -115.3671875 15.71484375 C-116.86354736 15.61610962 -116.86354736 15.61610962 -118.39013672 15.51538086 C-120.6875 15.25 -120.6875 15.25 -121.6875 14.25 C-121.75994053 12.23035801 -121.77127188 10.20832876 -121.75 8.1875 C-121.74097656 7.08277344 -121.73195313 5.97804688 -121.72265625 4.83984375 C-121.71105469 3.98519531 -121.69945313 3.13054687 -121.6875 2.25 C-120.73712357 2.23969254 -119.78674713 2.22938507 -118.80757141 2.21876526 C-109.70726803 2.11961531 -100.60701202 2.01679142 -91.5067873 1.91066074 C-86.83193491 1.85625089 -82.15707621 1.80299351 -77.48217773 1.75268555 C-57.53947143 1.53725215 -37.61477438 1.25892921 -17.68505859 0.47338867 C-11.79112893 0.24195703 -5.89743522 0.10386777 0 0 Z " fill="#000065" transform="translate(2717.6875,73.75)"/>
<path d="M0 0 C1.17906921 -0.00175232 2.35813843 -0.00350464 3.57293701 -0.00531006 C7.43731192 -0.00967946 11.30164032 -0.00680642 15.16601562 -0.00341797 C17.88106319 -0.0036415 20.59610997 -0.00506323 23.31115723 -0.00631714 C28.99325046 -0.00812976 34.67533063 -0.00575851 40.35742188 -0.00097656 C46.87153602 0.00444327 53.38561875 0.00271636 59.89973211 -0.00280297 C65.53930852 -0.00738538 71.17887563 -0.00795928 76.81845331 -0.0053643 C80.16569502 -0.00382668 83.51291062 -0.00394505 86.8601532 -0.00690079 C168.69756331 -0.06328231 168.69756331 -0.06328231 195.37695312 25.86767578 C196.46363281 26.98722656 196.46363281 26.98722656 197.57226562 28.12939453 C198.25546875 28.80357422 198.93867188 29.47775391 199.64257812 30.17236328 C215.46353086 46.70680997 221.02936731 66.66635962 220.78710938 89.05517578 C220.04728754 118.41369574 208.54753552 146.42347 187.57226562 167.12939453 C165.43756398 187.52071602 136.66464157 199.51001022 106.45507812 199.35986328 C100.35666687 198.99788515 94.08192571 197.88422458 88.57226562 195.12939453 C89.10829026 190.57318513 90.65587027 187.66052028 93.57226562 184.12939453 C96.82226562 183.21142578 96.82226562 183.21142578 100.57226562 182.94189453 C101.92430668 182.81134247 103.27588029 182.67586241 104.62695312 182.53564453 C105.92890625 182.40158203 107.23085937 182.26751953 108.57226562 182.12939453 C124.2405501 179.52439858 136.16096851 171.88535656 145.72070312 159.30126953 C155.14529735 145.21854253 159.66069272 128.9160955 160.57226562 112.12939453 C160.63027344 111.09814453 160.68828125 110.06689453 160.74804688 109.00439453 C161.24384101 89.79889544 156.96178916 71.41424567 146.57226562 55.12939453 C146.09660156 54.37658203 145.6209375 53.62376953 145.13085938 52.84814453 C136.03783953 39.90369523 121.95327713 31.49487665 106.578125 28.54663086 C100.4043394 27.68966208 94.17038824 27.6464682 87.94726562 27.50439453 C86.54750438 27.46611601 85.1477642 27.42705896 83.74804688 27.38720703 C80.35624677 27.29364013 76.96444219 27.20789645 73.57226562 27.12939453 C73.24748416 30.56583774 72.94023975 34.00368577 72.63476562 37.44189453 C72.54775391 38.36035156 72.46074219 39.27880859 72.37109375 40.22509766 C69.99151228 67.45808554 70.41469506 94.86286566 70.44189453 122.1706543 C70.44750655 127.8446048 70.44425533 133.5185075 70.43845749 139.19245625 C70.41769344 163.16785352 70.56338309 187.13454508 71.01757812 211.10595703 C71.04670099 212.69104978 71.04670099 212.69104978 71.0764122 214.3081646 C71.50182272 236.89746859 72.23759969 259.54018219 74.14648438 282.05908203 C74.52732955 286.7959826 74.58922503 291.43427142 74.45654297 296.18188477 C74.08090998 309.97170403 76.76043712 321.95969875 80.57226562 335.12939453 C94.75163377 339.19756979 108.8834968 340.29594115 123.57226562 341.12939453 C123.48141105 342.56798819 123.37080657 344.00534306 123.25195312 345.44189453 C123.19249512 346.24240234 123.13303711 347.04291016 123.07177734 347.86767578 C122.19909167 351.81907365 119.8975482 353.00121368 116.57226562 355.12939453 C112.51337004 356.48235973 108.76228027 356.3204845 104.50976562 356.31689453 C103.61797607 356.31681396 102.72618652 356.3167334 101.80737305 356.31665039 C94.41828825 356.25452427 87.21769561 355.54036657 79.89257812 354.64111328 C60.07832216 352.22484795 39.9039693 352.75563007 19.99023438 353.42626953 C16.68426741 353.53634397 13.3782908 353.646081 10.07226562 353.75439453 C9.25970306 353.78111237 8.4471405 353.8078302 7.60995483 353.83535767 C-4.87677206 354.22731209 -17.03748209 353.92702106 -29.42773438 352.12939453 C-29.42773438 348.49939453 -29.42773438 344.86939453 -29.42773438 341.12939453 C-27.86023438 341.04302734 -26.29273438 340.95666016 -24.67773438 340.86767578 C-22.59432261 340.72690472 -20.51099308 340.5849129 -18.42773438 340.44189453 C-17.39777344 340.38839844 -16.3678125 340.33490234 -15.30664062 340.27978516 C-6.94554225 339.66734801 -1.61512914 337.75284982 3.97070312 331.40283203 C10.18388107 318.70370248 8.93522064 301.22259863 9.64379883 287.25390625 C9.68733195 286.39924011 9.73086507 285.54457397 9.77571738 284.66400886 C10.83081737 263.35845502 10.8502946 242.06306519 10.80798507 220.73632288 C10.79898075 215.20734471 10.80096614 209.67836756 10.80134583 204.14938354 C10.80041962 194.89351962 10.79187447 185.63768918 10.77807617 176.38183594 C10.76229652 165.75921391 10.75708098 155.1366282 10.75781173 144.51399529 C10.75849222 133.06544534 10.75153241 121.61690891 10.74236512 110.16836309 C10.74025837 106.92415278 10.7395274 103.67994472 10.73912621 100.4357338 C10.76506469 73.16191012 10.76506469 73.16191012 10.24926758 45.89453125 C10.22743754 44.91283022 10.20560751 43.93112919 10.18311596 42.91967964 C9.90187689 35.59691284 8.6305715 28.63613788 4.88476562 22.25439453 C-2.69149192 15.29242814 -11.64758615 14.92657707 -21.50585938 14.78759766 C-27.59726506 14.53766403 -31.18842103 12.36870787 -35.42773438 8.12939453 C-35.05273438 5.50439453 -35.05273438 5.50439453 -34.42773438 3.12939453 C-23.00525375 0.52648412 -11.68478299 -0.02180118 0 0 Z " fill="#000065" transform="translate(35.427734375,74.87060546875)"/>
<path d="M0 0 C1.43928555 -0.00106076 2.87857089 -0.00244757 4.31785583 -0.00413513 C8.12190855 -0.00690395 11.92591842 -0.00260988 15.72996521 0.00403976 C18.0840968 0.0078284 20.43822439 0.00988246 22.7923584 0.01150513 C41.70176724 0.02690797 60.60697938 0.11077529 79.51171875 0.5703125 C80.36101959 0.58987 81.21032043 0.60942749 82.08535767 0.62957764 C84.41000531 0.68536941 86.73426448 0.74874886 89.05859375 0.81640625 C90.95109863 0.87139282 90.95109863 0.87139282 92.88183594 0.92749023 C95.76171875 1.1328125 95.76171875 1.1328125 97.76171875 2.1328125 C97.76171875 6.4228125 97.76171875 10.7128125 97.76171875 15.1328125 C96.26640625 15.23078125 94.77109375 15.32875 93.23046875 15.4296875 C91.24081885 15.57984976 89.25123889 15.73094073 87.26171875 15.8828125 C86.27945313 15.9446875 85.2971875 16.0065625 84.28515625 16.0703125 C76.79858957 16.66923783 70.80632743 18.08820382 65.38671875 23.5078125 C61.36504985 30.00435457 61.47305181 36.15788519 61.49429321 43.57310486 C61.48749654 45.31063809 61.48749654 45.31063809 61.48056257 47.08327299 C61.47010447 50.29024942 61.46859069 53.49708456 61.47095132 56.70407259 C61.47136002 60.16647035 61.46031494 63.62883485 61.45083618 67.09121704 C61.43423363 73.87331038 61.42872688 80.65536896 61.42761143 87.43748092 C61.42666013 92.95494899 61.42254573 98.47240562 61.41621017 103.98987007 C61.39859596 119.64963764 61.38937101 135.30937782 61.39087112 150.96915536 C61.39099099 152.23509607 61.39099099 152.23509607 61.39111328 153.52661133 C61.39123592 154.79410764 61.39123592 154.79410764 61.39136104 156.08720995 C61.39217289 169.76314571 61.37306124 183.43897104 61.34483655 197.11487489 C61.31605206 211.1736294 61.30229947 225.23233017 61.3040241 239.29111487 C61.30468632 247.17726239 61.29926855 255.06329432 61.277668 262.94941521 C61.25938231 269.66824855 61.25516867 276.38691397 61.26868685 283.10576152 C61.27518095 286.52845442 61.27546465 289.9508259 61.25798035 293.37348747 C61.06759994 311.67612066 61.06759994 311.67612066 64.90379906 329.43721867 C65.76171875 332.1328125 65.76171875 332.1328125 65.76171875 336.1328125 C80.31587838 340.00640021 94.75242967 341.2747402 109.76171875 342.1328125 C110.76171875 345.1328125 110.76171875 345.1328125 109.57421875 348.5703125 C107.3009174 353.0385255 105.56098142 355.53305828 100.76171875 357.1328125 C90.19046493 357.74632277 79.93216933 356.99793156 69.44921875 355.6328125 C47.30568452 352.84459349 24.68453915 353.55665438 2.4375 354.76977539 C-4.5586249 355.1425085 -11.54504076 355.27942992 -18.55078125 355.3203125 C-20.10019409 355.33964844 -20.10019409 355.33964844 -21.6809082 355.359375 C-27.84879069 355.36745145 -33.26832776 354.69799202 -39.23828125 353.1328125 C-40.34274949 349.57064484 -40.21505079 347.12859086 -38.58447266 343.66210938 C-35.70391757 340.38974865 -31.02377192 340.68884032 -26.92578125 340.3828125 C-18.17346397 339.68594197 -18.17346397 339.68594197 -10.23828125 336.1328125 C-0.13541374 323.43206477 -2.80542521 302.31051313 -2.83422852 287.20849609 C-2.83015692 284.49833782 -2.82165097 281.78819714 -2.81343079 279.07804871 C-2.79633355 272.51240492 -2.79538344 265.94685721 -2.80064369 259.38119696 C-2.8047022 254.04126773 -2.80322201 248.70136666 -2.79789543 243.36143875 C-2.7967728 242.21695478 -2.7967728 242.21695478 -2.79562749 241.04934991 C-2.79409586 239.49887842 -2.79255751 237.94840694 -2.79101252 236.39793546 C-2.77732136 221.89657125 -2.7827022 207.39526116 -2.79419773 192.8938982 C-2.80413555 179.65043449 -2.79117395 166.40711039 -2.76726354 153.1636682 C-2.74283896 139.53177646 -2.73327236 125.89994966 -2.73991627 112.26803648 C-2.74339987 104.62801462 -2.74123289 96.98810015 -2.72366524 89.34809494 C-2.70890149 82.84753453 -2.70836246 76.34715726 -2.72573615 69.84660028 C-2.73421294 66.53541028 -2.73428573 63.22481349 -2.72108459 59.91359901 C-1.72772766 40.19010545 -1.72772766 40.19010545 -8.65013981 22.33780479 C-13.26396466 18.12664785 -18.2512767 17.0094586 -24.31860352 16.60107422 C-31.80158581 16.07891052 -36.74331368 15.32216504 -42.0859375 9.59375 C-42.46621094 9.11164063 -42.84648437 8.62953125 -43.23828125 8.1328125 C-42.90828125 6.8128125 -42.57828125 5.4928125 -42.23828125 4.1328125 C-40.3671856 3.63861946 -38.49102115 3.1636271 -36.61328125 2.6953125 C-35.04707031 2.29505859 -35.04707031 2.29505859 -33.44921875 1.88671875 C-22.54731231 -0.36251026 -11.07776116 -0.01804666 0 0 Z " fill="#000065" transform="translate(2455.23828125,73.8671875)"/>
<path d="M0 0 C1.216875 0.061875 2.43375 0.12375 3.6875 0.1875 C4.71423828 0.23970703 4.71423828 0.23970703 5.76171875 0.29296875 C10.37844666 1.75130688 12.64260518 5.37438073 14.95703125 9.42578125 C15.58568343 10.71645355 16.20372286 12.01233504 16.8125 13.3125 C17.50623816 14.74622552 18.20025644 16.17981552 18.89453125 17.61328125 C19.41781006 18.70697021 19.41781006 18.70697021 19.95166016 19.82275391 C21.59471698 23.2351388 23.29876938 26.61635305 25 30 C25.66699257 31.33317033 26.33365848 32.66650414 27 34 C27.33 34.66 27.66 35.32 28 36 C43.140625 66.28125 43.140625 66.28125 44.05761719 68.12304688 C44.71149812 69.42538796 45.37425198 70.72329709 46.04394531 72.01757812 C48.14067419 76.10181094 49.8535407 80.11112793 51.25 84.5 C51.75273437 86.06234375 51.75273437 86.06234375 52.265625 87.65625 C52.50796875 88.4296875 52.7503125 89.203125 53 90 C56.14454827 86.2715647 58.69154888 82.37272906 61.0625 78.125 C61.44970215 77.43140381 61.8369043 76.73780762 62.23583984 76.02319336 C70.24372971 61.44068912 76.96672115 46.16935424 83.88128662 31.04806519 C84.53350925 29.62177636 85.18667665 28.19591911 85.84088135 26.77053833 C89.88265342 17.95209092 93.64058191 9.10563757 97 0 C100.3 0 103.6 0 107 0 C107.13575439 1.00675781 107.27150879 2.01351562 107.41137695 3.05078125 C107.92727902 6.86840481 108.44862787 10.68526967 108.97143555 14.50195312 C109.19487413 16.13847681 109.41693095 17.77518989 109.63745117 19.41210938 C110.864656 28.51411151 112.22831143 37.55109672 113.97926331 46.56787109 C114.96846044 51.69758977 115.66656113 56.81174649 116.25 62 C117.63966088 73.46419361 119.62315342 84.81790183 121.625 96.1875 C121.78311157 97.08782959 121.94122314 97.98815918 122.10412598 98.91577148 C122.55908729 101.50029128 123.01695451 104.08427153 123.4765625 106.66796875 C123.68422745 107.83999092 123.68422745 107.83999092 123.89608765 109.03569031 C124.48855353 115.34760584 124.48855353 115.34760584 127.703125 120.2109375 C130.42199967 121.14497268 132.88415123 121.42029652 135.75 121.625 C136.73484375 121.69976563 137.7196875 121.77453125 138.734375 121.8515625 C139.85585937 121.92503906 139.85585937 121.92503906 141 122 C140.67 123.32 140.34 124.64 140 126 C135.32313444 126.43245384 130.64581533 126.85948696 125.96801758 127.28173828 C124.38032024 127.42579607 122.79275108 127.57127452 121.20532227 127.71826172 C104.97104742 129.21963851 104.97104742 129.21963851 97 129 C97.02094727 128.2879541 97.04189453 127.5759082 97.06347656 126.84228516 C97.48479325 110.16827715 96.48744771 94.45564612 93.53466797 78.04785156 C92.67912503 73.17086614 91.9667169 68.27396558 91.25 63.375 C91.00567721 61.73690917 90.76093822 60.09888031 90.515625 58.4609375 C90.34546875 57.31882812 90.1753125 56.17671875 90 55 C83.79592081 62.30437529 80.65836199 71.2515306 77.23242188 80.09399414 C73.81428762 88.90010691 69.96175856 97.23008355 65.44165039 105.52636719 C63.24206915 109.57589891 61.27330616 113.53489893 59.6875 117.875 C58.16745068 121.8887708 56.60126849 124.46274265 53 127 C50.34121905 127.53735159 47.70510922 127.73224939 45 128 C44.18759766 126.37519531 43.37522678 124.75037488 42.56298828 123.12548828 C41.84312938 121.68610115 41.12273579 120.24698132 40.40185547 118.80810547 C38.60202404 115.21389428 36.80852504 111.61708318 35.0390625 108.0078125 C31.15831129 100.11933254 27.04807123 92.40409094 22.72900391 84.74658203 C19.45447235 78.90926329 16.41719365 72.97836628 13.51171875 66.94921875 C12.20484007 64.26316597 11.12905249 62.12905249 9 60 C6.32428333 79.97282474 3.95853801 99.94303643 2 120 C2.93070313 120.29648437 3.86140625 120.59296875 4.8203125 120.8984375 C7.86622505 121.95365536 10.30333878 123.25510156 13 125 C12.505 126.98 12.505 126.98 12 129 C-0.87 129 -13.74 129 -27 129 C-27 127.68 -27 126.36 -27 125 C-25.906875 124.46375 -24.81375 123.9275 -23.6875 123.375 C-19.7618297 121.44919947 -18.69475731 118.96866834 -17 115 C-16.28584054 112.02404293 -15.86747895 109.02716438 -15.45703125 105.99609375 C-15.32755096 105.10483292 -15.19807068 104.21357208 -15.06466675 103.29530334 C-14.63785558 100.3439707 -14.22533407 97.39081729 -13.8125 94.4375 C-13.5145964 92.3618111 -13.21550135 90.28629289 -12.9152832 88.2109375 C-12.44077097 84.92976274 -11.96706003 81.64849247 -11.49705505 78.3666687 C-10.31420622 70.11493129 -9.08714394 61.87054187 -7.8359375 53.62890625 C-7.65626938 52.44542099 -7.47660126 51.26193573 -7.29148865 50.04258728 C-6.58529261 45.39608876 -5.87780298 40.74978761 -5.1703186 36.10348511 C-3.34186528 24.08170003 -1.53469267 12.06334161 0 0 Z " fill="#000065" transform="translate(2418,554)"/>
<path d="M0 0 C11.78835243 12.27675875 16.13322457 28.68120997 15.98046875 45.3125 C14.82349458 64.34059304 8.36945647 81.41008837 -5.515625 94.625 C-30.53501781 115.62405996 -64.30577033 111.55696369 -94.55078125 109.41015625 C-96.67117953 109.26497466 -98.79162224 109.12044046 -100.91210938 108.9765625 C-106.02137359 108.62851463 -111.12996584 108.2718523 -116.23828125 107.91015625 C-116.05001831 105.55860901 -116.05001831 105.55860901 -115.23828125 102.91015625 C-112.99514771 101.69908142 -112.99514771 101.69908142 -110.25048828 100.53491211 C-107.38808793 98.62818547 -105.59409954 97.18659875 -104.65059662 93.80192947 C-103.69049506 86.88472924 -103.94533163 79.87927398 -104.04296875 72.9140625 C-104.03918006 70.63719059 -104.03098987 68.36032211 -104.01858521 66.08348083 C-103.99779873 60.10368998 -104.03667475 54.12572722 -104.08807373 48.1461792 C-104.12997752 42.03948818 -104.11532773 35.9329599 -104.10546875 29.82617188 C-104.09445923 17.85365101 -104.14649238 5.8822995 -104.23828125 -6.08984375 C-105.00809326 -6.39164551 -105.77790527 -6.69344727 -106.57104492 -7.00439453 C-109.3703391 -8.14358555 -111.92773907 -9.46485222 -114.55078125 -10.96484375 C-115.43378906 -11.45726562 -116.31679687 -11.9496875 -117.2265625 -12.45703125 C-117.89042969 -12.99585938 -118.55429688 -13.5346875 -119.23828125 -14.08984375 C-119.23828125 -15.40984375 -119.23828125 -16.72984375 -119.23828125 -18.08984375 C-23.30254097 -21.75717176 -23.30254097 -21.75717176 0 0 Z M-79.23828125 -5.08984375 C-79.35416759 7.06250714 -79.4429932 19.21472641 -79.49734211 31.36751747 C-79.52342791 37.01067253 -79.55880817 42.65344935 -79.61547852 48.29638672 C-79.6698334 53.74289031 -79.69970944 59.18903025 -79.71266747 64.63578415 C-79.72190101 66.71303405 -79.73993217 68.79026421 -79.76693153 70.86735916 C-79.80326757 73.77870835 -79.80822463 76.68855794 -79.8059082 79.60009766 C-79.82388458 80.45749542 -79.84186096 81.31489319 -79.86038208 82.19827271 C-79.82412008 86.41454705 -79.52922222 89.0813008 -76.82099915 92.41522217 C-70.94447396 98.09201056 -64.24030945 98.41545408 -56.36328125 98.28515625 C-55.47777588 98.27500488 -54.59227051 98.26485352 -53.67993164 98.25439453 C-47.43976539 98.10599718 -41.95945142 97.5592192 -36.23828125 94.91015625 C-35.34109375 94.51957031 -34.44390625 94.12898437 -33.51953125 93.7265625 C-23.76753655 88.99791672 -17.29294187 82.30138407 -13.23828125 72.22265625 C-7.46384037 55.25651551 -9.87387496 34.21084303 -17.5859375 18.09375 C-23.35866316 7.76441954 -31.79654395 1.9845937 -43.109375 -1.25390625 C-51.67282722 -3.44826325 -60.0196245 -4.39784548 -68.84765625 -4.69921875 C-69.85296387 -4.73901855 -70.85827148 -4.77881836 -71.89404297 -4.81982422 C-74.34195883 -4.91587799 -76.7899293 -5.00578257 -79.23828125 -5.08984375 Z " fill="#000066" transform="translate(3379.23828125,575.08984375)"/>
<path d="M0 0 C15.08287471 12.05338871 23.89324892 28.8199287 26.15966797 47.93261719 C26.24087891 48.87878906 26.32208984 49.82496094 26.40576172 50.79980469 C26.47666016 51.53972656 26.54755859 52.27964844 26.62060547 53.04199219 C27.38060056 69.15388813 21.40038638 85.36983157 10.84326172 97.42480469 C9.38436527 98.90341596 7.90729725 100.36451337 6.40576172 101.79980469 C5.89013672 102.34636719 5.37451172 102.89292969 4.84326172 103.45605469 C-6.33731247 114.40370024 -25.36334884 120.31528123 -40.59423828 120.79980469 C-41.22765137 120.82026855 -41.86106445 120.84073242 -42.51367188 120.86181641 C-62.5896471 121.42037998 -78.24120373 117.22795373 -93.39892578 103.12011719 C-106.8228089 88.53524959 -113.17646916 70.08506229 -112.84033203 50.56933594 C-111.67097766 32.65779683 -103.13074148 18.47724742 -90.09423828 6.48730469 C-65.22893039 -14.52623434 -27.13072976 -20.42491079 0 0 Z M-72.84814453 11.84277344 C-84.60659617 24.07762643 -84.04142907 38.66153937 -83.86767578 54.65917969 C-83.44852889 70.47056248 -79.30556395 83.78876655 -68.40673828 95.67480469 C-58.75093859 104.76941261 -47.03363526 108.27986527 -34.02783203 108.04589844 C-25.08870952 107.40521048 -16.77639043 103.55597772 -10.80126953 96.76074219 C1.24475156 79.92605593 -2.04965162 57.40435602 -5.18408203 38.18261719 C-7.66234929 25.95258824 -12.89121654 14.08098585 -23.53173828 6.98730469 C-38.87428847 -1.80870623 -59.81320948 0.02774565 -72.84814453 11.84277344 Z " fill="#000065" transform="translate(305.59423828125,565.2001953125)"/>
<path d="M0 0 C3.19473923 3.29779534 3.97684729 6.27016158 4.03759766 10.80908203 C3.99683105 11.86466309 3.95606445 12.92024414 3.9140625 14.0078125 C3.87023437 15.15894531 3.82640625 16.31007813 3.78125 17.49609375 C3.70390625 19.29240234 3.70390625 19.29240234 3.625 21.125 C3.58117187 22.33027344 3.53734375 23.53554688 3.4921875 24.77734375 C3.13006525 33.73986951 3.13006525 33.73986951 2 36 C-3.6461577 33.78186662 -5.99400038 29.04174934 -8.875 24 C-13.50094594 16.24406079 -19.3781972 12.32906197 -28 10 C-42.9099631 7.12801404 -60.05711623 5.73052244 -73.2109375 14.46875 C-82.4870672 21.77930575 -85.37359032 32.20384373 -86.77294922 43.55419922 C-88.58068444 63.02720076 -87.34883174 79.52460111 -74.8125 95.1875 C-67.02276837 103.67916349 -53.68390471 111.48859224 -41.984375 112.10644531 C-39.63438754 112.17014979 -37.2883181 112.18560265 -34.9375 112.1875 C-34.13505859 112.19974609 -33.33261719 112.21199219 -32.50585938 112.22460938 C-26.93668748 112.32711398 -26.93668748 112.32711398 -22 110 C-19.55994388 105.11988777 -20.68743969 97.63401554 -20.64990234 92.20581055 C-20.63331638 90.44525966 -20.60599146 88.68477683 -20.56787109 86.92456055 C-20.51322251 84.38815347 -20.49125139 81.85332193 -20.4765625 79.31640625 C-20.44255844 78.13504845 -20.44255844 78.13504845 -20.40786743 76.92982483 C-20.36125736 74.44640293 -20.36125736 74.44640293 -21 71 C-23.96787652 68.53449132 -26.50142397 67.63547254 -30.3125 67.3125 C-31.529375 67.209375 -32.74625 67.10625 -34 67 C-34 65.68 -34 64.36 -34 63 C-17.97136358 61.23992585 -2.13882406 59.79656944 14 60 C14.625 62.375 14.625 62.375 15 65 C13 67 13 67 11.0546875 67.1953125 C9.03645833 67.13020833 7.01822917 67.06510417 5 67 C5.01160156 67.82242188 5.02320313 68.64484375 5.03515625 69.4921875 C5.04417969 70.60851562 5.05320312 71.72484375 5.0625 72.875 C5.07410156 73.96554687 5.08570313 75.05609375 5.09765625 76.1796875 C5.02486239 79.02738318 4.84027305 81.71863475 4.52734375 84.5390625 C3.68024334 92.45183566 3.6117815 100.40962529 3.39453125 108.359375 C3.35714844 109.57109375 3.31976562 110.7828125 3.28125 112.03125 C3.25095703 113.13017578 3.22066406 114.22910156 3.18945312 115.36132812 C3 118 3 118 2 120 C-0.5595131 120.9476398 -3.07704104 121.78329303 -5.6875 122.5625 C-6.39583984 122.78357422 -7.10417969 123.00464844 -7.83398438 123.23242188 C-31.48906246 130.46218258 -64.72059029 127.45085546 -86.828125 116.14453125 C-102.43860317 107.05052013 -110.30733484 95.16955843 -115.01953125 78.1484375 C-119.40640883 60.82850027 -117.3686073 42.61455523 -108.890625 26.87890625 C-98.61031509 11.22479798 -83.18748187 0.44138395 -65 -3.875 C-63.00688903 -4.28504106 -61.00631252 -4.66038981 -59 -5 C-58.01 -5.18433594 -57.02 -5.36867188 -56 -5.55859375 C-39.62210239 -7.81235049 -14.38646675 -9.40653595 0 0 Z " fill="#000065" transform="translate(563,560)"/>
<path d="M0 0 C1.75727417 0.01015137 1.75727417 0.01015137 3.55004883 0.02050781 C31.67408645 0.35340537 31.67408645 0.35340537 41.375 8.4375 C42.93378372 11.62592124 42.77295722 12.02382222 41.875 15.265625 C40.60501024 20.45202829 40.31240975 25.49084399 40.125 30.8125 C40.08632812 31.72580078 40.04765625 32.63910156 40.0078125 33.58007812 C39.91469748 35.80319924 39.82887834 38.02633613 39.75 40.25 C38.43 40.58 37.11 40.91 35.75 41.25 C35.46914551 40.70585449 35.18829102 40.16170898 34.89892578 39.60107422 C28.51670897 26.21634119 28.51670897 26.21634119 17.52734375 17.0546875 C2.04765972 12.56971576 -14.32906279 12.963718 -28.6796875 20.53125 C-39.05765282 26.82092595 -43.54176853 35.75187205 -46.78051758 47.1105957 C-50.70324495 64.98623789 -45.83505823 83.15302668 -36.25 98.25 C-31.88700031 104.38641296 -26.72138956 108.47502276 -20.25 112.25 C-19.59 112.641875 -18.93 113.03375 -18.25 113.4375 C-7.89773478 119.11454867 5.3189787 119.99861937 16.6640625 116.98828125 C24.17372163 114.33036819 27.85173062 110.14567089 32.15234375 103.5625 C34.77169193 99.77116963 37.41557279 97.69480907 41.75 96.25 C43.24048803 101.20815407 42.35934107 105.68703356 41.5625 110.6875 C41.44841797 111.52087891 41.33433594 112.35425781 41.21679688 113.21289062 C40.20632732 119.70143879 38.23635739 124.06685693 33.1875 128.5 C24.09826895 133.1272449 13.53531652 132.56555019 3.57080078 132.51074219 C1.25396561 132.50001836 -1.06209446 132.5106943 -3.37890625 132.5234375 C-14.57901432 132.53617852 -24.94514279 131.82453324 -35.25 127.125 C-35.93006104 126.81933105 -36.61012207 126.51366211 -37.31079102 126.19873047 C-54.07459725 118.38182165 -66.76713984 105.25920622 -73.125 87.875 C-79.01471101 70.59591404 -77.55159537 52.42630255 -69.9375 35.9375 C-62.00992704 21.14906114 -49.91218909 10.96655003 -34.375 4.9375 C-33.76406494 4.69507568 -33.15312988 4.45265137 -32.52368164 4.20288086 C-22.08131673 0.38592346 -11.00924499 -0.0925616 0 0 Z " fill="#000065" transform="translate(1523.25,553.75)"/>
<path d="M0 0 C26.73 0 53.46 0 81 0 C81 8.58 81 17.16 81 26 C74.26530612 24.87755102 74.26530612 24.87755102 71 21 C70.47768799 20.14353882 70.47768799 20.14353882 69.94482422 19.26977539 C67.72044616 16.00017145 66.10037098 14.25734789 62.16894531 13.33789062 C58.79807855 13.08668395 55.50616574 13.03135023 52.125 13.0625 C46.123125 13.0315625 46.123125 13.0315625 40 13 C40 26.2 40 39.4 40 53 C55.69385257 53.22064874 55.69385257 53.22064874 70.21484375 50.65625 C73 50 73 50 77 50 C77 59.24 77 68.48 77 78 C76.01 78 75.02 78 74 78 C72.82911003 76.39640567 71.72447845 74.74404667 70.65625 73.0703125 C68.18537919 69.86293212 66.82833118 68.24666444 62.9140625 67.08105469 C59.40817122 66.79463228 56.01554475 66.76682939 52.5 66.875 C51.29601563 66.87242187 50.09203125 66.86984375 48.8515625 66.8671875 C45.89782758 66.8671875 42.9522255 66.91260698 40 67 C39.38809572 89.69276285 39.38809572 89.69276285 43 112 C60.10371881 114.37690061 60.10371881 114.37690061 76 109 C77.85916824 106.03292954 77.85916824 106.03292954 79 103 C81.95526934 100.783548 83.28746836 100 87 100 C86.52711274 105.48549222 85.73475676 110.84296781 84.6875 116.25 C84.35298828 117.99023438 84.35298828 117.99023438 84.01171875 119.765625 C82.90594526 123.30068464 81.52773103 125.32070289 79 128 C75.96356834 129.51821583 72.82910623 129.18448996 69.5 129.1875 C68.84902344 129.19974609 68.19804687 129.21199219 67.52734375 129.22460938 C62.19548894 129.23933826 56.98154799 128.6699868 51.6953125 128.02734375 C41.59677999 126.82161899 31.53552799 126.55786665 21.375 126.375 C19.57810919 126.33667153 17.78123382 126.29761221 15.984375 126.2578125 C11.65638054 126.16349637 7.32830168 126.07890634 3 126 C2.67 124.68 2.34 123.36 2 122 C3.6209213 120.82767315 5.24686833 119.6622923 6.875 118.5 C8.23238281 117.52546875 8.23238281 117.52546875 9.6171875 116.53125 C12 115 12 115 14 115 C14.0232884 103.52452241 14.04099851 92.04905055 14.05181217 80.57355404 C14.05700518 75.24360754 14.06403687 69.91367735 14.07543945 64.58374023 C14.08639676 59.42900497 14.09230373 54.27428528 14.09487724 49.11953926 C14.09670855 47.16421832 14.10028399 45.20889812 14.10573006 43.25358391 C14.13549679 32.11154355 13.88812242 21.10921303 13 10 C8.71 8.02 4.42 6.04 0 4 C0 2.68 0 1.36 0 0 Z " fill="#000066" transform="translate(3057,557)"/>
<path d="M0 0 C0.91942383 0.00080566 1.83884766 0.00161133 2.78613281 0.00244141 C10.20261645 0.06849811 17.72525631 0.30301052 24.9375 2.1875 C27.16638246 6.64526491 26.16742729 12.7297677 26.1875 17.625 C26.208125 18.87861328 26.22875 20.13222656 26.25 21.42382812 C26.25773438 23.22303711 26.25773438 23.22303711 26.265625 25.05859375 C26.2749707 26.16130615 26.28431641 27.26401855 26.29394531 28.40014648 C25.9375 31.1875 25.9375 31.1875 24.41699219 33.07055664 C23.92875977 33.43914795 23.44052734 33.80773926 22.9375 34.1875 C18.01141672 28.75617741 13.90549089 22.93377751 9.79296875 16.8828125 C8.18948421 14.37898932 8.18948421 14.37898932 6.9375 13.1875 C-0.03233474 12.84472124 -7.37217342 13.0578465 -14.0625 15.1875 C-17.03313875 18.3652421 -17.98302167 20.8161921 -18.0625 25.1875 C-14.99878207 38.43655834 -5.85149187 45.84802325 4.55810547 53.66064453 C14.93949797 61.49537509 25.00475246 69.43409236 28.5703125 82.5078125 C30.18587862 94.29800781 28.02944874 107.77812077 21.125 117.5625 C14.99558558 124.97015914 8.56923213 129.60363092 -1.0625 131.1875 C-5.28942626 131.40713332 -9.51790825 131.37263438 -13.75 131.375 C-14.88373047 131.38724609 -16.01746094 131.39949219 -17.18554688 131.41210938 C-33.97180112 131.4411346 -33.97180112 131.4411346 -40.0625 127 C-44.91353041 120.17823849 -44.31180115 112.8056704 -44.1875 104.75 C-44.17847656 103.63689453 -44.16945313 102.52378906 -44.16015625 101.37695312 C-44.1367224 98.64690977 -44.103914 95.9173199 -44.0625 93.1875 C-40.7625 93.1875 -37.4625 93.1875 -34.0625 93.1875 C-33.89234375 94.20070313 -33.7221875 95.21390625 -33.546875 96.2578125 C-33.30281887 97.60950801 -33.05798568 98.96106338 -32.8125 100.3125 C-32.70292969 100.97765625 -32.59335937 101.6428125 -32.48046875 102.328125 C-31.50454787 107.56727922 -29.85659619 112.24749435 -25.2734375 115.4296875 C-16.99438062 118.28331987 -9.3470908 117.71500228 -1.0625 115.1875 C-0.11375 114.94 0.835 114.6925 1.8125 114.4375 C4.17534741 113.30701419 4.17534741 113.30701419 5.25 110.5625 C7.12805423 101.34296103 4.88818208 95.56773471 0.9375 87.1875 C0.48503906 86.08148437 0.48503906 86.08148437 0.0234375 84.953125 C-1.37357158 82.68172894 -2.65564443 82.31348982 -5.0625 81.1875 C-7.0918365 79.62054397 -9.05274707 78.03792472 -11 76.375 C-11.56412598 75.89361572 -12.12825195 75.41223145 -12.70947266 74.91625977 C-38.91012789 52.24554604 -38.91012789 52.24554604 -40.26489258 39.24536133 C-40.77489112 28.45693069 -40.51529485 20.24341202 -33.625 11.5625 C-24.28824054 1.60558677 -12.97895866 -0.0117862 0 0 Z " fill="#000065" transform="translate(912.0625,554.8125)"/>
<path d="M0 0 C1.15218018 -0.0009668 1.15218018 -0.0009668 2.32763672 -0.00195312 C10.17157413 0.06875641 17.74080492 1.05888981 25.5 2.1875 C25.5 11.7575 25.5 21.3275 25.5 31.1875 C19.5 30.1875 19.5 30.1875 17.8125 28.5859375 C17.379375 27.91820312 16.94625 27.25046875 16.5 26.5625 C15.99597656 25.84578125 15.49195313 25.1290625 14.97265625 24.390625 C14.04216823 22.99859518 13.13054048 21.59360245 12.24609375 20.171875 C9.95178719 16.91190508 8.376621 15.44233169 4.4765625 14.30859375 C1.14718969 13.76385655 -2.13761691 13.44452427 -5.5 13.1875 C-6.758125 12.94 -8.01625 12.6925 -9.3125 12.4375 C-14.11556051 13.56763188 -16.3412999 16.27971459 -19.203125 20.1953125 C-20.80151626 23.88316702 -20.58384933 25.49457384 -19.4375 29.3125 C-15.32227993 38.61028828 -9.17307236 43.5942475 -0.97827148 49.27050781 C11.150462 57.73607176 24.97792709 69.12969929 28.12890625 84.2109375 C29.67142787 96.58358462 28.88268534 106.58270408 21.55078125 116.94140625 C15.22546054 124.56131683 7.50301076 130.07605436 -2.5 131.1875 C-16.43126486 131.98453449 -29.80310217 130.65912066 -43.5 128.1875 C-42.59583816 119.45520013 -41.38048217 110.84299572 -39.5625 102.25 C-39.40491211 101.46318848 -39.24732422 100.67637695 -39.08496094 99.86572266 C-38.59765625 97.66015625 -38.59765625 97.66015625 -37.5 94.1875 C-36.015 93.6925 -36.015 93.6925 -34.5 93.1875 C-33.39175299 95.40399402 -33.37275447 96.73241056 -33.25 99.1875 C-32.57891058 105.98640594 -29.23384692 111.58672962 -25.5 117.1875 C-22.12685961 117.84925289 -18.68025231 117.65039218 -15.25 117.625 C-14.30769531 117.64498047 -13.36539062 117.66496094 -12.39453125 117.68554688 C-6.53549825 117.68143816 -3.14372686 117.07838023 1.5 113.1875 C2.28117187 112.72214844 3.06234375 112.25679687 3.8671875 111.77734375 C5.74396928 110.26932513 5.74396928 110.26932513 5.8828125 107.69140625 C4.86333257 96.06006705 0.53025456 87.23795559 -8.015625 79.265625 C-11.45541821 76.3883137 -15.06927829 73.80279438 -18.7265625 71.2109375 C-30.22100247 62.82485313 -38.19760659 53.5582722 -40.5 39.1875 C-41.40634545 28.65123416 -40.2440433 19.61755412 -33.5 11.1875 C-24.42641291 1.50738971 -12.66072881 -0.01120666 0 0 Z " fill="#000065" transform="translate(1727.5,554.8125)"/>
<path d="M0 0 C17.16 0 34.32 0 52 0 C51 5 51 5 48.34765625 7.01953125 C47.26355469 7.61121094 46.17945313 8.20289063 45.0625 8.8125 C43.98097656 9.41707031 42.89945313 10.02164063 41.78515625 10.64453125 C39 12 39 12 37 12 C37.06130252 23.46615027 37.13847478 34.93207464 37.23571491 46.39797974 C37.28037658 51.72249834 37.31964207 57.04694116 37.34643555 62.37158203 C37.3725103 67.51347371 37.41294246 72.65507314 37.46318626 77.79678345 C37.47982673 79.75505936 37.49135853 81.71338579 37.49761391 83.67172241 C37.50728566 86.4220824 37.53538159 89.17169944 37.56762695 91.921875 C37.56619186 92.72532852 37.56475677 93.52878204 37.5632782 94.35658264 C37.65381561 99.84347693 38.68555622 104.00038005 41 109 C45.13622391 111.94073919 48.71108978 112.39704334 53.7109375 112.51171875 C55.57685547 112.56489258 55.57685547 112.56489258 57.48046875 112.61914062 C58.76566406 112.64169922 60.05085938 112.66425781 61.375 112.6875 C62.68339844 112.72166016 63.99179687 112.75582031 65.33984375 112.79101562 C68.55981025 112.87327754 71.77951179 112.94250263 75 113 C75.18828369 112.31292969 75.37656738 111.62585938 75.57055664 110.91796875 C75.82699951 110.01691406 76.08344238 109.11585938 76.34765625 108.1875 C76.59781494 107.29417969 76.84797363 106.40085937 77.10571289 105.48046875 C78.90351379 100.49393937 82.41503995 98.18053302 87 96 C87.420909 107.5516137 86.95920295 117.70683127 81 128 C80 129 80 129 76.24414062 129.03759766 C74.54805512 129.00179317 72.85208745 128.96014224 71.15625 128.9140625 C70.24789902 128.89318573 69.33954803 128.87230896 68.40367126 128.85079956 C65.43562275 128.78091116 62.46783792 128.70328965 59.5 128.625 C57.47404401 128.57469653 55.44808371 128.52456639 53.42211914 128.47460938 C42.75883254 128.20591292 32.09630905 127.91243481 21.4375 127.5 C20.509375 127.46471191 19.58125 127.42942383 18.625 127.39306641 C12.3957193 127.12811372 6.20434008 126.61204073 0 126 C0 124.68 0 123.36 0 122 C1.64453125 120.55078125 1.64453125 120.55078125 3.8125 119.3125 C4.52019531 118.89613281 5.22789063 118.47976563 5.95703125 118.05078125 C8 117 8 117 11 116 C11 81.02 11 46.04 11 10 C7.37 8.02 3.74 6.04 0 4 C0 2.68 0 1.36 0 0 Z " fill="#000066" transform="translate(0,557)"/>
<path d="M0 0 C1.1859375 0.13277344 2.371875 0.26554688 3.59375 0.40234375 C5.22914568 0.58092144 6.8645636 0.75929557 8.5 0.9375 C9.65822266 1.06801758 9.65822266 1.06801758 10.83984375 1.20117188 C24.88832165 2.71840749 38.85449981 3.1453889 52.96875 3.09765625 C54.62740028 3.09578474 56.28605112 3.09436432 57.94470215 3.09336853 C62.25174562 3.08960093 66.55875387 3.07982188 70.86578369 3.06866455 C75.28421553 3.05832461 79.70265322 3.05384431 84.12109375 3.04882812 C92.74741177 3.03819273 101.37370147 3.02118811 110 3 C109.71682059 6.04267238 109.42376386 9.08385141 109.125 12.125 C109.04636719 12.9809375 108.96773437 13.836875 108.88671875 14.71875 C108.41779282 19.40800928 107.72786571 23.57143661 106 28 C102.16076124 26.43586569 99.90063768 23.90063768 97 21 C92.16224243 17.6135697 87.72771832 16.9330922 81.91796875 16.68359375 C80.52094727 16.62075195 80.52094727 16.62075195 79.09570312 16.55664062 C78.13599609 16.51732422 77.17628906 16.47800781 76.1875 16.4375 C75.20845703 16.39431641 74.22941406 16.35113281 73.22070312 16.30664062 C70.81392973 16.2009774 68.40706017 16.09887673 66 16 C66.08472215 27.51013193 66.17972658 39.02013006 66.28752708 50.5300703 C66.33727781 55.87573384 66.3836082 61.22137962 66.421875 66.56713867 C66.4589978 71.73492829 66.5054276 76.90256117 66.55806351 82.07021523 C66.57646511 84.03274066 66.59162437 85.9952995 66.60334396 87.95787621 C66.16299318 103.70277473 66.16299318 103.70277473 69 119 C72.1113397 121.13724547 75.02818795 121.35915628 78.75 121.625 C79.73484375 121.69976563 80.7196875 121.77453125 81.734375 121.8515625 C82.48203125 121.90054688 83.2296875 121.94953125 84 122 C83.505 123.98 83.505 123.98 83 126 C69.14 126 55.28 126 41 126 C39.64049941 121.92149824 40.40819993 118.30795578 40.91162109 114.12402344 C42.08752009 103.40635475 42.34606317 92.78884661 42.4140625 82.015625 C42.43284038 80.09364046 42.45241829 78.17166358 42.4727478 76.24969482 C42.52337759 71.26544791 42.56336631 66.28117446 42.60089111 61.29681396 C42.64137252 56.180886 42.69225991 51.0650617 42.7421875 45.94921875 C42.83812423 35.96621939 42.92278335 25.98316052 43 16 C39.35331493 16.08186159 35.70818413 16.19461028 32.0625 16.3125 C31.04091797 16.33505859 30.01933594 16.35761719 28.96679688 16.38085938 C17.90258931 16.76969734 10.21772549 19.52692814 1.75 26.75 C-1 29 -1 29 -3 29 C-3.42511001 18.78161497 -2.33378839 9.91860067 0 0 Z " fill="#000065" transform="translate(1056,554)"/>
<path d="M0 0 C1.90458984 0.19916016 1.90458984 0.19916016 3.84765625 0.40234375 C5.5859232 0.58086846 7.32420529 0.75924578 9.0625 0.9375 C9.89072266 1.02451172 10.71894531 1.11152344 11.57226562 1.20117188 C25.36991223 2.60696983 39.01377661 3.14436203 52.87109375 3.09765625 C54.53117327 3.09578524 56.19125335 3.09436458 57.85133362 3.09336853 C62.16661167 3.08959702 66.48185469 3.07981433 70.79711914 3.06866455 C75.22216315 3.05833331 79.64721296 3.05384612 84.07226562 3.04882812 C92.71485962 3.03818578 101.35742542 3.02117607 110 3 C109.85917551 5.0354161 109.7137263 7.07051247 109.56640625 9.10546875 C109.48592041 10.23879639 109.40543457 11.37212402 109.32250977 12.53979492 C108.86715355 17.4253087 107.99115571 22.1981874 107 27 C105.515 27.495 105.515 27.495 104 28 C103.63648437 27.52949219 103.27296875 27.05898438 102.8984375 26.57421875 C98.35642068 20.94910561 94.20807218 18.22996208 87 17 C85.30842606 16.86081463 83.61369627 16.7564164 81.91796875 16.68359375 C80.52094727 16.62075195 80.52094727 16.62075195 79.09570312 16.55664062 C78.13599609 16.51732422 77.17628906 16.47800781 76.1875 16.4375 C75.20845703 16.39431641 74.22941406 16.35113281 73.22070312 16.30664062 C70.81392973 16.2009774 68.40706017 16.09887673 66 16 C66.08460055 27.30117992 66.17955969 38.60222172 66.28752708 49.90320396 C66.33734671 55.1514258 66.38367747 60.3996289 66.421875 65.64794922 C66.45890953 70.71847061 66.50531758 75.78882953 66.55806351 80.85921097 C66.57651133 82.78793089 66.59165425 84.7166855 66.60334396 86.64545822 C66.49506896 98.15432798 66.49506896 98.15432798 68.02587891 109.51416016 C69 114 69 114 69 126 C59.76 126 50.52 126 41 126 C40.95875 123.64875 40.9175 121.2975 40.875 118.875 C40.85679199 118.16714355 40.83858398 117.45928711 40.81982422 116.72998047 C40.78413435 112.33782349 41.26096197 108.20669995 41.98632812 103.875 C43.28570629 94.96383202 43.35319292 86.12450135 43.4140625 77.1328125 C43.43281983 75.35919338 43.45239645 73.58558275 43.4727478 71.8119812 C43.52359362 67.1926174 43.5634705 62.57322481 43.60089111 57.95373535 C43.64123271 53.22038942 43.69218582 48.48715825 43.7421875 43.75390625 C43.83838201 34.50268535 43.92296337 25.25139891 44 16 C40.5202594 16.11135894 37.04146066 16.24162132 33.5625 16.375 C32.58861328 16.4059375 31.61472656 16.436875 30.61132812 16.46875 C17.64194389 16.9892604 10.34646427 19.74240893 0.734375 28.609375 C-1 30 -1 30 -3 30 C-3.44133265 19.53878173 -2.22066559 10.17805063 0 0 Z " fill="#000066" transform="translate(2837,554)"/>
<path d="M0 0 C24.75 0.495 24.75 0.495 50 1 C50 2.32 50 3.64 50 5 C49.32453125 5.03738281 48.6490625 5.07476563 47.953125 5.11328125 C47.06109375 5.17902344 46.1690625 5.24476563 45.25 5.3125 C44.36828125 5.37050781 43.4865625 5.42851563 42.578125 5.48828125 C39.5614249 6.08705051 38.22752506 6.89568785 36 9 C35.45839763 11.18435016 35.45839763 11.18435016 35.62915039 13.65649414 C35.65288979 15.09018593 35.65288979 15.09018593 35.67710876 16.55284119 C35.71276443 17.59888016 35.7484201 18.64491913 35.78515625 19.72265625 C35.82489459 22.00401684 35.86136402 24.2854361 35.89501953 26.56689453 C35.9165509 27.77758606 35.93808228 28.98827759 35.96026611 30.23565674 C36.02783827 36.63736601 35.88167449 43.03349763 35.74609375 49.43359375 C35.6957284 52.08658409 35.64559981 54.73957893 35.59570312 57.39257812 C35.51742389 61.44741162 35.43647454 65.50217961 35.35180664 69.55688477 C35.29549477 72.26395012 35.24238032 74.97104382 35.19264221 77.67823792 C35.14636175 80.18821011 35.09551231 82.69810401 35.03916931 85.20787048 C34.36721293 97.53517326 34.36721293 97.53517326 38 109 C40.9528472 110.4764236 43.68448983 110.22272939 46.9765625 110.31640625 C48.00443375 110.3475779 48.00443375 110.3475779 49.05307007 110.37937927 C51.24361069 110.44480185 53.43427189 110.50372554 55.625 110.5625 C57.1093875 110.60569218 58.59376278 110.6493067 60.078125 110.69335938 C63.71862084 110.80047553 67.35925251 110.90176362 71 111 C71.2990625 110.05253906 71.598125 109.10507812 71.90625 108.12890625 C72.95197056 105.13739851 74.09116723 103.46557566 76 101 C76.71162443 99.35202764 77.39031953 97.68834592 78 96 C78.66 96 79.32 96 80 96 C80 96.66 80 97.32 80 98 C81.485 98.495 81.485 98.495 83 99 C83 106.92 83 114.84 83 123 C74.62447643 127.18776179 65.04187164 126.19618212 55.875 126.1875 C55.09974976 126.1882251 54.32449951 126.1889502 53.52575684 126.18969727 C35.3134853 126.18783688 17.16857156 125.18067454 -1 124 C-1.33 122.68 -1.66 121.36 -2 120 C-0.60026042 119.08854167 0.79947917 118.17708333 2.19921875 117.265625 C2.79347656 116.84796875 3.38773438 116.4303125 4 116 C4.8471608 115.5144162 5.69432159 115.0288324 6.56715393 114.52853394 C10.20536247 110.74722863 9.73868002 107.35122425 9.72631836 102.27783203 C9.75150795 100.79911621 9.75150795 100.79911621 9.77720642 99.29052734 C9.82472997 96.02930266 9.83446953 92.76936194 9.83984375 89.5078125 C9.85590853 87.2410326 9.87272904 84.97425794 9.89027405 82.70748901 C9.92022391 77.95444725 9.9294744 73.20185995 9.92651367 68.44873047 C9.92600548 62.35894696 9.99426228 56.27207779 10.08037472 50.18298531 C10.13598338 45.50054559 10.14610972 40.8188102 10.14346504 36.13607407 C10.14936469 33.89131496 10.17147918 31.64653757 10.21012688 29.40210342 C11.00291301 17.60682294 11.00291301 17.60682294 6.69607544 7.26361084 C4.12070315 5.69502016 1.92405872 4.6978838 -1 4 C-0.67 2.68 -0.34 1.36 0 0 Z " fill="#000065" transform="translate(2030,559)"/>
<path d="M0 0 C15.84 0 31.68 0 48 0 C47 5 47 5 45.00390625 6.58203125 C44.19824219 6.98808594 43.39257812 7.39414062 42.5625 7.8125 C41.75941406 8.23144531 40.95632812 8.65039062 40.12890625 9.08203125 C38 10 38 10 36 10 C36.33 44.98 36.66 79.96 37 116 C40.6249797 117.81248985 42.37259584 118.31888915 46.25 118.625 C47.14203125 118.69976563 48.0340625 118.77453125 48.953125 118.8515625 C49.96632813 118.92503906 49.96632813 118.92503906 51 119 C51 120.32 51 121.64 51 123 C45.18365014 123.4314357 39.36700313 123.85853002 33.55004883 124.28173828 C31.574377 124.42607518 29.59878894 124.57156389 27.62329102 124.71826172 C24.77121293 124.92984662 21.91885158 125.13718214 19.06640625 125.34375 C18.19415909 125.40937134 17.32191193 125.47499268 16.42323303 125.54260254 C10.93336143 125.93505349 5.50405534 126.05832112 0 126 C-0.33 124.68 -0.66 123.36 -1 122 C-0.22288666 121.68716064 0.55422668 121.37432129 1.35488892 121.05200195 C5.6846874 118.74628377 9.18617994 116.6447963 10.66576385 111.83636475 C11.75794461 105.01117321 11.54042281 98.07811554 11.4609375 91.1875 C11.4683536 88.93122087 11.47903451 86.67495032 11.49282837 84.41870117 C11.50901839 79.69722555 11.48557282 74.97804406 11.43408203 70.25683594 C11.37139657 64.21603326 11.40749863 58.18060496 11.47337914 52.13999939 C11.51320513 47.48294861 11.50044512 42.82716421 11.47197342 38.17007446 C11.46465597 35.9438106 11.47356946 33.71743028 11.4992485 31.49130249 C12.25397351 19.32895553 12.25397351 19.32895553 7.45343018 8.81396484 C4.6961703 6.78569165 2.16812584 5.27537953 -1 4 C-0.67 2.68 -0.34 1.36 0 0 Z " fill="#000066" transform="translate(2673,557)"/>
<path d="M0 0 C13.69096943 -0.16741675 27.32550669 0.3507249 41 1 C40.46833235 4.95797026 40.36357747 5.71377944 37.0625 8.3125 C34 10 34 10 32 10 C32.495 10.99 32.495 10.99 33 12 C33.09890463 13.35104476 33.13770684 14.7067596 33.14476013 16.06140137 C33.15165863 16.91108994 33.15855713 17.7607785 33.16566467 18.63621521 C33.16827805 19.57030716 33.17089142 20.50439911 33.17358398 21.46679688 C33.180271 22.44898697 33.18695801 23.43117706 33.19384766 24.44313049 C33.20791888 26.58044686 33.2198063 28.71777845 33.22979546 30.8551178 C33.24616367 34.23318011 33.26939838 37.61112922 33.29469299 40.98913574 C33.36559435 50.59507646 33.42569259 60.20106291 33.47680664 69.80712891 C33.5085244 75.67741113 33.54977925 81.54756289 33.59700203 87.41773987 C33.6130633 89.66009687 33.62536566 91.90248395 33.63390923 94.1448822 C33.64600671 97.27445801 33.67013188 100.40372461 33.69702148 103.53320312 C33.69761063 104.46729507 33.69819977 105.40138702 33.69880676 106.36378479 C33.71338425 107.63831764 33.71338425 107.63831764 33.72825623 108.93859863 C33.73248816 109.67896614 33.7367201 110.41933365 33.74108028 111.18213654 C33.85007224 113.25029506 33.85007224 113.25029506 36 115 C38.65719837 115.68177998 38.65719837 115.68177998 41.625 116.125 C42.62789062 116.29257812 43.63078125 116.46015625 44.6640625 116.6328125 C45.82035156 116.81457031 45.82035156 116.81457031 47 117 C47 118.32 47 119.64 47 121 C31.49 121.33 15.98 121.66 0 122 C-0.33 120.68 -0.66 119.36 -1 118 C3.625 114 3.625 114 7 114 C7 79.02 7 44.04 7 8 C4.525 7.01 4.525 7.01 2 6 C1.01 5.34 0.02 4.68 -1 4 C-0.67 2.68 -0.34 1.36 0 0 Z " fill="#000063" transform="translate(1283,559)"/>
<path d="M0 0 C-0.18754578 2.34815979 -0.18754578 2.34815979 -1 5 C-3.24958801 6.24156189 -3.24958801 6.24156189 -5.99926758 7.42944336 C-8.81262355 9.30312409 -10.63689542 10.70938505 -11.57375717 14.03935623 C-12.48155615 20.69515883 -12.169222 27.43183252 -12.01171875 34.12890625 C-11.99559023 36.32410527 -11.98375766 38.51933969 -11.97602844 40.71458435 C-11.94357772 46.48538801 -11.85025283 52.25368919 -11.74493408 58.02355957 C-11.64973064 63.88975058 -11.6168027 69.75627299 -11.57617188 75.62304688 C-11.50482161 84.19649893 -11.41768034 92.76949792 -11.2722168 101.34204102 C-11.25404404 102.68177223 -11.25404404 102.68177223 -11.23550415 104.04856873 C-11.21176476 105.2952684 -11.21176476 105.2952684 -11.18754578 106.56715393 C-11.17547938 107.28259149 -11.16341299 107.99802904 -11.15098095 108.73514652 C-10.96596715 111.51052416 -10.45728196 114.25630826 -10 117 C-5.71 117.66 -1.42 118.32 3 119 C2.505 120.98 2.505 120.98 2 123 C-12.85 122.67 -27.7 122.34 -43 122 C-43 120.68 -43 119.36 -43 118 C-41.78251572 117.43767921 -41.78251572 117.43767921 -40.54043579 116.86399841 C-37.86214469 115.315441 -37.86214469 115.315441 -37.52451706 113.08882332 C-37.34645236 110.44087826 -37.32491247 107.82998553 -37.35302734 105.17602539 C-37.34426575 104.16764114 -37.33550415 103.1592569 -37.32647705 102.12031555 C-37.30442747 98.77899446 -37.31905741 95.43899136 -37.3359375 92.09765625 C-37.33257072 89.77981817 -37.32771927 87.46198181 -37.32144165 85.14414978 C-37.31406252 80.28253396 -37.32480887 75.421377 -37.34814453 70.55981445 C-37.37661631 64.32378342 -37.36024394 58.08882897 -37.33028221 51.85283756 C-37.31222419 47.0650164 -37.31796083 42.27745093 -37.33092117 37.48962212 C-37.33426011 35.19028026 -37.33015106 32.8909153 -37.31852341 30.59160042 C-37.30584175 27.37823042 -37.32515675 24.16660872 -37.35302734 20.95336914 C-37.34290619 19.99998657 -37.33278503 19.046604 -37.32235718 18.06433105 C-37.31633315 12.66608915 -37.31633315 12.66608915 -40.54043579 8.50291443 C-41.35209198 8.00695267 -42.16374817 7.51099091 -43 7 C-43 6.34 -43 5.68 -43 5 C-37.84119513 4.2827575 -32.6816926 3.57084504 -27.52148438 2.86376953 C-25.76770385 2.6227056 -24.01411949 2.38020994 -22.26074219 2.13623047 C-19.73423194 1.78492797 -17.20705107 1.43885311 -14.6796875 1.09375 C-13.90132538 0.9843811 -13.12296326 0.87501221 -12.3210144 0.7623291 C-8.1781781 0.20214365 -4.19298438 -0.11663378 0 0 Z " fill="#000066" transform="translate(743,557)"/>
<path d="M0 0 C0.495 1.98 0.495 1.98 1 4 C0.31292969 4.47050781 -0.37414063 4.94101562 -1.08203125 5.42578125 C-2.43361328 6.35970703 -2.43361328 6.35970703 -3.8125 7.3125 C-4.70582031 7.92738281 -5.59914063 8.54226563 -6.51953125 9.17578125 C-10.54288321 12.13468734 -12.43127703 14.19717507 -14 19 C-14.18748115 21.47001065 -14.26599397 23.94916906 -14.2746582 26.42626953 C-14.27976913 27.15725861 -14.28488007 27.88824768 -14.29014587 28.64138794 C-14.30402499 31.05528 -14.3030837 33.46888527 -14.30078125 35.8828125 C-14.30467448 37.57892968 -14.30901043 39.2750459 -14.31376648 40.97116089 C-14.32122906 44.53370307 -14.32094107 48.09614622 -14.31567383 51.65869141 C-14.30993671 56.16887442 -14.32666862 60.678639 -14.3500185 65.18875313 C-14.36495272 68.69980138 -14.36560028 72.21075406 -14.36250877 75.72182846 C-14.3630141 77.38078502 -14.36809917 79.0397481 -14.37832069 80.69867325 C-14.43150382 90.55352912 -13.8015771 99.95912957 -12.04870319 109.67102242 C-11.297275 113.83532486 -10.73834618 117.74386424 -11 122 C-12.86227872 123.86227872 -15.94249297 123.50508114 -18.44921875 123.75390625 C-19.09945511 123.81907944 -19.74969147 123.88425262 -20.41963196 123.95140076 C-21.80062124 124.08879602 -23.18183099 124.22399006 -24.56323242 124.35717773 C-26.66188778 124.56002444 -28.7596512 124.77064317 -30.85742188 124.98242188 C-43.08711029 126.19013795 -43.08711029 126.19013795 -48 126 C-49 125 -49 125 -49.125 122.5 C-49 120 -49 120 -48 119 C-45.32941149 118.85884839 -42.67567762 118.95752893 -40 119 C-39.93941406 118.33613281 -39.87882812 117.67226563 -39.81640625 116.98828125 C-39.73261719 116.10527344 -39.64882812 115.22226562 -39.5625 114.3125 C-39.48128906 113.44238281 -39.40007813 112.57226562 -39.31640625 111.67578125 C-39 109 -39 109 -38.49128723 106.86717224 C-37.8390365 103.0606105 -37.83601205 99.29941311 -37.82299805 95.44946289 C-37.81314125 94.17535301 -37.81314125 94.17535301 -37.80308533 92.87550354 C-37.78343065 90.07455345 -37.77170983 87.27365667 -37.76171875 84.47265625 C-37.75560546 83.03446942 -37.75560546 83.03446942 -37.74936867 81.56722832 C-37.72854555 76.49639987 -37.71422523 71.42559822 -37.70483398 66.35473633 C-37.69375205 61.12131761 -37.65932083 55.88832201 -37.61966228 50.65505314 C-37.59351748 46.62555655 -37.58514425 42.5961614 -37.58155251 38.56658745 C-37.57668435 36.63729417 -37.56506384 34.70800549 -37.54651451 32.77879524 C-37.52215901 30.07883147 -37.52308093 27.3799717 -37.5300293 24.67993164 C-37.51721924 23.88649353 -37.50440918 23.09305542 -37.49121094 22.27557373 C-37.54001256 17.06448743 -38.59227931 14.15574793 -42 10 C-44.10575643 8.16699091 -44.10575643 8.16699091 -46 7 C-45.67 5.68 -45.34 4.36 -45 3 C-40.03825297 2.56784413 -35.07610139 2.14079208 -30.11352539 1.71826172 C-28.42883743 1.57412247 -26.74426371 1.42864079 -25.05981445 1.28173828 C-22.62480737 1.06962211 -20.18941674 0.86249614 -17.75390625 0.65625 C-17.01290176 0.59062866 -16.27189728 0.52500732 -15.50843811 0.45739746 C-10.32304806 0.02487368 -5.2035843 -0.05399309 0 0 Z " fill="#000064" transform="translate(2277,557)"/>
</svg>
