<?xml version="1.0" encoding="UTF-8"?>
<!DOCTYPE svg PUBLIC "-//W3C//DTD SVG 1.1//EN" "http://www.w3.org/Graphics/SVG/1.1/DTD/svg11.dtd">
<svg xmlns="http://www.w3.org/2000/svg" version="1.1" width="4320px" height="4320px" style="shape-rendering:geometricPrecision; text-rendering:geometricPrecision; image-rendering:optimizeQuality; fill-rule:evenodd; clip-rule:evenodd" xmlns:xlink="http://www.w3.org/1999/xlink">
<g><path style="opacity:0.995" fill="#000065" d="M 1242.5,965.5 C 1671.17,965.333 2099.83,965.5 2528.5,966C 2628.15,972.613 2725.48,990.78 2820.5,1020.5C 2838.42,1026.64 2856.09,1033.47 2873.5,1041C 2903.18,1055.63 2933.01,1069.8 2963,1083.5C 3033.57,1122.45 3096.57,1171.12 3152,1229.5C 3177.33,1258.33 3200.33,1288.99 3221,1321.5C 3232.84,1340.92 3244.18,1360.59 3255,1380.5C 3268.65,1409.47 3280.32,1439.13 3290,1469.5C 3323.44,1589.84 3330.44,1711.84 3311,1835.5C 3300.87,1890.69 3284.53,1944.02 3262,1995.5C 3244.2,2030.43 3224.87,2064.43 3204,2097.5C 3199.32,2104.51 3193.32,2110.18 3186,2114.5C 3173.46,2117.75 3161.29,2121.91 3149.5,2127C 3129.81,2137.79 3110.31,2148.96 3091,2160.5C 3071.49,2170.5 3051.66,2179.84 3031.5,2188.5C 3012.25,2195.66 2992.91,2202.66 2973.5,2209.5C 2947.29,2217.08 2920.95,2223.91 2894.5,2230C 2837.84,2240.59 2780.68,2247.75 2723,2251.5C 2638.34,2255.15 2553.5,2256.48 2468.5,2255.5C 2468.33,2254.18 2468.66,2253.01 2469.5,2252C 2492.19,2243.89 2514.69,2235.39 2537,2226.5C 2590.71,2202.25 2634.88,2166.58 2669.5,2119.5C 2690.02,2090.29 2706.69,2058.95 2719.5,2025.5C 2726.96,2005 2733.79,1984.33 2740,1963.5C 2745.69,1941.9 2750.36,1920.24 2754,1898.5C 2758.87,1864.1 2763.54,1829.76 2768,1795.5C 2772.63,1725.37 2772.63,1655.37 2768,1585.5C 2762.2,1544.17 2756.36,1502.83 2750.5,1461.5C 2738.77,1387.4 2711.1,1320.07 2667.5,1259.5C 2630.15,1212.61 2583.15,1178.61 2526.5,1157.5C 2491.86,1145.61 2456.53,1136.44 2420.5,1130C 2401.87,1128.38 2383.54,1126.04 2365.5,1123C 2343.7,1121.89 2322.03,1120.56 2300.5,1119C 2238.83,1118.33 2177.17,1118.33 2115.5,1119C 2092.32,1120.49 2068.98,1120.99 2045.5,1120.5C 2045.67,1371.5 2045.5,1622.5 2045,1873.5C 2016.14,1883.68 1987.64,1894.85 1959.5,1907C 1804.8,1976.68 1653.46,2053.01 1505.5,2136C 1502.94,2137.08 1500.27,2137.58 1497.5,2137.5C 1497.67,1857.17 1497.5,1576.83 1497,1296.5C 1495.68,1268.28 1493.51,1240.11 1490.5,1212C 1487.39,1185.16 1481.56,1158.99 1473,1133.5C 1461.42,1100.25 1438.92,1078.09 1405.5,1067C 1378.32,1058.43 1350.82,1051.27 1323,1045.5C 1296.28,1041.61 1269.44,1038.94 1242.5,1037.5C 1241.17,1013.47 1241.17,989.47 1242.5,965.5 Z"/></g>
<g><path style="opacity:0.98" fill="#fe0000" d="M 3298.5,1275.5 C 3302.25,1275.4 3305.58,1276.57 3308.5,1279C 3314.08,1285 3318.58,1291.84 3322,1299.5C 3337.82,1339.9 3353.82,1380.23 3370,1420.5C 3394.98,1490.77 3414.65,1562.44 3429,1635.5C 3445,1723.96 3449.66,1813.29 3443,1903.5C 3437.88,1951.12 3428.71,1997.79 3415.5,2043.5C 3399.43,2092.66 3377.59,2139 3350,2182.5C 3339.84,2195.65 3330.5,2209.32 3322,2223.5C 3302.73,2248.6 3281.56,2271.93 3258.5,2293.5C 3236.12,2313.22 3214.12,2333.22 3192.5,2353.5C 3126.64,2406.42 3054.31,2448.92 2975.5,2481C 2931.21,2504.49 2885.21,2523.49 2837.5,2538C 2775.91,2555.16 2713.58,2569.32 2650.5,2580.5C 2460.89,2610.63 2269.72,2619.96 2077,2608.5C 2057.36,2606.69 2037.86,2604.52 2018.5,2602C 2011.09,2601.11 2003.75,2601.44 1996.5,2603C 1993.28,2606.5 1991.78,2610.67 1992,2615.5C 1990,2616.5 1990,2617.5 1992,2618.5C 1992.53,2630.23 1994.37,2641.73 1997.5,2653C 2013.21,2705.46 2031.71,2756.96 2053,2807.5C 2070.35,2846.2 2088.85,2884.36 2108.5,2922C 2121.44,2942.78 2133.77,2963.95 2145.5,2985.5C 2146.51,2989.86 2147.51,2994.19 2148.5,2998.5C 2142.26,2997.55 2136.26,2995.72 2130.5,2993C 2116.83,2984.5 2103.5,2975.5 2090.5,2966C 2044.46,2928.3 1998.13,2890.96 1951.5,2854C 1847.47,2760.3 1743.14,2666.97 1638.5,2574C 1607.94,2545.46 1576.61,2517.46 1544.5,2490C 1543.08,2487.79 1541.41,2485.79 1539.5,2484C 1527.88,2474.72 1516.55,2465.05 1505.5,2455C 1488.81,2439.31 1472.47,2423.31 1456.5,2407C 1453.13,2404.32 1449.79,2401.66 1446.5,2399C 1425.32,2378.12 1404.49,2356.96 1384,2335.5C 1375.62,2325.13 1367.29,2314.8 1359,2304.5C 1356.53,2301.25 1355.36,2297.58 1355.5,2293.5C 1365.41,2290.27 1374.07,2284.94 1381.5,2277.5C 1478.42,2220.79 1574.92,2163.46 1671,2105.5C 1689.35,2095.1 1707.85,2084.93 1726.5,2075C 1795.84,2042.37 1865.01,2009.54 1934,1976.5C 1968.23,1961.61 2002.23,1946.28 2036,1930.5C 2072.33,1914.75 2109.16,1900.25 2146.5,1887C 2170.67,1877.09 2195,1867.42 2219.5,1858C 2232.76,1852.44 2246.43,1848.27 2260.5,1845.5C 2259.34,1850 2258.01,1854.5 2256.5,1859C 2244.42,1877.89 2230.92,1895.73 2216,1912.5C 2160.49,1988.27 2111.99,2068.61 2070.5,2153.5C 2058.76,2179.71 2049.43,2206.71 2042.5,2234.5C 2041.77,2239.14 2041.44,2243.81 2041.5,2248.5C 2158.3,2273.65 2276.3,2291.99 2395.5,2303.5C 2441.12,2307.02 2486.78,2309.52 2532.5,2311C 2641.01,2314.06 2748.68,2306.73 2855.5,2289C 2876.93,2284.88 2898.43,2280.38 2920,2275.5C 2992.86,2257.77 3062.69,2231.94 3129.5,2198C 3139.67,2191.84 3149.83,2185.67 3160,2179.5C 3167.47,2175.73 3175.31,2173.06 3183.5,2171.5C 3183.87,2177.36 3182.37,2182.69 3179,2187.5C 3166.75,2202.58 3153.59,2216.92 3139.5,2230.5C 3128.87,2240.47 3117.87,2249.97 3106.5,2259C 3081.05,2277 3054.05,2293 3025.5,2307C 2975.52,2331.33 2924.19,2352.33 2871.5,2370C 2832.87,2381.52 2793.87,2390.85 2754.5,2398C 2668.52,2409.93 2582.52,2421.6 2496.5,2433C 2422.04,2438.25 2347.38,2439.92 2272.5,2438C 2205.98,2435.53 2139.32,2434.03 2072.5,2433.5C 2072.5,2434.5 2072.5,2435.5 2072.5,2436.5C 2093.52,2436.6 2114.19,2438.93 2134.5,2443.5C 2191.45,2449.3 2248.78,2452.47 2306.5,2453C 2339.7,2455.81 2373.04,2458.48 2406.5,2461C 2491.57,2462.32 2576.57,2459.98 2661.5,2454C 2702.34,2447.78 2743.34,2441.95 2784.5,2436.5C 2822.69,2428.36 2860.52,2419.03 2898,2408.5C 2982.86,2382.83 3060.02,2343.16 3129.5,2289.5C 3153.61,2270.09 3177.61,2250.59 3201.5,2231C 3221.45,2209.4 3239.45,2186.4 3255.5,2162C 3270.93,2136.58 3285.93,2110.91 3300.5,2085C 3324.03,2039.31 3341.53,1991.48 3353,1941.5C 3373.28,1840.39 3380.11,1738.22 3373.5,1635C 3371.57,1612.67 3369.07,1590.5 3366,1568.5C 3358.24,1524.08 3350.41,1479.75 3342.5,1435.5C 3327.84,1382.17 3313.17,1328.84 3298.5,1275.5 Z"/></g>
<g><path style="opacity:0.991" fill="#000065" d="M 1497.5,2522.5 C 1498.55,2522.35 1499.55,2522.52 1500.5,2523C 1671,2670.48 1841.33,2818.48 2011.5,2967C 2021.83,2975 2032.17,2983 2042.5,2991C 2050.27,2998.71 2056.44,3007.55 2061,3017.5C 2064.73,3032.29 2067.89,3047.12 2070.5,3062C 2072.47,3068.74 2074.97,3075.24 2078,3081.5C 2084.55,3092.27 2092.71,3101.6 2102.5,3109.5C 2125.71,3125.52 2151.04,3137.02 2178.5,3144C 2206.68,3151.41 2235.18,3157.24 2264,3161.5C 2276.15,3162.64 2288.31,3163.47 2300.5,3164C 2302.36,3183.74 2302.86,3203.57 2302,3223.5C 2301.48,3231.01 2297.65,3235.85 2290.5,3238C 1941.5,3238.67 1592.5,3238.67 1243.5,3238C 1243,3237.5 1242.5,3237 1242,3236.5C 1241.33,3212.83 1241.33,3189.17 1242,3165.5C 1242.5,3165 1243,3164.5 1243.5,3164C 1292.74,3161.64 1341.08,3153.8 1388.5,3140.5C 1404.32,3134.67 1419.66,3127.67 1434.5,3119.5C 1446,3111.83 1455.33,3102 1462.5,3090C 1471.78,3071.3 1478.61,3051.8 1483,3031.5C 1485.11,3015.02 1487.45,2998.69 1490,2982.5C 1497.52,2887.5 1500.35,2792.16 1498.5,2696.5C 1498.39,2638.5 1498.06,2580.5 1497.5,2522.5 Z"/></g>
</svg>
